<svg version="1.1" xmlns="http://www.w3.org/2000/svg" viewBox="0 0 859.587890625 417.75" width="1719.17578125" height="835.5">
  <!-- svg-source:excalidraw -->
  
  <defs>
    <style class="style-fonts">
      @font-face {
        font-family: "Virgil";
        src: url("https://excalidraw.com/Virgil.woff2");
      }
      @font-face {
        font-family: "Cascadia";
        src: url("https://excalidraw.com/Cascadia.woff2");
      }
    </style>
  </defs>
  <rect x="0" y="0" width="859.587890625" height="417.75" fill="#ffffff"></rect><g transform="translate(434.1484375 10) rotate(0 82.26992797851562 12.5)"><text x="0" y="0" font-family="Virgil, Segoe UI Emoji" font-size="20px" fill="#000000" text-anchor="start" style="white-space: pre;" direction="ltr" dominant-baseline="text-before-edge">Analytics Service</text></g><g stroke-linecap="round" transform="translate(441.84375 221.0546875) rotate(0 85.71484375 51.919921875)"><path d="M25.96 0 M25.96 0 C59.52 -1.16, 92.05 -1.18, 145.47 0 M25.96 0 C55.38 0.05, 84.59 -0.92, 145.47 0 M145.47 0 C162.56 0.7, 172.36 7.06, 171.43 25.96 M145.47 0 C164.3 0.58, 171.76 8.26, 171.43 25.96 M171.43 25.96 C169.38 41.28, 171.28 54.48, 171.43 77.88 M171.43 25.96 C171.77 44.75, 172.09 62.51, 171.43 77.88 M171.43 77.88 C169.55 94.38, 161.51 105.08, 145.47 103.84 M171.43 77.88 C170.35 96.88, 164.37 101.66, 145.47 103.84 M145.47 103.84 C117.57 105.14, 91.37 104.51, 25.96 103.84 M145.47 103.84 C106.89 105.22, 69.57 104.24, 25.96 103.84 M25.96 103.84 C10.2 102.02, -0.88 95.77, 0 77.88 M25.96 103.84 C7.52 104.96, 1.32 93.46, 0 77.88 M0 77.88 C1.16 62.96, -0.85 50.06, 0 25.96 M0 77.88 C-0.8 59.64, 0.4 42.28, 0 25.96 M0 25.96 C-1.23 10.35, 7.67 0.3, 25.96 0 M0 25.96 C-0.88 8.46, 8.2 -0.26, 25.96 0" stroke="#000000" stroke-width="1" fill="none"></path></g><g transform="translate(482.03515625 248.5234375) rotate(0 43.50996398925781 25)"><text x="0" y="0" font-family="Virgil, Segoe UI Emoji" font-size="20px" fill="#000000" text-anchor="start" style="white-space: pre;" direction="ltr" dominant-baseline="text-before-edge">Analytics</text><text x="0" y="25" font-family="Virgil, Segoe UI Emoji" font-size="20px" fill="#000000" text-anchor="start" style="white-space: pre;" direction="ltr" dominant-baseline="text-before-edge">Manager</text></g><g stroke-linecap="round"><g transform="translate(235.9375 202.62890625) rotate(0 102.27979211756494 28.5501118297052)"><path d="M-1.01 -0.64 C33.09 9.09, 169.07 48.3, 203.47 57.74 M0.66 1.64 C35.22 11.12, 171.51 47.01, 205.57 56.24" stroke="#000000" stroke-width="1" fill="none"></path></g><g transform="translate(235.9375 202.62890625) rotate(0 102.27979211756494 28.5501118297052)"><path d="M174.62 56.93 C183.78 59.83, 186.97 58.44, 203.89 56.35 M174.81 58.02 C183.48 57.35, 192.64 56.54, 205.41 55.68" stroke="#000000" stroke-width="1" fill="none"></path></g><g transform="translate(235.9375 202.62890625) rotate(0 102.27979211756494 28.5501118297052)"><path d="M179.91 37.1 C187.89 44.01, 190 46.67, 203.89 56.35 M180.1 38.2 C187.4 42.96, 195.1 47.6, 205.41 55.68" stroke="#000000" stroke-width="1" fill="none"></path></g></g><mask></mask><g stroke-linecap="round"><g transform="translate(230.74609375 269.4453125) rotate(0 102.06933706178799 2.9305205959416583)"><path d="M-0.06 1.13 C34.1 1.7, 171.47 3.69, 205.68 4.26 M-1.55 0.67 C32.47 1.28, 170.87 4.4, 205.26 5.19" stroke="#000000" stroke-width="1" fill="none"></path></g><g transform="translate(230.74609375 269.4453125) rotate(0 102.06933706178799 2.9305205959416583)"><path d="M178.72 16.46 C185.18 12.27, 196 7.07, 205.4 4.64 M176.08 15.16 C184.69 11.76, 192.91 8.72, 205.79 5.88" stroke="#000000" stroke-width="1" fill="none"></path></g><g transform="translate(230.74609375 269.4453125) rotate(0 102.06933706178799 2.9305205959416583)"><path d="M179.19 -4.05 C185.62 -0.77, 196.27 1.5, 205.4 4.64 M176.54 -5.36 C185.04 -2.93, 193.13 -0.15, 205.79 5.88" stroke="#000000" stroke-width="1" fill="none"></path></g></g><mask></mask><g stroke-linecap="round"><g transform="translate(233.28125 327.03515625) rotate(0 100.18471523776185 -21.842033163539014)"><path d="M0.53 0.22 C34.06 -6.86, 167.54 -35.05, 201.02 -42.16 M-0.65 -0.7 C32.71 -8.16, 166.37 -36.61, 199.92 -43.91" stroke="#000000" stroke-width="1" fill="none"></path></g><g transform="translate(233.28125 327.03515625) rotate(0 100.18471523776185 -21.842033163539014)"><path d="M174.89 -28.43 C182.93 -32.51, 189.78 -37.47, 199.57 -45.61 M175.07 -28.39 C183.67 -34.1, 192.16 -38.52, 199.25 -44.77" stroke="#000000" stroke-width="1" fill="none"></path></g><g transform="translate(233.28125 327.03515625) rotate(0 100.18471523776185 -21.842033163539014)"><path d="M170.57 -48.49 C179.9 -46.85, 187.99 -46.07, 199.57 -45.61 M170.76 -48.45 C180.93 -47.39, 190.88 -45.02, 199.25 -44.77" stroke="#000000" stroke-width="1" fill="none"></path></g></g><mask></mask><g transform="translate(33.1484375 238) rotate(0 84.8799057006836 25)"><text x="0" y="0" font-family="Virgil, Segoe UI Emoji" font-size="20px" fill="#000000" text-anchor="start" style="white-space: pre;" direction="ltr" dominant-baseline="text-before-edge">Events from </text><text x="0" y="25" font-family="Virgil, Segoe UI Emoji" font-size="20px" fill="#000000" text-anchor="start" style="white-space: pre;" direction="ltr" dominant-baseline="text-before-edge">different entities</text></g><g stroke-linecap="round" transform="translate(10 152.49609375) rotate(0 105.15625 111.978515625)"><path d="M32 0 M32 0 C80.95 0.27, 126.37 0.54, 178.31 0 M32 0 C88.94 0.88, 147.1 -0.41, 178.31 0 M178.31 0 C200.79 -0.85, 211.86 9.41, 210.31 32 M178.31 0 C198.61 -2.3, 208.53 9.98, 210.31 32 M210.31 32 C208.48 73.56, 208.66 118.68, 210.31 191.96 M210.31 32 C209.89 92.55, 208.98 152.39, 210.31 191.96 M210.31 191.96 C211.4 215.25, 199.04 225.38, 178.31 223.96 M210.31 191.96 C210.99 211.13, 198.72 223.05, 178.31 223.96 M178.31 223.96 C128.1 224.55, 78.82 224.61, 32 223.96 M178.31 223.96 C145.69 222.69, 110.56 223.08, 32 223.96 M32 223.96 C12.64 223.43, -0.06 213.54, 0 191.96 M32 223.96 C11.03 224.2, -2.16 211.67, 0 191.96 M0 191.96 C2.37 149.19, -0.72 108.87, 0 32 M0 191.96 C0.79 153.8, 0.7 115.41, 0 32 M0 32 C-1.23 8.71, 8.91 -0.48, 32 0 M0 32 C-1.93 10.28, 11.98 1.31, 32 0" stroke="#000000" stroke-width="1" fill="none"></path></g><g stroke-linecap="round" transform="translate(728.95703125 75.58984375) rotate(0 58.193359375 42.5)"><path d="M21.25 0 M21.25 0 C43.41 -1.99, 63.74 -0.84, 95.14 0 M21.25 0 C40.99 -1.3, 61.96 -1.29, 95.14 0 M95.14 0 C108.98 0.92, 117.44 7.87, 116.39 21.25 M95.14 0 C110.31 1.28, 114.98 4.83, 116.39 21.25 M116.39 21.25 C115.95 31.42, 117.43 38.94, 116.39 63.75 M116.39 21.25 C116.06 36.42, 116.56 54.23, 116.39 63.75 M116.39 63.75 C116.72 77.48, 110.66 84.1, 95.14 85 M116.39 63.75 C117.02 79.69, 108.92 84.41, 95.14 85 M95.14 85 C72.3 84.88, 48.32 82.79, 21.25 85 M95.14 85 C77.96 84.65, 60.21 86.36, 21.25 85 M21.25 85 C6.93 83.02, 1.92 76.54, 0 63.75 M21.25 85 C5.29 82.97, -0.12 79.34, 0 63.75 M0 63.75 C1.54 49.33, 1.37 37.03, 0 21.25 M0 63.75 C0.11 55.11, 0.3 44.24, 0 21.25 M0 21.25 C0.72 6.05, 6.7 1.74, 21.25 0 M0 21.25 C-1.57 5.23, 6.69 0.55, 21.25 0" stroke="#000000" stroke-width="1" fill="none"></path></g><g transform="translate(735.3604354858398 80.58984375) rotate(0 51.789955139160156 37.5)"><text x="51.789955139160156" y="0" font-family="Virgil, Segoe UI Emoji" font-size="20px" fill="#000000" text-anchor="middle" style="white-space: pre;" direction="ltr" dominant-baseline="text-before-edge">Clevertap </text><text x="51.789955139160156" y="25" font-family="Virgil, Segoe UI Emoji" font-size="20px" fill="#000000" text-anchor="middle" style="white-space: pre;" direction="ltr" dominant-baseline="text-before-edge">Analytics </text><text x="51.789955139160156" y="50" font-family="Virgil, Segoe UI Emoji" font-size="20px" fill="#000000" text-anchor="middle" style="white-space: pre;" direction="ltr" dominant-baseline="text-before-edge">Service</text></g><g stroke-linecap="round" transform="translate(751.35546875 144.42578125) rotate(0 0.11328125 0.11328125)"><path d="M0.06 0 M0.06 0 C0.08 0, 0.11 0.01, 0.17 0 M0.06 0 C0.08 0, 0.12 0, 0.17 0 M0.17 0 C1.59 -0.05, -1.48 0.74, 0.23 0.06 M0.17 0 C-0.98 -0.44, 2.23 -1.55, 0.23 0.06 M0.23 0.06 C0.23 0.09, 0.23 0.11, 0.23 0.17 M0.23 0.06 C0.23 0.09, 0.22 0.13, 0.23 0.17 M0.23 0.17 C0.33 0.19, -1.74 -0.32, 0.17 0.23 M0.23 0.17 C-0.03 -1.06, 2.43 -1.56, 0.17 0.23 M0.17 0.23 C0.14 0.23, 0.1 0.24, 0.06 0.23 M0.17 0.23 C0.13 0.23, 0.1 0.23, 0.06 0.23 M0.06 0.23 C1.21 1.6, 1.92 0.54, 0 0.17 M0.06 0.23 C0.85 2.14, -0.09 -1.83, 0 0.17 M0 0.17 C-0.01 0.13, 0 0.11, 0 0.06 M0 0.17 C0 0.13, 0 0.08, 0 0.06 M0 0.06 C1.58 -0.2, 1.47 1.37, 0.06 0 M0 0.06 C1.21 1.32, -0.22 -0.78, 0.06 0" stroke="#000000" stroke-width="1" fill="none"></path></g><g stroke-linecap="round" transform="translate(728.181640625 322.75) rotate(0 58.193359375 42.5)"><path d="M21.25 0 M21.25 0 C46.56 -1.29, 70.16 0.08, 95.14 0 M21.25 0 C37.25 0.34, 53.66 -1.21, 95.14 0 M95.14 0 C110.03 -1.04, 116 8.83, 116.39 21.25 M95.14 0 C107.73 -1.85, 115.99 7.63, 116.39 21.25 M116.39 21.25 C117.21 34.14, 118.61 47.51, 116.39 63.75 M116.39 21.25 C116.96 35.03, 116.7 47.74, 116.39 63.75 M116.39 63.75 C115.84 77.69, 108.2 86.93, 95.14 85 M116.39 63.75 C114.6 78.74, 111.57 82.98, 95.14 85 M95.14 85 C72.1 85.27, 44.55 85.7, 21.25 85 M95.14 85 C77.69 85.4, 61.02 85.77, 21.25 85 M21.25 85 C7.42 85.73, 1.66 77.84, 0 63.75 M21.25 85 C5.05 84.44, -1.66 77.42, 0 63.75 M0 63.75 C0.08 56.27, 1.98 43, 0 21.25 M0 63.75 C-0.41 51.21, -0.51 37.82, 0 21.25 M0 21.25 C1.37 8.14, 8.22 -0.21, 21.25 0 M0 21.25 C-0.78 8.06, 6.75 1.83, 21.25 0" stroke="#000000" stroke-width="1" fill="none"></path></g><g transform="translate(737.8650360107422 327.75) rotate(0 48.50996398925781 37.5)"><text x="48.50996398925781" y="0" font-family="Virgil, Segoe UI Emoji" font-size="20px" fill="#000000" text-anchor="middle" style="white-space: pre;" direction="ltr" dominant-baseline="text-before-edge">Custom </text><text x="48.50996398925781" y="25" font-family="Virgil, Segoe UI Emoji" font-size="20px" fill="#000000" text-anchor="middle" style="white-space: pre;" direction="ltr" dominant-baseline="text-before-edge">Analytics </text><text x="48.50996398925781" y="50" font-family="Virgil, Segoe UI Emoji" font-size="20px" fill="#000000" text-anchor="middle" style="white-space: pre;" direction="ltr" dominant-baseline="text-before-edge">Service</text></g><g stroke-linecap="round" transform="translate(733.201171875 198.32421875) rotate(0 58.193359375 42.5)"><path d="M21.25 0 M21.25 0 C42.86 0.81, 66.59 -2.18, 95.14 0 M21.25 0 C38.53 0.13, 53.57 0.52, 95.14 0 M95.14 0 C108.27 -0.38, 118.13 5.72, 116.39 21.25 M95.14 0 C107.45 -0.4, 116.93 7.17, 116.39 21.25 M116.39 21.25 C116.46 39.53, 116.93 54.57, 116.39 63.75 M116.39 21.25 C116.11 37.21, 115.08 52.91, 116.39 63.75 M116.39 63.75 C116.17 76.82, 111.24 83.44, 95.14 85 M116.39 63.75 C117.21 80.18, 107.28 85.87, 95.14 85 M95.14 85 C69.35 85.02, 44.13 84.42, 21.25 85 M95.14 85 C75.57 85.65, 55.78 85.13, 21.25 85 M21.25 85 C7.81 86.66, -0.08 76.15, 0 63.75 M21.25 85 C6.53 83.34, -0.5 76.1, 0 63.75 M0 63.75 C1.81 55.73, -2.08 44.63, 0 21.25 M0 63.75 C0.9 46.86, 0.83 30.86, 0 21.25 M0 21.25 C1.05 8.22, 6.87 -0.68, 21.25 0 M0 21.25 C0.98 6.75, 8.92 1.39, 21.25 0" stroke="#000000" stroke-width="1" fill="none"></path></g><g transform="translate(742.8845672607422 203.32421875) rotate(0 48.50996398925781 37.5)"><text x="48.50996398925781" y="0" font-family="Virgil, Segoe UI Emoji" font-size="20px" fill="#000000" text-anchor="middle" style="white-space: pre;" direction="ltr" dominant-baseline="text-before-edge">Firebase </text><text x="48.50996398925781" y="25" font-family="Virgil, Segoe UI Emoji" font-size="20px" fill="#000000" text-anchor="middle" style="white-space: pre;" direction="ltr" dominant-baseline="text-before-edge">Analytics </text><text x="48.50996398925781" y="50" font-family="Virgil, Segoe UI Emoji" font-size="20px" fill="#000000" text-anchor="middle" style="white-space: pre;" direction="ltr" dominant-baseline="text-before-edge">Service</text></g><g stroke-linecap="round"><g transform="translate(623.109375 230.29296875) rotate(0 49.698715651719795 -51.73013520704117)"><path d="M-0.8 0.84 C15.42 -16.2, 81.27 -85.14, 98 -102.52 M0.98 0.23 C17.51 -17.12, 83.83 -87.21, 100.19 -104.3" stroke="#000000" stroke-width="1" fill="none"></path></g><g transform="translate(623.109375 230.29296875) rotate(0 49.698715651719795 -51.73013520704117)"><path d="M89.6 -78.44 C93.66 -85.56, 96.38 -98.01, 100.45 -103.32 M87.31 -77.6 C91.36 -84.39, 94.47 -93.47, 100.88 -104.98" stroke="#000000" stroke-width="1" fill="none"></path></g><g transform="translate(623.109375 230.29296875) rotate(0 49.698715651719795 -51.73013520704117)"><path d="M74.73 -92.58 C84.09 -94.53, 92.13 -101.92, 100.45 -103.32 M72.44 -91.75 C81.02 -94.23, 88.56 -99.09, 100.88 -104.98" stroke="#000000" stroke-width="1" fill="none"></path></g></g><mask></mask><g stroke-linecap="round"><g transform="translate(625.30859375 256.171875) rotate(0 51.0522182174027 -1.274037129431946)"><path d="M-0.9 0.63 C16.08 0.26, 85.77 -2.62, 103 -3.18 M0.83 -0.08 C17.63 -0.17, 85.68 -0.87, 102.52 -1.67" stroke="#000000" stroke-width="1" fill="none"></path></g><g transform="translate(625.30859375 256.171875) rotate(0 51.0522182174027 -1.274037129431946)"><path d="M75.66 10.81 C85.61 5.8, 97.33 1.99, 101.58 -2.21 M74.91 10.3 C82.83 6.28, 90.34 2.93, 102.9 -2.05" stroke="#000000" stroke-width="1" fill="none"></path></g><g transform="translate(625.30859375 256.171875) rotate(0 51.0522182174027 -1.274037129431946)"><path d="M75.13 -9.7 C85.12 -6.61, 97.06 -2.33, 101.58 -2.21 M74.38 -10.22 C82.33 -8.44, 89.98 -6, 102.9 -2.05" stroke="#000000" stroke-width="1" fill="none"></path></g></g><mask></mask><g stroke-linecap="round"><g transform="translate(627.68359375 288.515625) rotate(0 46.742084019631136 35.79191695974208)"><path d="M-1.12 1 C14.81 12.48, 78.81 58.28, 94.6 69.76 M0.5 0.48 C16.36 12.05, 77.77 59.33, 93.7 71.1" stroke="#000000" stroke-width="1" fill="none"></path></g><g transform="translate(627.68359375 288.515625) rotate(0 46.742084019631136 35.79191695974208)"><path d="M66.69 62.42 C70.74 62.99, 77.23 65.73, 94.33 70.02 M65.89 62.88 C75.53 65.66, 86.61 68.44, 93.66 71.01" stroke="#000000" stroke-width="1" fill="none"></path></g><g transform="translate(627.68359375 288.515625) rotate(0 46.742084019631136 35.79191695974208)"><path d="M79.06 46.05 C80.53 50.09, 84.31 56.42, 94.33 70.02 M78.26 46.5 C82.89 55.7, 89.1 64.93, 93.66 71.01" stroke="#000000" stroke-width="1" fill="none"></path></g></g><mask></mask></svg>