<svg version="1.1" xmlns="http://www.w3.org/2000/svg" viewBox="0 0 1630.5596008300781 1240" width="3261.1192016601562" height="2480">
  <!-- svg-source:excalidraw -->
  
  <defs>
    <style class="style-fonts">
      @font-face {
        font-family: "Virgil";
        src: url("https://excalidraw.com/Virgil.woff2");
      }
      @font-face {
        font-family: "Cascadia";
        src: url("https://excalidraw.com/Cascadia.woff2");
      }
    </style>
  </defs>
  <rect x="0" y="0" width="1630.5596008300781" height="1240" fill="#ffffff"></rect><g transform="translate(287 10) rotate(0 81.72993469238281 25)"><text x="0" y="0" font-family="Virgil, Segoe UI Emoji" font-size="20px" fill="#000000" text-anchor="start" style="white-space: pre;" direction="ltr" dominant-baseline="text-before-edge">Analytics Library</text><text x="0" y="25" font-family="Virgil, Segoe UI Emoji" font-size="20px" fill="#000000" text-anchor="start" style="white-space: pre;" direction="ltr" dominant-baseline="text-before-edge"></text></g><g transform="translate(352 67.890625) rotate(0 355.7397155761719 62.5)"><text x="0" y="0" font-family="Virgil, Segoe UI Emoji" font-size="20px" fill="#000000" text-anchor="start" style="white-space: pre;" direction="ltr" dominant-baseline="text-before-edge">Requirements</text><text x="0" y="25" font-family="Virgil, Segoe UI Emoji" font-size="20px" fill="#000000" text-anchor="start" style="white-space: pre;" direction="ltr" dominant-baseline="text-before-edge">1. Easy to integrate - NF</text><text x="0" y="50" font-family="Virgil, Segoe UI Emoji" font-size="20px" fill="#000000" text-anchor="start" style="white-space: pre;" direction="ltr" dominant-baseline="text-before-edge">2. Send information - FR</text><text x="0" y="75" font-family="Virgil, Segoe UI Emoji" font-size="20px" fill="#000000" text-anchor="start" style="white-space: pre;" direction="ltr" dominant-baseline="text-before-edge">3. Should work in offline/low internet scenarios - FR</text><text x="0" y="100" font-family="Virgil, Segoe UI Emoji" font-size="20px" fill="#000000" text-anchor="start" style="white-space: pre;" direction="ltr" dominant-baseline="text-before-edge">4. Any sort of apps available can use - support lower end devices - NF</text></g><g transform="translate(412 264) rotate(0 19.29998779296875 12.5)"><text x="0" y="0" font-family="Virgil, Segoe UI Emoji" font-size="20px" fill="#000000" text-anchor="start" style="white-space: pre;" direction="ltr" dominant-baseline="text-before-edge">HLD</text></g><g stroke-linecap="round" transform="translate(389.484375 386.3046875) rotate(0 72.173828125 60.060546875)"><path d="M30.03 0 M30.03 0 C46.47 -1.07, 66.06 1.62, 114.32 0 M30.03 0 C58.7 -0.69, 85.81 -1.09, 114.32 0 M114.32 0 C134.87 0.95, 143.43 10.28, 144.35 30.03 M114.32 0 C133.12 1.88, 146.55 10.95, 144.35 30.03 M144.35 30.03 C143.77 51.66, 145.2 71.24, 144.35 90.09 M144.35 30.03 C144.88 46.36, 144.83 62.28, 144.35 90.09 M144.35 90.09 C143.55 111.82, 135.58 118.22, 114.32 120.12 M144.35 90.09 C145.61 109.7, 133.6 119.84, 114.32 120.12 M114.32 120.12 C82.23 121.26, 50.93 119.82, 30.03 120.12 M114.32 120.12 C82.49 120.86, 49.97 121.19, 30.03 120.12 M30.03 120.12 C10.37 121.1, 0.47 111.76, 0 90.09 M30.03 120.12 C8.47 121.99, 1.98 108.49, 0 90.09 M0 90.09 C0.36 75.07, 1.81 55.75, 0 30.03 M0 90.09 C1.13 70.45, -0.33 49.92, 0 30.03 M0 30.03 C0.57 8.56, 10.43 0.56, 30.03 0 M0 30.03 C-0.56 9.95, 7.93 1.46, 30.03 0" stroke="#000000" stroke-width="1" fill="none"></path></g><g transform="translate(413.1482391357422 421.365234375) rotate(0 48.50996398925781 25)"><text x="48.50996398925781" y="0" font-family="Virgil, Segoe UI Emoji" font-size="20px" fill="#000000" text-anchor="middle" style="white-space: pre;" direction="ltr" dominant-baseline="text-before-edge">Analytics </text><text x="48.50996398925781" y="25" font-family="Virgil, Segoe UI Emoji" font-size="20px" fill="#000000" text-anchor="middle" style="white-space: pre;" direction="ltr" dominant-baseline="text-before-edge">Manager</text></g><g stroke-linecap="round"><g transform="translate(207.598729774224 348.97611827763166) rotate(0 85.82635153951844 38.40084781673792)"><path d="M0.14 -0.8 C28.79 12.03, 144.19 63.62, 172.89 76.52 M-1.24 1.39 C27.2 14.39, 143.43 64.92, 172.25 77.6" stroke="#000000" stroke-width="1" fill="none"></path></g><g transform="translate(207.598729774224 348.97611827763166) rotate(0 85.82635153951844 38.40084781673792)"><path d="M140.97 76.66 C152.39 76.5, 164.07 76.08, 173.33 75.8 M142.35 76.12 C153.25 77.31, 164.62 76.92, 172.28 78.51" stroke="#000000" stroke-width="1" fill="none"></path></g><g transform="translate(207.598729774224 348.97611827763166) rotate(0 85.82635153951844 38.40084781673792)"><path d="M149.2 57.86 C157.37 64.97, 165.87 71.8, 173.33 75.8 M150.57 57.32 C158.31 65.73, 166.5 72.64, 172.28 78.51" stroke="#000000" stroke-width="1" fill="none"></path></g></g><mask></mask><g stroke-linecap="round" transform="translate(627.234375 510.2734375) rotate(0 81.1484375 66.43359375)"><path d="M32 0 M32 0 C55.87 1.66, 80.82 0.08, 130.3 0 M32 0 C62.13 -0.02, 90.67 0.66, 130.3 0 M130.3 0 C152.62 0.75, 161.12 9.81, 162.3 32 M130.3 0 C149.99 1.01, 163.08 8.69, 162.3 32 M162.3 32 C163.56 50.35, 163.79 69.15, 162.3 100.87 M162.3 32 C163.37 52.5, 162.35 72.32, 162.3 100.87 M162.3 100.87 C162.07 122.26, 149.78 130.87, 130.3 132.87 M162.3 100.87 C163.58 124.27, 153.04 130.79, 130.3 132.87 M130.3 132.87 C98.72 130.88, 63.19 130.81, 32 132.87 M130.3 132.87 C99.17 134.62, 68.26 134.09, 32 132.87 M32 132.87 C9.61 132.1, 1.6 123.01, 0 100.87 M32 132.87 C8.42 131.01, -0.46 122.81, 0 100.87 M0 100.87 C0.8 81.28, 0.45 65.61, 0 32 M0 100.87 C-0.16 80.18, 0.02 60.83, 0 32 M0 32 C0.49 11.16, 10.16 -0.51, 32 0 M0 32 C1.05 12.29, 12.31 0.02, 32 0" stroke="#000000" stroke-width="1" fill="none"></path></g><g transform="translate(652.6728744506836 564.20703125) rotate(0 55.709938049316406 12.5)"><text x="55.709938049316406" y="0" font-family="Virgil, Segoe UI Emoji" font-size="20px" fill="#000000" text-anchor="middle" style="white-space: pre;" direction="ltr" dominant-baseline="text-before-edge">Persistence</text></g><g stroke-linecap="round" transform="translate(700.60546875 291.49609375) rotate(0 105.626953125 60.03125)"><path d="M30.02 0 M30.02 0 C62.35 2.36, 95.7 1.56, 181.24 0 M30.02 0 C88.58 -0.96, 149.01 -0.18, 181.24 0 M181.24 0 C199.3 -1.62, 210.85 10.54, 211.25 30.02 M181.24 0 C200.33 2.15, 210.19 11.66, 211.25 30.02 M211.25 30.02 C211.43 44.5, 211.86 56.67, 211.25 90.05 M211.25 30.02 C211.82 44.92, 211.33 59.08, 211.25 90.05 M211.25 90.05 C212.16 111.47, 202.68 120.08, 181.24 120.06 M211.25 90.05 C210.4 111.47, 203.25 121.81, 181.24 120.06 M181.24 120.06 C128.75 120.89, 77.52 121.03, 30.02 120.06 M181.24 120.06 C124.42 119.33, 69.14 119.48, 30.02 120.06 M30.02 120.06 C10.44 119.22, 1.18 111.32, 0 90.05 M30.02 120.06 C10.04 117.81, 0.1 108.65, 0 90.05 M0 90.05 C-1.06 70.54, 1.64 48.22, 0 30.02 M0 90.05 C0.55 74.09, 1.27 57.14, 0 30.02 M0 30.02 C0.43 11.48, 10.01 -1.14, 30.02 0 M0 30.02 C1.04 10.85, 10.7 0.67, 30.02 0" stroke="#000000" stroke-width="1" fill="none"></path></g><g transform="translate(787.612434387207 339.02734375) rotate(0 18.61998748779297 12.5)"><text x="18.61998748779297" y="0" font-family="Virgil, Segoe UI Emoji" font-size="20px" fill="#000000" text-anchor="middle" style="white-space: pre;" direction="ltr" dominant-baseline="text-before-edge">API</text></g><g stroke-linecap="round"><g transform="translate(540.70703125 487.8515625) rotate(0 42.401438750266095 28.39430063444263)"><path d="M0.05 -0.74 C14.41 8.8, 72.03 46.68, 86.18 56.05 M-1.38 1.49 C12.88 11.33, 71.37 48.36, 85.57 57.52" stroke="#000000" stroke-width="1" fill="none"></path></g><g transform="translate(540.70703125 487.8515625) rotate(0 42.401438750266095 28.39430063444263)"><path d="M55.07 52.08 C64.86 51.96, 72.77 56.68, 87.15 58.24 M56.36 51.96 C65.29 53.59, 72.97 55.21, 85.58 56.95" stroke="#000000" stroke-width="1" fill="none"></path></g><g transform="translate(540.70703125 487.8515625) rotate(0 42.401438750266095 28.39430063444263)"><path d="M66.12 34.78 C72.41 39.89, 76.99 49.83, 87.15 58.24 M67.41 34.67 C73.09 41.25, 77.65 47.75, 85.58 56.95" stroke="#000000" stroke-width="1" fill="none"></path></g></g><mask></mask><g stroke-linecap="round"><g transform="translate(780.2754576930076 502.6640625) rotate(0 22.875820537009304 -43.07848862531591)"><path d="M0.8 -1.16 C8.04 -15.42, 36.38 -71.35, 43.58 -85.49 M-0.23 0.85 C7.39 -13.73, 38.76 -72.2, 45.99 -87" stroke="#000000" stroke-width="1" fill="none"></path></g><g transform="translate(780.2754576930076 502.6640625) rotate(0 22.875820537009304 -43.07848862531591)"><path d="M40.25 -58.22 C45.27 -66.89, 45.63 -74.29, 46.75 -88.46 M42.09 -56.43 C44.42 -67.45, 45.5 -75.18, 46.4 -86.24" stroke="#000000" stroke-width="1" fill="none"></path></g><g transform="translate(780.2754576930076 502.6640625) rotate(0 22.875820537009304 -43.07848862531591)"><path d="M22.02 -67.62 C32.75 -73.47, 38.83 -77.93, 46.75 -88.46 M23.85 -65.83 C31.91 -73.85, 38.76 -78.61, 46.4 -86.24" stroke="#000000" stroke-width="1" fill="none"></path></g></g><mask></mask><g stroke-linecap="round" transform="translate(70.62890625 273.0546875) rotate(0 64.5 65.5)"><path d="M81.25 16.5 M81.25 16.5 C91.42 26.84, 103.35 40.17, 112.75 49.5 M81.25 16.5 C93.03 28.99, 105.35 43.46, 112.75 49.5 M112.75 49.5 C130.95 67.94, 127.97 64.48, 112.75 82.5 M112.75 49.5 C128.9 65.04, 131.08 64.07, 112.75 82.5 M112.75 82.5 C103.8 93.75, 92.91 103.07, 81.25 114.5 M112.75 82.5 C101.33 94.81, 89.49 105.67, 81.25 114.5 M81.25 114.5 C65.45 130.03, 65.83 130.42, 48.75 114.5 M81.25 114.5 C64.6 130.38, 63.09 130.63, 48.75 114.5 M48.75 114.5 C38.79 102.92, 27.34 92.9, 16.25 82.5 M48.75 114.5 C41.69 107.24, 35.5 101.87, 16.25 82.5 M16.25 82.5 C0.11 67.42, -0.14 65.07, 16.25 49.5 M16.25 82.5 C2.15 66.9, -1.65 66.76, 16.25 49.5 M16.25 49.5 C27.65 36.66, 38.4 27.24, 48.75 16.5 M16.25 49.5 C24.45 41.81, 32.68 32.69, 48.75 16.5 M48.75 16.5 C66.32 -1.22, 64.05 -1.42, 81.25 16.5 M48.75 16.5 C66.18 1, 66.5 0.78, 81.25 16.5" stroke="#000000" stroke-width="1" fill="none"></path></g><g transform="translate(108.32893371582031 326.3046875) rotate(0 27.049972534179688 12.5)"><text x="27.049972534179688" y="0" font-family="Virgil, Segoe UI Emoji" font-size="20px" fill="#000000" text-anchor="middle" style="white-space: pre;" direction="ltr" dominant-baseline="text-before-edge">Client</text></g><g stroke-linecap="round"><g transform="translate(545.6328125 460.0859375) rotate(0 74.55494158848654 -27.7089369349182)"><path d="M0.8 -0.2 C25.6 -9.23, 124.5 -46.16, 149.35 -55.22 M-0.24 -1.35 C24.38 -10.16, 123.53 -45.44, 148.49 -54.09" stroke="#000000" stroke-width="1" fill="none"></path></g><g transform="translate(545.6328125 460.0859375) rotate(0 74.55494158848654 -27.7089369349182)"><path d="M124.97 -34.76 C132.14 -40.48, 141.25 -48.38, 149.22 -55.65 M124.89 -35.72 C131.81 -40.4, 137.66 -45.36, 149.26 -53.23" stroke="#000000" stroke-width="1" fill="none"></path></g><g transform="translate(545.6328125 460.0859375) rotate(0 74.55494158848654 -27.7089369349182)"><path d="M118.16 -54.11 C127.5 -53.24, 138.95 -54.49, 149.22 -55.65 M118.07 -55.07 C126.93 -54.27, 134.7 -53.76, 149.26 -53.23" stroke="#000000" stroke-width="1" fill="none"></path></g></g><mask></mask><g transform="translate(358 726) rotate(0 50.8299560546875 12.5)"><text x="0" y="0" font-family="Virgil, Segoe UI Emoji" font-size="20px" fill="#000000" text-anchor="start" style="white-space: pre;" direction="ltr" dominant-baseline="text-before-edge">Public API</text></g><g transform="translate(230 782) rotate(0 242.59976196289062 75)"><text x="0" y="0" font-family="Virgil, Segoe UI Emoji" font-size="20px" fill="#000000" text-anchor="start" style="white-space: pre;" direction="ltr" dominant-baseline="text-before-edge">- fun send(event: Event)</text><text x="0" y="25" font-family="Virgil, Segoe UI Emoji" font-size="20px" fill="#000000" text-anchor="start" style="white-space: pre;" direction="ltr" dominant-baseline="text-before-edge">- setUserProperties(properties: Map&lt;String, Any&gt;)</text><text x="0" y="50" font-family="Virgil, Segoe UI Emoji" font-size="20px" fill="#000000" text-anchor="start" style="white-space: pre;" direction="ltr" dominant-baseline="text-before-edge">- setIdentifier(id: String)</text><text x="0" y="75" font-family="Virgil, Segoe UI Emoji" font-size="20px" fill="#000000" text-anchor="start" style="white-space: pre;" direction="ltr" dominant-baseline="text-before-edge">- unsetUser()</text><text x="0" y="100" font-family="Virgil, Segoe UI Emoji" font-size="20px" fill="#000000" text-anchor="start" style="white-space: pre;" direction="ltr" dominant-baseline="text-before-edge">- initialise(application: Application, config: Config)</text><text x="0" y="125" font-family="Virgil, Segoe UI Emoji" font-size="20px" fill="#000000" text-anchor="start" style="white-space: pre;" direction="ltr" dominant-baseline="text-before-edge">- getInstance()</text></g><g transform="translate(1147 364) rotate(0 32.41996765136719 12.5)"><text x="0" y="0" font-family="Virgil, Segoe UI Emoji" font-size="20px" fill="#000000" text-anchor="start" style="white-space: pre;" direction="ltr" dominant-baseline="text-before-edge">Models</text></g><g transform="translate(1150 410) rotate(0 27.759979248046875 12.5)"><text x="0" y="0" font-family="Virgil, Segoe UI Emoji" font-size="20px" fill="#000000" text-anchor="start" style="white-space: pre;" direction="ltr" dominant-baseline="text-before-edge">Event</text></g><g transform="translate(1159 448) rotate(0 137.17987060546875 25)"><text x="0" y="0" font-family="Virgil, Segoe UI Emoji" font-size="20px" fill="#000000" text-anchor="start" style="white-space: pre;" direction="ltr" dominant-baseline="text-before-edge">name: String</text><text x="0" y="25" font-family="Virgil, Segoe UI Emoji" font-size="20px" fill="#000000" text-anchor="start" style="white-space: pre;" direction="ltr" dominant-baseline="text-before-edge">properties: Map&lt;String, Any&gt;</text></g><g transform="translate(1154 551) rotate(0 91.96990203857422 12.5)"><text x="0" y="0" font-family="Virgil, Segoe UI Emoji" font-size="20px" fill="#000000" text-anchor="start" style="white-space: pre;" direction="ltr" dominant-baseline="text-before-edge">Default properties</text></g><g transform="translate(1164.87109375 585) rotate(0 185.05984497070312 50)"><text x="0" y="0" font-family="Virgil, Segoe UI Emoji" font-size="20px" fill="#000000" text-anchor="start" style="white-space: pre;" direction="ltr" dominant-baseline="text-before-edge">- timestamp</text><text x="0" y="25" font-family="Virgil, Segoe UI Emoji" font-size="20px" fill="#000000" text-anchor="start" style="white-space: pre;" direction="ltr" dominant-baseline="text-before-edge">- deviceInfo - </text><text x="0" y="50" font-family="Virgil, Segoe UI Emoji" font-size="20px" fill="#000000" text-anchor="start" style="white-space: pre;" direction="ltr" dominant-baseline="text-before-edge">OS, device manufacturer, device name</text><text x="0" y="75" font-family="Virgil, Segoe UI Emoji" font-size="20px" fill="#000000" text-anchor="start" style="white-space: pre;" direction="ltr" dominant-baseline="text-before-edge">- appInfo - version code and name</text></g><g transform="translate(1154 762) rotate(0 154.36985778808594 62.5)"><text x="0" y="0" font-family="Virgil, Segoe UI Emoji" font-size="20px" fill="#000000" text-anchor="start" style="white-space: pre;" direction="ltr" dominant-baseline="text-before-edge">DB</text><text x="0" y="25" font-family="Virgil, Segoe UI Emoji" font-size="20px" fill="#000000" text-anchor="start" style="white-space: pre;" direction="ltr" dominant-baseline="text-before-edge">Event</text><text x="0" y="50" font-family="Virgil, Segoe UI Emoji" font-size="20px" fill="#000000" text-anchor="start" style="white-space: pre;" direction="ltr" dominant-baseline="text-before-edge">id: Primary key (auto-increment)</text><text x="0" y="75" font-family="Virgil, Segoe UI Emoji" font-size="20px" fill="#000000" text-anchor="start" style="white-space: pre;" direction="ltr" dominant-baseline="text-before-edge">name: String</text><text x="0" y="100" font-family="Virgil, Segoe UI Emoji" font-size="20px" fill="#000000" text-anchor="start" style="white-space: pre;" direction="ltr" dominant-baseline="text-before-edge">properties: String</text></g><g transform="translate(1139 1000) rotate(0 240.77980041503906 50)"><text x="0" y="0" font-family="Virgil, Segoe UI Emoji" font-size="20px" fill="#000000" text-anchor="start" style="white-space: pre;" direction="ltr" dominant-baseline="text-before-edge">Upload/Sync</text><text x="0" y="25" font-family="Virgil, Segoe UI Emoji" font-size="20px" fill="#000000" text-anchor="start" style="white-space: pre;" direction="ltr" dominant-baseline="text-before-edge">- upload when a certain threshold is reached</text><text x="0" y="50" font-family="Virgil, Segoe UI Emoji" font-size="20px" fill="#000000" text-anchor="start" style="white-space: pre;" direction="ltr" dominant-baseline="text-before-edge">- on network change, check if something needs to</text><text x="0" y="75" font-family="Virgil, Segoe UI Emoji" font-size="20px" fill="#000000" text-anchor="start" style="white-space: pre;" direction="ltr" dominant-baseline="text-before-edge">be uploaded</text></g><g stroke-linecap="round" transform="translate(1026.421875 305.40234375) rotate(0 30.171875 158.947265625)"><path d="M15.09 0 M15.09 0 C22.87 0.99, 30.56 1.85, 45.26 0 M15.09 0 C27.96 0.72, 38.77 0.32, 45.26 0 M45.26 0 C57.2 -0.47, 60.05 6.92, 60.34 15.09 M45.26 0 C54.96 -0.37, 60.1 6.49, 60.34 15.09 M60.34 15.09 C59.44 92.6, 59.58 170.33, 60.34 302.81 M60.34 15.09 C59.7 118.63, 59.28 220.68, 60.34 302.81 M60.34 302.81 C60.44 313.36, 55.9 316.38, 45.26 317.89 M60.34 302.81 C59.34 312.74, 55.29 316.95, 45.26 317.89 M45.26 317.89 C37.67 316.81, 29.92 316.28, 15.09 317.89 M45.26 317.89 C34.28 318.95, 24.62 318.61, 15.09 317.89 M15.09 317.89 C4.74 319.85, -0.75 312.62, 0 302.81 M15.09 317.89 C3.86 319.58, 1.01 310.97, 0 302.81 M0 302.81 C-1.07 207.25, -0.77 115.29, 0 15.09 M0 302.81 C-1.02 244.64, -1.11 186.88, 0 15.09 M0 15.09 C-1.45 5.74, 5.13 0.82, 15.09 0 M0 15.09 C-0.7 3.62, 4.41 1.39, 15.09 0" stroke="#000000" stroke-width="1" fill="none"></path></g><g transform="translate(1056 370) rotate(0 6.079994201660156 75)"><text x="0" y="0" font-family="Virgil, Segoe UI Emoji" font-size="20px" fill="#000000" text-anchor="start" style="white-space: pre;" direction="ltr" dominant-baseline="text-before-edge">S</text><text x="0" y="25" font-family="Virgil, Segoe UI Emoji" font-size="20px" fill="#000000" text-anchor="start" style="white-space: pre;" direction="ltr" dominant-baseline="text-before-edge">e</text><text x="0" y="50" font-family="Virgil, Segoe UI Emoji" font-size="20px" fill="#000000" text-anchor="start" style="white-space: pre;" direction="ltr" dominant-baseline="text-before-edge">r</text><text x="0" y="75" font-family="Virgil, Segoe UI Emoji" font-size="20px" fill="#000000" text-anchor="start" style="white-space: pre;" direction="ltr" dominant-baseline="text-before-edge">v</text><text x="0" y="100" font-family="Virgil, Segoe UI Emoji" font-size="20px" fill="#000000" text-anchor="start" style="white-space: pre;" direction="ltr" dominant-baseline="text-before-edge">e</text><text x="0" y="125" font-family="Virgil, Segoe UI Emoji" font-size="20px" fill="#000000" text-anchor="start" style="white-space: pre;" direction="ltr" dominant-baseline="text-before-edge">r</text></g><g stroke-linecap="round"><g transform="translate(920.66015625 342.98046875) rotate(0 49.694587082415865 22.196737945051865)"><path d="M-1.04 0.39 C15.57 7.49, 83.64 36.22, 100.43 43.52 M0.62 -0.46 C17.03 6.74, 83.29 37.18, 99.62 44.85" stroke="#000000" stroke-width="1" fill="none"></path></g><g transform="translate(920.66015625 342.98046875) rotate(0 49.694587082415865 22.196737945051865)"><path d="M70.37 42.77 C79.98 42.67, 91.89 43.31, 100.75 45.67 M70.65 41.84 C78.31 42.44, 87.61 44.67, 100.1 44.11" stroke="#000000" stroke-width="1" fill="none"></path></g><g transform="translate(920.66015625 342.98046875) rotate(0 49.694587082415865 22.196737945051865)"><path d="M79 24.15 C85.6 30.75, 94.38 38.15, 100.75 45.67 M79.28 23.22 C84.29 29.15, 91.09 36.78, 100.1 44.11" stroke="#000000" stroke-width="1" fill="none"></path></g></g><mask></mask><g transform="translate(239 1019) rotate(0 182.94985961914062 50)"><text x="0" y="0" font-family="Virgil, Segoe UI Emoji" font-size="20px" fill="#000000" text-anchor="start" style="white-space: pre;" direction="ltr" dominant-baseline="text-before-edge">Backend API</text><text x="0" y="25" font-family="Virgil, Segoe UI Emoji" font-size="20px" fill="#000000" text-anchor="start" style="white-space: pre;" direction="ltr" dominant-baseline="text-before-edge">- POST /event body : Event</text><text x="0" y="50" font-family="Virgil, Segoe UI Emoji" font-size="20px" fill="#000000" text-anchor="start" style="white-space: pre;" direction="ltr" dominant-baseline="text-before-edge">- POST /events body: [Event]</text><text x="0" y="75" font-family="Virgil, Segoe UI Emoji" font-size="20px" fill="#000000" text-anchor="start" style="white-space: pre;" direction="ltr" dominant-baseline="text-before-edge">- POST /user body: Map&lt;String, Any&gt;</text></g><g transform="translate(10 40) rotate(0 119.14989471435547 37.5)"><text x="0" y="0" font-family="Virgil, Segoe UI Emoji" font-size="20px" fill="#000000" text-anchor="start" style="white-space: pre;" direction="ltr" dominant-baseline="text-before-edge">Feedback</text><text x="0" y="25" font-family="Virgil, Segoe UI Emoji" font-size="20px" fill="#000000" text-anchor="start" style="white-space: pre;" direction="ltr" dominant-baseline="text-before-edge">1. Should separate into</text><text x="0" y="50" font-family="Virgil, Segoe UI Emoji" font-size="20px" fill="#000000" text-anchor="start" style="white-space: pre;" direction="ltr" dominant-baseline="text-before-edge">functional non-functionla</text></g><g transform="translate(371.1015625 536.9140625) rotate(0 86.2898941040039 25)"><text x="0" y="0" font-family="Virgil, Segoe UI Emoji" font-size="20px" fill="#000000" text-anchor="start" style="white-space: pre;" direction="ltr" dominant-baseline="text-before-edge">What are </text><text x="0" y="25" font-family="Virgil, Segoe UI Emoji" font-size="20px" fill="#000000" text-anchor="start" style="white-space: pre;" direction="ltr" dominant-baseline="text-before-edge">its reponsibilities?</text></g><g transform="translate(869 486) rotate(0 47.81995391845703 37.5)"><text x="0" y="0" font-family="Virgil, Segoe UI Emoji" font-size="20px" fill="#000000" text-anchor="start" style="white-space: pre;" direction="ltr" dominant-baseline="text-before-edge">Can have</text><text x="0" y="25" font-family="Virgil, Segoe UI Emoji" font-size="20px" fill="#000000" text-anchor="start" style="white-space: pre;" direction="ltr" dominant-baseline="text-before-edge">a sync </text><text x="0" y="50" font-family="Virgil, Segoe UI Emoji" font-size="20px" fill="#000000" text-anchor="start" style="white-space: pre;" direction="ltr" dominant-baseline="text-before-edge">component</text></g><g transform="translate(596 1155) rotate(0 276.249755859375 37.5)"><text x="0" y="0" font-family="Virgil, Segoe UI Emoji" font-size="20px" fill="#000000" text-anchor="start" style="white-space: pre;" direction="ltr" dominant-baseline="text-before-edge">Protobufs can be used</text><text x="0" y="25" font-family="Virgil, Segoe UI Emoji" font-size="20px" fill="#000000" text-anchor="start" style="white-space: pre;" direction="ltr" dominant-baseline="text-before-edge">Why not use persistent connection? Web Sockets, MQTT</text><text x="0" y="50" font-family="Virgil, Segoe UI Emoji" font-size="20px" fill="#000000" text-anchor="start" style="white-space: pre;" direction="ltr" dominant-baseline="text-before-edge">Optimisations, intelligent batching</text></g></svg>