<svg version="1.1" xmlns="http://www.w3.org/2000/svg" viewBox="0 0 947.7921577415802 800.078125" width="1895.5843154831605" height="1600.15625">
  <!-- svg-source:excalidraw -->
  
  <defs>
    <style class="style-fonts">
      @font-face {
        font-family: "Virgil";
        src: url("https://excalidraw.com/Virgil.woff2");
      }
      @font-face {
        font-family: "Cascadia";
        src: url("https://excalidraw.com/Cascadia.woff2");
      }
    </style>
  </defs>
  <rect x="0" y="0" width="947.7921577415802" height="800.078125" fill="#ffffff"></rect><g transform="translate(376.91850893454625 10) rotate(0 117.5 18.5)"><text x="0" y="26" font-family="Virgil, Segoe UI Emoji" font-size="29.394042968749996px" fill="#000000" text-anchor="start" style="white-space: pre;" direction="ltr">Chat Application</text></g><g stroke-linecap="round" transform="translate(141.46147768454625 113.18359375) rotate(0 75.341796875 38.857421875)"><path d="M73.58 0.21 C84.53 -0.54, 97.66 1.01, 108.06 3.78 C118.46 6.54, 128.95 11.76, 135.98 16.8 C143 21.84, 148.51 28.2, 150.2 34.03 C151.9 39.85, 150.25 46.23, 146.14 51.75 C142.03 57.26, 134.16 62.98, 125.54 67.1 C116.92 71.23, 105.49 74.88, 94.41 76.49 C83.34 78.09, 70.38 77.98, 59.08 76.73 C47.77 75.48, 35.44 72.92, 26.57 69.01 C17.71 65.1, 10.26 58.9, 5.89 53.25 C1.53 47.6, -0.59 41.05, 0.37 35.11 C1.32 29.17, 5.12 22.53, 11.65 17.59 C18.18 12.65, 28.72 8.26, 39.55 5.46 C50.37 2.66, 69.88 1.64, 76.58 0.78 C83.28 -0.07, 79.87 -0.18, 79.74 0.35 M95.06 0.99 C106.13 2.19, 118.01 6.97, 126.38 11.38 C134.75 15.78, 141.46 22.08, 145.27 27.43 C149.07 32.78, 150.76 37.68, 149.19 43.49 C147.61 49.3, 142.63 57.28, 135.83 62.3 C129.02 67.31, 118.94 70.78, 108.35 73.59 C97.76 76.39, 83.82 79.06, 72.28 79.13 C60.75 79.2, 48.99 77.37, 39.16 74 C29.33 70.64, 19.64 64.32, 13.28 58.92 C6.93 53.52, 2.06 47.38, 1.02 41.61 C-0.02 35.84, 2.74 29.5, 7.03 24.3 C11.32 19.1, 18.04 14.34, 26.76 10.42 C35.48 6.5, 47.83 2.44, 59.35 0.77 C70.87 -0.9, 89.79 0.38, 95.88 0.4 C101.97 0.41, 96.15 -0.08, 95.89 0.85" stroke="#000000" stroke-width="1" fill="none"></path></g><g transform="translate(176.80327455954625 139.541015625) rotate(0 40 12.5)"><text x="40" y="18" font-family="Virgil, Segoe UI Emoji" font-size="20px" fill="#000000" text-anchor="middle" style="white-space: pre;" direction="ltr">Backend</text></g><g stroke-linecap="round" transform="translate(396.46538393454625 142.359375) rotate(0 82.853515625 38.83203125)"><path d="M72.44 0.83 C84.3 -0.43, 98.82 0.64, 110.67 2.76 C122.52 4.89, 134.83 9.23, 143.52 13.6 C152.21 17.97, 159.36 23.22, 162.82 28.99 C166.28 34.77, 167.11 42.37, 164.28 48.26 C161.46 54.15, 154.54 59.9, 145.87 64.33 C137.2 68.75, 124.36 72.53, 112.25 74.8 C100.13 77.06, 85.85 78.51, 73.21 77.92 C60.58 77.32, 46.84 74.75, 36.44 71.23 C26.03 67.72, 16.73 62.19, 10.8 56.82 C4.86 51.45, 1.17 45.01, 0.82 39.01 C0.47 33.02, 3.13 26.15, 8.69 20.83 C14.24 15.51, 21.53 10.52, 34.15 7.08 C46.76 3.64, 74.07 1.01, 84.38 0.18 C94.69 -0.66, 95.98 1.39, 96.01 2.09 M48.49 4.33 C59.22 1.27, 74.81 -1.1, 87.29 -0.85 C99.78 -0.59, 112.71 2.81, 123.42 5.87 C134.12 8.92, 144.61 12.51, 151.52 17.48 C158.43 22.45, 163.46 29.83, 164.87 35.68 C166.28 41.53, 164.81 46.81, 159.98 52.58 C155.15 58.35, 145.89 66.22, 135.9 70.3 C125.91 74.37, 112.77 76.17, 100.05 77 C87.33 77.84, 71.98 77.01, 59.59 75.32 C47.2 73.62, 34.95 71.11, 25.71 66.84 C16.48 62.57, 8.52 55.47, 4.17 49.7 C-0.18 43.93, -2.38 38.06, -0.37 32.23 C1.63 26.39, 8.07 19.65, 16.19 14.69 C24.32 9.73, 43 4.21, 48.37 2.46 C53.74 0.71, 47.93 3.4, 48.42 4.17" stroke="#000000" stroke-width="1" fill="none"></path></g><g transform="translate(411.81889955954625 168.69140625) rotate(0 67.5 12.5)"><text x="67.5" y="18" font-family="Virgil, Segoe UI Emoji" font-size="20px" fill="#000000" text-anchor="middle" style="white-space: pre;" direction="ltr">Push Provider</text></g><g stroke-linecap="round" transform="translate(643.4419464345463 136.6953125) rotate(0 53.5 30.169921875)"><path d="M64.49 1.25 C73.69 1.96, 84.45 5.45, 91.17 9.18 C97.89 12.91, 102.56 18.59, 104.8 23.63 C107.03 28.68, 107.58 34.31, 104.58 39.48 C101.57 44.64, 94.43 51.01, 86.77 54.62 C79.11 58.24, 68.13 60.74, 58.63 61.15 C49.12 61.57, 38.29 59.87, 29.75 57.11 C21.2 54.34, 12.24 49.13, 7.34 44.55 C2.44 39.97, 0.02 34.92, 0.34 29.64 C0.67 24.35, 3.89 17.5, 9.29 12.85 C14.69 8.2, 22.52 3.62, 32.73 1.75 C42.93 -0.12, 63.48 1.36, 70.53 1.63 C77.58 1.91, 75.39 3.01, 75.05 3.42 M72.5 1.3 C81.31 2.68, 91.43 8.69, 97.17 13.22 C102.92 17.75, 106.56 23.13, 106.97 28.49 C107.38 33.85, 104.45 40.47, 99.65 45.36 C94.85 50.26, 86.34 55.32, 78.16 57.85 C69.98 60.38, 60.09 61.1, 50.56 60.53 C41.04 59.96, 29.04 57.59, 21.01 54.4 C12.97 51.21, 5.78 46.73, 2.36 41.39 C-1.07 36.05, -1.8 27.95, 0.47 22.37 C2.74 16.79, 8.86 11.6, 15.99 7.93 C23.11 4.26, 33.85 1.47, 43.23 0.33 C52.6 -0.81, 67.42 0.78, 72.26 1.1 C77.1 1.42, 72.31 1.52, 72.26 2.24" stroke="#000000" stroke-width="1" fill="none"></path></g><g transform="translate(675.9419464345463 154.365234375) rotate(0 21 12.5)"><text x="21" y="18" font-family="Virgil, Segoe UI Emoji" font-size="20px" fill="#000000" text-anchor="middle" style="white-space: pre;" direction="ltr">CDN</text></g><g transform="translate(368.16069643454625 253.73828125) rotate(0 128 12.5)"><text x="0" y="18" font-family="Virgil, Segoe UI Emoji" font-size="20px" fill="#000000" text-anchor="start" style="white-space: pre;" direction="ltr">Client-Backend separation</text></g><g stroke-linecap="round"><g transform="translate(361.41460268454625 265.4296875) rotate(0 -174.94532574402166 1.6109815103281164)"><path d="M-0.44 0.89 C-58.94 1.55, -292.11 2.58, -350.63 2.91 M1.52 0.31 C-57.13 0.7, -292.38 0.97, -351.41 1.05" stroke="#000000" stroke-width="1" fill="none"></path></g></g><mask></mask><g stroke-linecap="round"><g transform="translate(631.9849151845463 267.52734375) rotate(0 152.41838046573105 0.6561346557027719)"><path d="M-0.97 -0.52 C50.03 -0.54, 254.74 -0.42, 305.81 -0.04 M0.72 1.82 C51.68 1.92, 254.74 1.37, 305.47 1.05" stroke="#000000" stroke-width="1" fill="none"></path></g></g><mask></mask><g stroke-linecap="round" transform="translate(140.25054018454625 338.26953125) rotate(0 74.078125 45.2109375)"><path d="M22.61 0 M22.61 0 C44.97 0.56, 68.56 1.03, 125.55 0 M22.61 0 C44.41 -0.58, 64.13 -0.41, 125.55 0 M125.55 0 C140.34 -1.76, 146.78 8.77, 148.16 22.61 M125.55 0 C139.86 -1.69, 150.02 5.73, 148.16 22.61 M148.16 22.61 C149.45 36.36, 149.95 45.89, 148.16 67.82 M148.16 22.61 C148.14 32.59, 148.88 41.06, 148.16 67.82 M148.16 67.82 C146.9 81.04, 139.52 89.1, 125.55 90.42 M148.16 67.82 C149.6 84.71, 138.4 92.08, 125.55 90.42 M125.55 90.42 C99.02 91.34, 73.35 92.63, 22.61 90.42 M125.55 90.42 C85.45 89.55, 46.22 90.91, 22.61 90.42 M22.61 90.42 C9.23 90.13, 1.27 83.67, 0 67.82 M22.61 90.42 C8.52 88.7, -0.51 83.32, 0 67.82 M0 67.82 C-0.19 58.91, -0.73 47.25, 0 22.61 M0 67.82 C-0.42 51.59, 0.05 33.93, 0 22.61 M0 22.61 C0.53 6.34, 6.13 1.09, 22.61 0 M0 22.61 C-0.77 7.56, 8.7 0.82, 22.61 0" stroke="#000000" stroke-width="1" fill="none"></path></g><g transform="translate(156.32866518454625 370.98046875) rotate(0 58 12.5)"><text x="58" y="18" font-family="Virgil, Segoe UI Emoji" font-size="20px" fill="#000000" text-anchor="middle" style="white-space: pre;" direction="ltr">API Service</text></g><g stroke-linecap="round" transform="translate(154.53179018454625 489.2890625) rotate(0 66.224609375 32.095703125)"><path d="M16.05 0 M16.05 0 C45.83 -0.75, 79.33 2.53, 116.4 0 M16.05 0 C45.14 -1.14, 73.15 -0.21, 116.4 0 M116.4 0 C125.81 -1.98, 131.14 4.71, 132.45 16.05 M116.4 0 C129.1 -1.36, 133.28 7.07, 132.45 16.05 M132.45 16.05 C134.12 21.7, 132.7 29.45, 132.45 48.14 M132.45 16.05 C131.89 23.76, 132.73 31.82, 132.45 48.14 M132.45 48.14 C131.53 59.33, 128.04 63.19, 116.4 64.19 M132.45 48.14 C131.04 57.11, 127.55 66.43, 116.4 64.19 M116.4 64.19 C95.75 62.66, 75.07 63.79, 16.05 64.19 M116.4 64.19 C90.05 63.94, 63.19 64.08, 16.05 64.19 M16.05 64.19 C5.66 63.02, -1.11 58.14, 0 48.14 M16.05 64.19 C7.57 66.09, -1.77 60.48, 0 48.14 M0 48.14 C-1.69 38.6, 0.41 30.64, 0 16.05 M0 48.14 C-0.77 38.7, 0.78 28.88, 0 16.05 M0 16.05 C-1.24 6.7, 6.53 0.83, 16.05 0 M0 16.05 C-0.52 6.15, 5.8 1.99, 16.05 0" stroke="#000000" stroke-width="1" fill="none"></path></g><g transform="translate(197.75639955954625 508.884765625) rotate(0 23 12.5)"><text x="23" y="18" font-family="Virgil, Segoe UI Emoji" font-size="20px" fill="#000000" text-anchor="middle" style="white-space: pre;" direction="ltr">Repo</text></g><g stroke-linecap="round" transform="translate(163.61772768454625 633.1953125) rotate(0 72.8671875 39.09375)"><path d="M19.55 0 M19.55 0 C42.25 -1.3, 62.97 1.8, 126.19 0 M19.55 0 C53.93 -0.3, 86.91 -0.37, 126.19 0 M126.19 0 C139.61 1.73, 144.3 6.28, 145.73 19.55 M126.19 0 C139.21 -0.13, 144.05 7.22, 145.73 19.55 M145.73 19.55 C145.98 27.88, 146.75 37.32, 145.73 58.64 M145.73 19.55 C145.02 31.35, 145.67 45.57, 145.73 58.64 M145.73 58.64 C144.83 70.73, 139.7 79.66, 126.19 78.19 M145.73 58.64 C147.33 71.26, 139.56 78.43, 126.19 78.19 M126.19 78.19 C86.4 76.91, 48.28 80.39, 19.55 78.19 M126.19 78.19 C94.59 78.47, 63.43 78.51, 19.55 78.19 M19.55 78.19 C7.39 79.25, 1.11 70.92, 0 58.64 M19.55 78.19 C6.41 80.08, -1.45 73.63, 0 58.64 M0 58.64 C1.76 43.73, -0.14 26.64, 0 19.55 M0 58.64 C0.48 50.61, -0.92 41.07, 0 19.55 M0 19.55 C1.34 8.45, 6.58 -0.21, 19.55 0 M0 19.55 C-1.57 7.28, 8.62 1.73, 19.55 0" stroke="#000000" stroke-width="1" fill="none"></path></g><g transform="translate(180.48491518454625 659.7890625) rotate(0 56 12.5)"><text x="56" y="18" font-family="Virgil, Segoe UI Emoji" font-size="20px" fill="#000000" text-anchor="middle" style="white-space: pre;" direction="ltr">Persistence</text></g><g stroke-linecap="round" transform="translate(186.92632143454625 694.390625) rotate(0 48 30)"><path d="M15 0 M15 0 C27.8 0.12, 42.37 -0.7, 81 0 M15 0 C34.56 -1.3, 55.18 -0.01, 81 0 M81 0 C89.45 0.8, 96.98 3, 96 15 M81 0 C91.87 1.02, 97.65 4.67, 96 15 M96 15 C97.24 24.37, 97.85 29.44, 96 45 M96 15 C95.6 25.84, 94.79 35.84, 96 45 M96 45 C96.59 56.98, 92.42 61.76, 81 60 M96 45 C94.67 56.11, 93.09 59.26, 81 60 M81 60 C67.06 61.65, 48.68 61.22, 15 60 M81 60 C57.87 59.17, 34.03 59.86, 15 60 M15 60 C6.63 59.34, 0.92 56.61, 0 45 M15 60 C7.12 58.81, 1.08 54.26, 0 45 M0 45 C-1.51 35.86, 1.29 30.92, 0 15 M0 45 C1.08 34.43, 0.97 21.44, 0 15 M0 15 C1.2 5.75, 3.76 0.31, 15 0 M0 15 C0.12 5.11, 6.92 1.08, 15 0" stroke="#000000" stroke-width="1" fill="none"></path></g><g transform="translate(192.55913393454625 699.390625) rotate(0 42 25)"><text x="42" y="18" font-family="Virgil, Segoe UI Emoji" font-size="20px" fill="#000000" text-anchor="middle" style="white-space: pre;" direction="ltr">Source </text><text x="42" y="43" font-family="Virgil, Segoe UI Emoji" font-size="20px" fill="#000000" text-anchor="middle" style="white-space: pre;" direction="ltr">of truth</text></g><g stroke-linecap="round" transform="translate(366.30913393454625 335.90625) rotate(0 20.115234375 183.818359375)"><path d="M10.06 0 M10.06 0 C15.48 1.74, 18.94 1.12, 30.17 0 M10.06 0 C15.19 -0.24, 19.44 0.5, 30.17 0 M30.17 0 C36.93 -1.86, 41.81 4.83, 40.23 10.06 M30.17 0 C36.5 -0.63, 40.49 2.26, 40.23 10.06 M40.23 10.06 C38.99 94.1, 41.28 177.94, 40.23 357.58 M40.23 10.06 C39.95 130.73, 40.47 252.27, 40.23 357.58 M40.23 357.58 C39.19 363.58, 35.73 367.46, 30.17 367.64 M40.23 357.58 C41.27 365.22, 37.64 368.06, 30.17 367.64 M30.17 367.64 C27.02 366.13, 22.33 367.51, 10.06 367.64 M30.17 367.64 C25.41 367.24, 21.58 367.94, 10.06 367.64 M10.06 367.64 C1.8 369.25, -1.9 365.73, 0 357.58 M10.06 367.64 C2.58 366.87, 1.86 363.39, 0 357.58 M0 357.58 C-0.68 287.13, -0.86 214.69, 0 10.06 M0 357.58 C-2.15 271.65, -1.91 184.6, 0 10.06 M0 10.06 C-1.29 3.53, 3.93 0.92, 10.06 0 M0 10.06 C0.72 4.15, 1.83 2.21, 10.06 0" stroke="#000000" stroke-width="1" fill="none"></path></g><g stroke-linecap="round" transform="translate(363.24663393454625 749.078125) rotate(0 278 20.5)"><path d="M10.25 0 M10.25 0 C166.81 0.56, 324.09 0.59, 545.75 0 M10.25 0 C185.75 -1.33, 360.88 -1.33, 545.75 0 M545.75 0 C552.29 1.44, 556.3 2.37, 556 10.25 M545.75 0 C551.78 1.07, 554.11 2.7, 556 10.25 M556 10.25 C556.83 14.77, 557.41 19.88, 556 30.75 M556 10.25 C556.76 17.71, 556.05 25.08, 556 30.75 M556 30.75 C557.64 38.11, 554.15 42.87, 545.75 41 M556 30.75 C557.27 36.7, 553.33 40.52, 545.75 41 M545.75 41 C380.75 42.27, 215.86 42.05, 10.25 41 M545.75 41 C371.59 43.27, 197.68 42.75, 10.25 41 M10.25 41 C4.05 41.63, -1.38 36.53, 0 30.75 M10.25 41 C4.67 39.94, 2.16 36.74, 0 30.75 M0 30.75 C-0.53 23.98, 0.86 16.91, 0 10.25 M0 30.75 C0.57 24.04, 0.47 16.81, 0 10.25 M0 10.25 C-0.19 4.53, 4.14 1.38, 10.25 0 M0 10.25 C-2.03 4.48, 3.74 -0.45, 10.25 0" stroke="#000000" stroke-width="1" fill="none"></path></g><g transform="translate(624.2466339345463 757.078125) rotate(0 17 12.5)"><text x="17" y="18" font-family="Virgil, Segoe UI Emoji" font-size="20px" fill="#000000" text-anchor="middle" style="white-space: pre;" direction="ltr">App</text></g><g stroke-linecap="round" transform="translate(838.9810089345463 443.7421875) rotate(0 27.439453125 128.345703125)"><path d="M13.72 0 M13.72 0 C20.35 0.99, 27.96 -0.3, 41.16 0 M13.72 0 C21.66 -0.71, 30.38 -0.86, 41.16 0 M41.16 0 C50.85 0.45, 55.96 5.1, 54.88 13.72 M41.16 0 C49.92 -0.33, 54.74 3.83, 54.88 13.72 M54.88 13.72 C57.06 85.48, 54.73 159.72, 54.88 242.97 M54.88 13.72 C56.71 90.98, 55.7 166.82, 54.88 242.97 M54.88 242.97 C55.63 253.59, 48.73 256.1, 41.16 256.69 M54.88 242.97 C55.7 253.63, 51.83 254.66, 41.16 256.69 M41.16 256.69 C31.7 257.15, 19.8 255.52, 13.72 256.69 M41.16 256.69 C35.08 256.78, 29.62 255.88, 13.72 256.69 M13.72 256.69 C3.02 257.96, -0.43 251.72, 0 242.97 M13.72 256.69 C5.16 257.54, 1.58 249.95, 0 242.97 M0 242.97 C1.79 160.14, 1.71 79.83, 0 13.72 M0 242.97 C-1.26 179.69, -0.49 115.38, 0 13.72 M0 13.72 C0.55 6.56, 5.97 0.83, 13.72 0 M0 13.72 C-0.78 5.56, 3.57 0.65, 13.72 0" stroke="#000000" stroke-width="1" fill="none"></path></g><g stroke-linecap="round" transform="translate(455.55522768454625 343.0703125) rotate(0 231.5 21.5)"><path d="M10.75 0 M10.75 0 C128.44 0.07, 247.73 0.85, 452.25 0 M10.75 0 C119.68 2.13, 227.78 2.51, 452.25 0 M452.25 0 C459.37 -0.55, 461.9 4.37, 463 10.75 M452.25 0 C457.4 -1.09, 461.97 3.97, 463 10.75 M463 10.75 C461.55 17.11, 461.53 27.62, 463 32.25 M463 10.75 C462.9 18.56, 463.82 27.44, 463 32.25 M463 32.25 C464.45 40.07, 459.75 41.77, 452.25 43 M463 32.25 C462.28 37.41, 459.72 43.44, 452.25 43 M452.25 43 C315.68 42.72, 179.69 44.21, 10.75 43 M452.25 43 C329.28 41.76, 206.24 42.11, 10.75 43 M10.75 43 C3.83 44.04, -0.21 39.75, 0 32.25 M10.75 43 C2.83 42.89, 1.76 40.49, 0 32.25 M0 32.25 C0.86 27.49, -0.55 18.94, 0 10.75 M0 32.25 C-1.04 24.2, 0.28 17.17, 0 10.75 M0 10.75 C-1.91 2.3, 3.03 -1.35, 10.75 0 M0 10.75 C-2.02 5.69, 3.94 -0.01, 10.75 0" stroke="#000000" stroke-width="1" fill="none"></path></g><g transform="translate(619.0552276845463 352.0703125) rotate(0 68 12.5)"><text x="68" y="18" font-family="Virgil, Segoe UI Emoji" font-size="20px" fill="#000000" text-anchor="middle" style="white-space: pre;" direction="ltr">Image Loader</text></g><g stroke-linecap="round" transform="translate(456.07085268454625 402.453125) rotate(0 226.8984375 17.5)"><path d="M8.75 0 M8.75 0 C129.19 0.51, 250.19 -1.05, 445.05 0 M8.75 0 C135.48 0.88, 262.19 1.26, 445.05 0 M445.05 0 C449.4 -0.23, 455.06 4.71, 453.8 8.75 M445.05 0 C448.75 1.35, 453.56 3.79, 453.8 8.75 M453.8 8.75 C454.4 13.78, 453.72 16.1, 453.8 26.25 M453.8 8.75 C453.44 14.38, 454.23 18.31, 453.8 26.25 M453.8 26.25 C452.05 31.21, 451.75 36.72, 445.05 35 M453.8 26.25 C452.13 34.04, 452.04 33.38, 445.05 35 M445.05 35 C292.91 34.53, 142.37 33.72, 8.75 35 M445.05 35 C280.4 33.28, 115.47 33.42, 8.75 35 M8.75 35 C2.43 34.71, 1.11 33.21, 0 26.25 M8.75 35 C0.96 33.77, 0.24 29.8, 0 26.25 M0 26.25 C-0.79 20.31, -1.16 13.82, 0 8.75 M0 26.25 C0.56 20.72, -0.56 13.16, 0 8.75 M0 8.75 C-1.19 2.47, 4.35 -1.37, 8.75 0 M0 8.75 C1.44 4.8, 4.18 1.75, 8.75 0" stroke="#000000" stroke-width="1" fill="none"></path></g><g transform="translate(581.4692901845463 407.453125) rotate(0 101.5 12.5)"><text x="101.5" y="18" font-family="Virgil, Segoe UI Emoji" font-size="20px" fill="#000000" text-anchor="middle" style="white-space: pre;" direction="ltr">Attachment Provider</text></g><g stroke-linecap="round" transform="translate(554.9536651845463 457.8046875) rotate(0 62.5 38.5)"><path d="M19.25 0 M19.25 0 C43.56 -1.67, 69.33 1.28, 105.75 0 M19.25 0 C43.78 -0.21, 66.63 0.17, 105.75 0 M105.75 0 C119.42 -0.73, 124.76 8.23, 125 19.25 M105.75 0 C119.48 0.47, 124.06 4.43, 125 19.25 M125 19.25 C125.06 33.88, 126.62 48.01, 125 57.75 M125 19.25 C124.17 33.99, 124.74 49.1, 125 57.75 M125 57.75 C123.81 71.74, 119.05 76.68, 105.75 77 M125 57.75 C123.92 71.11, 119.21 77.86, 105.75 77 M105.75 77 C79.3 78.26, 52.51 77.14, 19.25 77 M105.75 77 C72.56 78.56, 38.9 76.78, 19.25 77 M19.25 77 C4.89 77.98, -1.94 70.84, 0 57.75 M19.25 77 C4.56 79.21, 0.92 70.11, 0 57.75 M0 57.75 C-0.59 44.55, -0.05 34.41, 0 19.25 M0 57.75 C0.57 45.44, -0.32 31.65, 0 19.25 M0 19.25 C-1.81 5.31, 7.89 -1.9, 19.25 0 M0 19.25 C-0.17 7.8, 7.25 -1.79, 19.25 0" stroke="#000000" stroke-width="1" fill="none"></path></g><g transform="translate(592.9536651845463 471.3046875) rotate(0 24.5 25)"><text x="24.5" y="18" font-family="Virgil, Segoe UI Emoji" font-size="20px" fill="#000000" text-anchor="middle" style="white-space: pre;" direction="ltr">Chat</text><text x="24.5" y="43" font-family="Virgil, Segoe UI Emoji" font-size="20px" fill="#000000" text-anchor="middle" style="white-space: pre;" direction="ltr">Room</text></g><g stroke-linecap="round" transform="translate(560.5630401845463 573.00390625) rotate(0 64.5 35)"><path d="M17.5 0 M17.5 0 C45.23 -0.88, 77.66 1.17, 111.5 0 M17.5 0 C47.89 -0.38, 77.26 0.6, 111.5 0 M111.5 0 C124.16 -1.12, 129.61 7.2, 129 17.5 M111.5 0 C122.8 -0.52, 130.39 6.96, 129 17.5 M129 17.5 C129.73 29.06, 128.08 38.02, 129 52.5 M129 17.5 C129.56 29.19, 128.35 40.76, 129 52.5 M129 52.5 C129.34 63.77, 121.94 68.4, 111.5 70 M129 52.5 C129.66 64.98, 124.37 70.57, 111.5 70 M111.5 70 C76.8 69.8, 37.56 69.77, 17.5 70 M111.5 70 C79.56 70.8, 47.72 70.92, 17.5 70 M17.5 70 C7.34 70.52, -0.86 62.94, 0 52.5 M17.5 70 C4.57 68.18, 1.27 62.02, 0 52.5 M0 52.5 C0.51 40.5, 1.12 31.35, 0 17.5 M0 52.5 C0.58 39.73, -0.8 27.63, 0 17.5 M0 17.5 C-0.91 4.58, 5.34 -0.61, 17.5 0 M0 17.5 C1.42 6.72, 6.14 -1.59, 17.5 0" stroke="#000000" stroke-width="1" fill="none"></path></g><g transform="translate(598.0630401845463 583.00390625) rotate(0 27 25)"><text x="27" y="18" font-family="Virgil, Segoe UI Emoji" font-size="20px" fill="#000000" text-anchor="middle" style="white-space: pre;" direction="ltr">Chat</text><text x="27" y="43" font-family="Virgil, Segoe UI Emoji" font-size="20px" fill="#000000" text-anchor="middle" style="white-space: pre;" direction="ltr">Lobby</text></g><g transform="translate(376.96147768454625 512.4267578125) rotate(0 8 37.5)"><text x="0" y="18" font-family="Virgil, Segoe UI Emoji" font-size="20px" fill="#000000" text-anchor="start" style="white-space: pre;" direction="ltr">D</text><text x="0" y="43" font-family="Virgil, Segoe UI Emoji" font-size="20px" fill="#000000" text-anchor="start" style="white-space: pre;" direction="ltr">I</text><text x="0" y="68" font-family="Virgil, Segoe UI Emoji" font-size="20px" fill="#000000" text-anchor="start" style="white-space: pre;" direction="ltr"></text></g><g transform="translate(854.8208526845463 450.0908203125) rotate(0 6.5 125)"><text x="0" y="18" font-family="Virgil, Segoe UI Emoji" font-size="20px" fill="#000000" text-anchor="start" style="white-space: pre;" direction="ltr">N</text><text x="0" y="43" font-family="Virgil, Segoe UI Emoji" font-size="20px" fill="#000000" text-anchor="start" style="white-space: pre;" direction="ltr">a</text><text x="0" y="68" font-family="Virgil, Segoe UI Emoji" font-size="20px" fill="#000000" text-anchor="start" style="white-space: pre;" direction="ltr">v</text><text x="0" y="93" font-family="Virgil, Segoe UI Emoji" font-size="20px" fill="#000000" text-anchor="start" style="white-space: pre;" direction="ltr">i</text><text x="0" y="118" font-family="Virgil, Segoe UI Emoji" font-size="20px" fill="#000000" text-anchor="start" style="white-space: pre;" direction="ltr">g</text><text x="0" y="143" font-family="Virgil, Segoe UI Emoji" font-size="20px" fill="#000000" text-anchor="start" style="white-space: pre;" direction="ltr">a</text><text x="0" y="168" font-family="Virgil, Segoe UI Emoji" font-size="20px" fill="#000000" text-anchor="start" style="white-space: pre;" direction="ltr">t</text><text x="0" y="193" font-family="Virgil, Segoe UI Emoji" font-size="20px" fill="#000000" text-anchor="start" style="white-space: pre;" direction="ltr">i</text><text x="0" y="218" font-family="Virgil, Segoe UI Emoji" font-size="20px" fill="#000000" text-anchor="start" style="white-space: pre;" direction="ltr">o</text><text x="0" y="243" font-family="Virgil, Segoe UI Emoji" font-size="20px" fill="#000000" text-anchor="start" style="white-space: pre;" direction="ltr">n</text></g><g stroke-linecap="round"><g transform="translate(200.12163393454625 201.9501953125) rotate(0 0.07352697074355774 61.227997379051516)"><path d="M1.01 -0.21 C1.14 20.59, -0.02 103.1, -0.12 123.83 M0.08 -1.37 C0.16 19.19, -0.87 101.52, -0.87 122.15" stroke="#000000" stroke-width="1" fill="none"></path></g><g transform="translate(200.12163393454625 201.9501953125) rotate(0 0.07352697074355774 61.227997379051516)"><path d="M-11.29 94.52 C-7.51 101.57, -4.76 107.38, -1.85 121.58 M-11.15 94.48 C-9.28 100.49, -6.32 106.93, -0.82 121.97" stroke="#000000" stroke-width="1" fill="none"></path></g><g transform="translate(200.12163393454625 201.9501953125) rotate(0 0.07352697074355774 61.227997379051516)"><path d="M9.23 94.66 C8.42 101.85, 6.57 107.63, -1.85 121.58 M9.37 94.62 C6.67 100.59, 5.06 107, -0.82 121.97" stroke="#000000" stroke-width="1" fill="none"></path></g></g><mask></mask><g stroke-linecap="round"><g transform="translate(301.07479280065854 165.20036202125226) rotate(0 47.219905259702784 1.7849828715297633)"><path d="M-0.04 0.04 C15.91 0.52, 80.33 2.61, 95.95 3.12 M-1.51 -0.99 C14.35 -0.34, 79.38 3.67, 95.63 4.56" stroke="#000000" stroke-width="1" fill="none"></path></g><g transform="translate(301.07479280065854 165.20036202125226) rotate(0 47.219905259702784 1.7849828715297633)"><path d="M66.95 15.15 C75.86 8.61, 85.16 8.59, 96.56 4.13 M67.44 12.91 C75.24 10.23, 82.98 9.45, 95.34 5.17" stroke="#000000" stroke-width="1" fill="none"></path></g><g transform="translate(301.07479280065854 165.20036202125226) rotate(0 47.219905259702784 1.7849828715297633)"><path d="M68.15 -5.34 C76.71 -5.25, 85.63 1.36, 96.56 4.13 M68.64 -7.58 C75.95 -4.69, 83.36 0.09, 95.34 5.17" stroke="#000000" stroke-width="1" fill="none"></path></g></g><mask></mask><g stroke-linecap="round"><g transform="translate(424.335257435371 220.94541071330354) rotate(0 -76.43037204337986 55.333830422483516)"><path d="M0.86 1.18 C-24.57 19.36, -128 91.94, -153.72 109.91 M-0.15 0.75 C-25.09 18.5, -125.7 89.8, -151.42 108.02" stroke="#000000" stroke-width="1" fill="none"></path></g><g transform="translate(424.335257435371 220.94541071330354) rotate(0 -76.43037204337986 55.333830422483516)"><path d="M-132.38 82.04 C-136.93 87.65, -141.92 94.87, -150.35 107.95 M-134.21 84.22 C-137.48 88.8, -141.44 92.93, -150.89 107.92" stroke="#000000" stroke-width="1" fill="none"></path></g><g transform="translate(424.335257435371 220.94541071330354) rotate(0 -76.43037204337986 55.333830422483516)"><path d="M-120.52 98.79 C-127.6 101.06, -135 104.87, -150.35 107.95 M-122.34 100.96 C-127.94 102.01, -134.35 102.67, -150.89 107.92" stroke="#000000" stroke-width="1" fill="none"></path></g></g><mask></mask><g stroke-linecap="round"><g transform="translate(280.91850893454625 126.7392578125) rotate(0 199.99775743162257 5.887913171755031)"><path d="M0.08 -0.73 C33.89 -2.42, 134.94 -12.86, 201.81 -9.12 C268.69 -5.38, 368.06 16.78, 401.33 21.7 M-1.33 1.5 C32.37 0.56, 133.63 -10.54, 200.68 -7.49 C267.73 -4.44, 367.4 15.02, 400.97 19.81" stroke="#000000" stroke-width="1" fill="none"></path></g><g transform="translate(280.91850893454625 126.7392578125) rotate(0 199.99775743162257 5.887913171755031)"><path d="M370.27 24.79 C378.09 25.46, 385.61 24.37, 400.23 19.79 M371.3 24.99 C382.15 22.5, 392.6 20.95, 401.29 20" stroke="#000000" stroke-width="1" fill="none"></path></g><g transform="translate(280.91850893454625 126.7392578125) rotate(0 199.99775743162257 5.887913171755031)"><path d="M373.59 4.54 C380.86 9.58, 387.67 12.85, 400.23 19.79 M374.62 4.74 C384.07 9.55, 393.32 15.31, 401.29 20" stroke="#000000" stroke-width="1" fill="none"></path></g></g><mask></mask><g stroke-linecap="round"><g transform="translate(705.3833526845463 203.1142578125) rotate(0 -39.081776437954886 72.10481405751779)"><path d="M0.24 0.09 C-12.55 24.11, -64.68 119.82, -77.55 143.78 M-1.1 -0.9 C-13.95 23.32, -65.69 120.8, -78.4 145.11" stroke="#000000" stroke-width="1" fill="none"></path></g><g transform="translate(705.3833526845463 203.1142578125) rotate(0 -39.081776437954886 72.10481405751779)"><path d="M-74.17 115.7 C-75.99 123.45, -76.81 127.83, -77.83 143.33 M-73.46 115.79 C-75.92 124.92, -76.46 135.12, -77.63 144.79" stroke="#000000" stroke-width="1" fill="none"></path></g><g transform="translate(705.3833526845463 203.1142578125) rotate(0 -39.081776437954886 72.10481405751779)"><path d="M-56.02 125.27 C-61.97 130.86, -66.95 133.05, -77.83 143.33 M-55.31 125.36 C-63.76 131.47, -70.24 138.54, -77.63 144.79" stroke="#000000" stroke-width="1" fill="none"></path></g></g><mask></mask><g stroke-linecap="round"><g transform="translate(231.34819643454625 326.0126953125) rotate(0 1.3669865845516256 -65.12336721425876)"><path d="M0.27 -0.84 C0.61 -22.93, 1.27 -109.8, 1.57 -131.59 M-1.05 1.34 C-0.29 -20.62, 3.44 -108.08, 3.79 -130" stroke="#000000" stroke-width="1" fill="none"></path></g><g transform="translate(231.34819643454625 326.0126953125) rotate(0 1.3669865845516256 -65.12336721425876)"><path d="M11.78 -103.06 C10.69 -109.56, 8.36 -118.04, 3.53 -128.47 M13.73 -101.42 C10.14 -108.91, 7.89 -116.73, 4.42 -129.12" stroke="#000000" stroke-width="1" fill="none"></path></g><g transform="translate(231.34819643454625 326.0126953125) rotate(0 1.3669865845516256 -65.12336721425876)"><path d="M-8.74 -103.7 C-4.57 -110.08, -1.65 -118.39, 3.53 -128.47 M-6.78 -102.06 C-4.78 -109.24, -1.43 -116.89, 4.42 -129.12" stroke="#000000" stroke-width="1" fill="none"></path></g></g><mask></mask><g stroke-linecap="round"><g transform="translate(192.15288393454625 477.0478515625) rotate(0 0.7872264336608055 -24.33941592413936)"><path d="M0.67 -1.08 C1.18 -9.1, 1.55 -39.84, 2.01 -47.99 M-0.43 0.96 C-0.03 -7.39, 0.24 -41.28, 0.83 -49.64" stroke="#000000" stroke-width="1" fill="none"></path></g><g transform="translate(192.15288393454625 477.0478515625) rotate(0 0.7872264336608055 -24.33941592413936)"><path d="M6.58 -27.1 C8.25 -29.7, 3.38 -35.67, 0.96 -49.16 M7.76 -26.16 C4.87 -35.12, 2.98 -43.38, 0.89 -49.66" stroke="#000000" stroke-width="1" fill="none"></path></g><g transform="translate(192.15288393454625 477.0478515625) rotate(0 0.7872264336608055 -24.33941592413936)"><path d="M-10.14 -27.69 C-4.93 -30.25, -6.25 -36.1, 0.96 -49.16 M-8.96 -26.75 C-5.74 -35.41, -1.52 -43.45, 0.89 -49.66" stroke="#000000" stroke-width="1" fill="none"></path></g></g><mask></mask><g stroke-linecap="round"><g transform="translate(232.90288393454625 439.6806640625) rotate(0 -1.8586856101639455 24.544181472407615)"><path d="M-1.1 -0.9 C-1.83 7.45, -2.92 40.34, -3.6 48.91 M0.52 1.24 C-0.38 9.82, -3.69 42.11, -4.24 49.99" stroke="#000000" stroke-width="1" fill="none"></path></g><g transform="translate(232.90288393454625 439.6806640625) rotate(0 -1.8586856101639455 24.544181472407615)"><path d="M-12.17 26.82 C-10.02 33.07, -5.03 43.58, -3.55 51.76 M-10.56 26.7 C-8.57 32.05, -8.57 38.07, -5 49.53" stroke="#000000" stroke-width="1" fill="none"></path></g><g transform="translate(232.90288393454625 439.6806640625) rotate(0 -1.8586856101639455 24.544181472407615)"><path d="M4.85 28.34 C0.81 33.87, -0.42 43.84, -3.55 51.76 M6.46 28.22 C4.4 33.09, 0.35 38.76, -5 49.53" stroke="#000000" stroke-width="1" fill="none"></path></g></g><mask></mask><g stroke-linecap="round"><g transform="translate(201.03179018454625 560.8564453125) rotate(0 0.7175272438349225 36.481183078512515)"><path d="M0.57 -0.91 C0.73 11.48, 1.72 61.49, 2.02 73.87 M-0.58 1.23 C-0.64 13.33, 0.91 60.56, 1.35 72.22" stroke="#000000" stroke-width="1" fill="none"></path></g><g transform="translate(201.03179018454625 560.8564453125) rotate(0 0.7175272438349225 36.481183078512515)"><path d="M-11.38 45.29 C-4.09 56.73, -0.56 66.21, 1.59 70.46 M-10.31 44.23 C-7.77 51.54, -3.96 56.67, 1.87 71.78" stroke="#000000" stroke-width="1" fill="none"></path></g><g transform="translate(201.03179018454625 560.8564453125) rotate(0 0.7175272438349225 36.481183078512515)"><path d="M9.12 44.59 C8.4 56.4, 3.92 66.15, 1.59 70.46 M10.2 43.53 C7.92 51.08, 6.92 56.37, 1.87 71.78" stroke="#000000" stroke-width="1" fill="none"></path></g></g><mask></mask><g stroke-linecap="round"><g transform="translate(234.66850893454625 629.4892578125) rotate(0 -0.1096284375526011 -35.92741768827659)"><path d="M0.99 -1.12 C0.87 -13.19, -0.17 -61.17, -0.32 -72.76 M0.05 0.91 C-0.25 -11.02, -1.14 -59.57, -1.21 -71.8" stroke="#000000" stroke-width="1" fill="none"></path></g><g transform="translate(234.66850893454625 629.4892578125) rotate(0 -0.1096284375526011 -35.92741768827659)"><path d="M7.56 -43.55 C4.17 -52.01, 4.15 -62.5, -0.58 -71.93 M10.42 -43.5 C7.27 -51.64, 3.28 -59.47, -0.23 -72.22" stroke="#000000" stroke-width="1" fill="none"></path></g><g transform="translate(234.66850893454625 629.4892578125) rotate(0 -0.1096284375526011 -35.92741768827659)"><path d="M-12.96 -43.28 C-9.57 -52, -2.81 -62.58, -0.58 -71.93 M-10.1 -43.23 C-7.26 -51.61, -5.27 -59.52, -0.23 -72.22" stroke="#000000" stroke-width="1" fill="none"></path></g></g><mask></mask><g stroke-linecap="round"><g transform="translate(296.51616518454625 520.9228515625) rotate(0 35.07526593469083 1.6274938555993117)"><path d="M-0.53 -0.74 C11.21 -0.16, 58.88 2.15, 70.68 2.71 M1.39 1.48 C12.96 2.3, 58.44 3.65, 69.76 4" stroke="#000000" stroke-width="1" fill="none"></path></g><g transform="translate(296.51616518454625 520.9228515625) rotate(0 35.07526593469083 1.6274938555993117)"><path d="M40.02 13.47 C49.69 9.87, 58.6 6.84, 70.64 2.86 M42.04 13.29 C50.47 11.09, 59.81 7.04, 69.66 3.1" stroke="#000000" stroke-width="1" fill="none"></path></g><g transform="translate(296.51616518454625 520.9228515625) rotate(0 35.07526593469083 1.6274938555993117)"><path d="M40.66 -7.04 C49.98 -4.06, 58.69 -0.52, 70.64 2.86 M42.67 -7.23 C51.06 -2.95, 60.2 -0.53, 69.66 3.1" stroke="#000000" stroke-width="1" fill="none"></path></g></g><mask></mask><g stroke-linecap="round"><g transform="translate(452.29434282964985 359.68504596336186) rotate(0 -21.61548019282668 -0.5032078342701993)"><path d="M-0.73 -0.43 C-8.04 -0.39, -36.51 -0.64, -43.58 -0.71 M1.09 -1.69 C-6.37 -1.39, -36.89 0.37, -44.32 0.69" stroke="#000000" stroke-width="1" fill="none"></path></g><g transform="translate(452.29434282964985 359.68504596336186) rotate(0 -21.61548019282668 -0.5032078342701993)"><path d="M-24.78 -7.23 C-31.12 -3.88, -37.94 -1.98, -42.79 1.41 M-23.24 -7.82 C-28.47 -6.32, -33.17 -3.66, -44.33 1.45" stroke="#000000" stroke-width="1" fill="none"></path></g><g transform="translate(452.29434282964985 359.68504596336186) rotate(0 -21.61548019282668 -0.5032078342701993)"><path d="M-24.01 7.79 C-30.48 6.28, -37.55 3.32, -42.79 1.41 M-22.48 7.2 C-27.93 5.22, -32.81 4.4, -44.33 1.45" stroke="#000000" stroke-width="1" fill="none"></path></g></g><mask></mask><g stroke-linecap="round"><g transform="translate(450.2708598596316 411.65570181191686) rotate(0 -20.997819080263014 -0.7437466418842291)"><path d="M1.14 0.25 C-6.07 0.15, -35.79 -0.03, -43.13 -0.2 M0.28 -0.66 C-6.57 -1.11, -33.47 -1.38, -40.85 -1.74" stroke="#000000" stroke-width="1" fill="none"></path></g><g transform="translate(450.2708598596316 411.65570181191686) rotate(0 -20.997819080263014 -0.7437466418842291)"><path d="M-20.34 -9.77 C-25.12 -7.11, -32.32 -4.42, -40.06 -1.8 M-21.53 -8.97 C-25.42 -7.69, -29.18 -5.85, -41.4 -1.46" stroke="#000000" stroke-width="1" fill="none"></path></g><g transform="translate(450.2708598596316 411.65570181191686) rotate(0 -20.997819080263014 -0.7437466418842291)"><path d="M-20.75 4.71 C-25.45 2.85, -32.53 1.04, -40.06 -1.8 M-21.94 5.5 C-25.68 3.77, -29.35 2.59, -41.4 -1.46" stroke="#000000" stroke-width="1" fill="none"></path></g></g><mask></mask><g stroke-linecap="round"><g transform="translate(416.33395388996064 489.37671093108645) rotate(0 66.6788164493712 1.8468226514461321)"><path d="M-0.16 0.9 C22.44 1.29, 112.79 3.13, 135.07 3.36 M-1.71 0.33 C20.82 0.93, 111.44 1.29, 134.37 1.85" stroke="#000000" stroke-width="1" fill="none"></path></g><g transform="translate(416.33395388996064 489.37671093108645) rotate(0 66.6788164493712 1.8468226514461321)"><path d="M107.55 12.54 C115.11 7.49, 120.56 5.42, 134.08 1.61 M106.01 11.12 C115.7 7.88, 126.43 4.39, 133.89 1.16" stroke="#000000" stroke-width="1" fill="none"></path></g><g transform="translate(416.33395388996064 489.37671093108645) rotate(0 66.6788164493712 1.8468226514461321)"><path d="M107.82 -7.98 C115.49 -7.8, 120.87 -4.63, 134.08 1.61 M106.28 -9.4 C115.89 -5.11, 126.52 -1.08, 133.89 1.16" stroke="#000000" stroke-width="1" fill="none"></path></g></g><mask></mask><g stroke-linecap="round"><g transform="translate(419.501303580264 601.3240063156343) rotate(0 62.31226930211744 -0.02901672181400272)"><path d="M0.13 -0.89 C21.05 -0.95, 104.96 0.36, 125.89 0.37 M-1.27 1.25 C19.54 0.81, 104.29 -1.14, 125.38 -1.31" stroke="#000000" stroke-width="1" fill="none"></path></g><g transform="translate(419.501303580264 601.3240063156343) rotate(0 62.31226930211744 -0.02901672181400272)"><path d="M95.87 10.8 C107.96 6.89, 115.17 2.48, 126.57 -2.7 M98.22 9.36 C108.32 4.75, 117.06 2.17, 125.16 -1.13" stroke="#000000" stroke-width="1" fill="none"></path></g><g transform="translate(419.501303580264 601.3240063156343) rotate(0 62.31226930211744 -0.02901672181400272)"><path d="M95.53 -9.72 C107.85 -6.85, 115.17 -4.48, 126.57 -2.7 M97.88 -11.16 C108.08 -8.34, 116.95 -3.49, 125.16 -1.13" stroke="#000000" stroke-width="1" fill="none"></path></g></g><mask></mask><g stroke-linecap="round"><g transform="translate(385.16069643454625 741.6455078125) rotate(0 0.2219481012596134 -18.032107370300196)"><path d="M0.47 1.14 C0.76 -4.89, 1.24 -29.41, 1.19 -35.68 M-0.75 0.69 C-0.54 -5.69, -0.24 -30.65, 0.31 -37.2" stroke="#000000" stroke-width="1" fill="none"></path></g><g transform="translate(385.16069643454625 741.6455078125) rotate(0 0.2219481012596134 -18.032107370300196)"><path d="M7.59 -19.43 C6.13 -25.41, 3.52 -26.58, -0.01 -36.05 M6.13 -19.8 C3.69 -25.22, 1.76 -33.12, 0.37 -37.65" stroke="#000000" stroke-width="1" fill="none"></path></g><g transform="translate(385.16069643454625 741.6455078125) rotate(0 0.2219481012596134 -18.032107370300196)"><path d="M-4.99 -19.99 C-3.3 -25.87, -2.76 -26.91, -0.01 -36.05 M-6.46 -20.35 C-4.4 -25.54, -1.83 -33.25, 0.37 -37.65" stroke="#000000" stroke-width="1" fill="none"></path></g></g><mask></mask><g stroke-linecap="round"><g transform="translate(868.3794464345463 743.5947265625) rotate(0 0.13858698868182273 -19.919538638368238)"><path d="M-0.77 0.92 C-0.64 -5.86, 0.32 -33.99, 0.48 -40.76 M1.03 0.36 C1.13 -6.25, 0.33 -32.46, 0.13 -39.47" stroke="#000000" stroke-width="1" fill="none"></path></g><g transform="translate(868.3794464345463 743.5947265625) rotate(0 0.13858698868182273 -19.919538638368238)"><path d="M9.1 -18.85 C4.73 -24.59, 4.45 -29.68, -1.59 -38.18 M6.75 -20.91 C6.06 -27.18, 3.03 -32.99, -0.16 -40.29" stroke="#000000" stroke-width="1" fill="none"></path></g><g transform="translate(868.3794464345463 743.5947265625) rotate(0 0.13858698868182273 -19.919538638368238)"><path d="M-4.67 -18.45 C-5.25 -24.21, -1.74 -29.41, -1.59 -38.18 M-7.02 -20.51 C-3.5 -26.98, -2.33 -32.91, -0.16 -40.29" stroke="#000000" stroke-width="1" fill="none"></path></g></g><mask></mask><g stroke-linecap="round"><g transform="translate(699.5864776845463 628.508619746048) rotate(0 68.53828606940806 2.843752644852316)"><path d="M0.44 -0.64 C23.14 0.34, 113.84 5.28, 136.64 6.33" stroke="#000000" stroke-width="1.5" fill="none" stroke-dasharray="8 9"></path></g><g transform="translate(699.5864776845463 628.508619746048) rotate(0 68.53828606940806 2.843752644852316)"><path d="M106.9 14.12 C117.51 11.99, 125.99 7.21, 136.45 7.18" stroke="#000000" stroke-width="1.5" fill="none"></path></g><g transform="translate(699.5864776845463 628.508619746048) rotate(0 68.53828606940806 2.843752644852316)"><path d="M107.94 -6.38 C118.28 -1.63, 126.41 0.45, 136.45 7.18" stroke="#000000" stroke-width="1.5" fill="none"></path></g></g><mask></mask><g stroke-linecap="round"><g transform="translate(689.8052276845463 516.8540558732736) rotate(0 73.87275792621074 3.429755321652692)"><path d="M0.94 1.2 C25.35 1.96, 122.58 4.82, 146.8 5.66" stroke="#000000" stroke-width="1.5" fill="none" stroke-dasharray="8 9"></path></g><g transform="translate(689.8052276845463 516.8540558732736) rotate(0 73.87275792621074 3.429755321652692)"><path d="M120.3 16.15 C128.54 11.97, 138.86 8.81, 147.83 4.23" stroke="#000000" stroke-width="1.5" fill="none"></path></g><g transform="translate(689.8052276845463 516.8540558732736) rotate(0 73.87275792621074 3.429755321652692)"><path d="M120.95 -4.36 C129.15 -1.79, 139.26 1.8, 147.83 4.23" stroke="#000000" stroke-width="1.5" fill="none"></path></g></g><mask></mask><g stroke-linecap="round"><g transform="translate(834.5630401845463 492.46207034276904) rotate(0 -73.40407845322954 -1.4528859343522527)"><path d="M1.04 -0.3 C-23.68 -0.31, -122.44 -0.73, -147.3 -1.02 M0.12 -1.51 C-24.77 -1.74, -123.01 -2.72, -147.84 -2.59" stroke="#000000" stroke-width="1" fill="none"></path></g><g transform="translate(834.5630401845463 492.46207034276904) rotate(0 -73.40407845322954 -1.4528859343522527)"><path d="M-120.13 -11.48 C-128.73 -8.7, -141.25 -6.48, -146.26 -2.01 M-119.73 -12.03 C-128.01 -9.18, -137.96 -6.08, -147.33 -3.33" stroke="#000000" stroke-width="1" fill="none"></path></g><g transform="translate(834.5630401845463 492.46207034276904) rotate(0 -73.40407845322954 -1.4528859343522527)"><path d="M-120.2 9.04 C-128.61 3.98, -141.1 -1.64, -146.26 -2.01 M-119.8 8.49 C-128.03 4.81, -137.95 1.39, -147.33 -3.33" stroke="#000000" stroke-width="1" fill="none"></path></g></g><mask></mask><g stroke-linecap="round"><g transform="translate(830.4614776845463 596.8447265625) rotate(0 -67.7421875 0.220703125)"><path d="M0 0 C-22.58 0.07, -112.9 0.37, -135.48 0.44 M0 0 C-22.58 0.07, -112.9 0.37, -135.48 0.44" stroke="#000000" stroke-width="1" fill="none"></path></g><g transform="translate(830.4614776845463 596.8447265625) rotate(0 -67.7421875 0.220703125)"><path d="M-107.33 -9.91 C-117.53 -6.16, -127.74 -2.41, -135.48 0.44 M-107.33 -9.91 C-118.01 -5.98, -128.7 -2.05, -135.48 0.44" stroke="#000000" stroke-width="1" fill="none"></path></g><g transform="translate(830.4614776845463 596.8447265625) rotate(0 -67.7421875 0.220703125)"><path d="M-107.26 10.61 C-117.49 6.92, -127.72 3.24, -135.48 0.44 M-107.26 10.61 C-117.97 6.75, -128.68 2.89, -135.48 0.44" stroke="#000000" stroke-width="1" fill="none"></path></g></g><mask></mask></svg>