<svg version="1.1" xmlns="http://www.w3.org/2000/svg" viewBox="0 0 1056.923828125 451.8046875" width="2113.84765625" height="903.609375">
  <!-- svg-source:excalidraw -->
  
  <defs>
    <style class="style-fonts">
      @font-face {
        font-family: "Virgil";
        src: url("https://excalidraw.com/Virgil.woff2");
      }
      @font-face {
        font-family: "Cascadia";
        src: url("https://excalidraw.com/Cascadia.woff2");
      }
    </style>
  </defs>
  <rect x="0" y="0" width="1056.923828125" height="451.8046875" fill="#ffffff"></rect><g stroke-linecap="round" transform="translate(253.7890625 96.49609375) rotate(0 82.78125 57.306640625)"><path d="M28.65 0 M28.65 0 C66.6 0.32, 104.68 0.73, 136.91 0 M28.65 0 C70.43 -0.3, 111.48 -0.76, 136.91 0 M136.91 0 C156.87 1.58, 165.81 11.45, 165.56 28.65 M136.91 0 C156.78 1.3, 165.09 10.56, 165.56 28.65 M165.56 28.65 C166.38 43.26, 165.56 58.31, 165.56 85.96 M165.56 28.65 C166.33 44.73, 165.16 62.22, 165.56 85.96 M165.56 85.96 C166.75 105.82, 155.54 112.8, 136.91 114.61 M165.56 85.96 C165.78 103.16, 155.24 115.56, 136.91 114.61 M136.91 114.61 C109.51 115.28, 79.69 115.48, 28.65 114.61 M136.91 114.61 C95.33 115, 52.02 114.79, 28.65 114.61 M28.65 114.61 C7.76 112.67, -1.8 106.92, 0 85.96 M28.65 114.61 C10.54 113.11, -1.24 103.09, 0 85.96 M0 85.96 C0.58 65.8, -1.57 46.91, 0 28.65 M0 85.96 C-0.69 71.43, -0.79 55.13, 0 28.65 M0 28.65 C-0.43 10.79, 10.32 -1.01, 28.65 0 M0 28.65 C0.76 9.52, 7.77 0.15, 28.65 0" stroke="#000000" stroke-width="1" fill="none"></path></g><g transform="translate(269.98036193847656 141.302734375) rotate(0 66.58995056152344 12.5)"><text x="66.58995056152344" y="0" font-family="Virgil, Segoe UI Emoji" font-size="20px" fill="#000000" text-anchor="middle" style="white-space: pre;" direction="ltr" dominant-baseline="text-before-edge">Download Job</text></g><g stroke-linecap="round" transform="translate(292.3984375 189.66796875) rotate(0 43.240234375 22.525390625)"><path d="M11.26 0 M11.26 0 C32.87 -1.76, 54.66 -1.42, 75.22 0 M11.26 0 C23.23 0.41, 35.9 0.89, 75.22 0 M75.22 0 C81.9 -1.12, 85.3 4.44, 86.48 11.26 M75.22 0 C83.7 0.9, 87.32 2.98, 86.48 11.26 M86.48 11.26 C85.98 14.65, 86.38 20.09, 86.48 33.79 M86.48 11.26 C85.66 16.96, 85.52 21.83, 86.48 33.79 M86.48 33.79 C84.53 41.02, 83.83 44.23, 75.22 45.05 M86.48 33.79 C85.33 43.31, 83.33 46.19, 75.22 45.05 M75.22 45.05 C54.74 44.76, 33.42 43.72, 11.26 45.05 M75.22 45.05 C51.81 45.77, 27.92 44.43, 11.26 45.05 M11.26 45.05 C5.75 46.62, -1.62 42.06, 0 33.79 M11.26 45.05 C6.05 44.53, 0.96 42.37, 0 33.79 M0 33.79 C-1.63 30.19, -1.32 24.15, 0 11.26 M0 33.79 C-0.11 27.3, -0.16 19.32, 0 11.26 M0 11.26 C-1.75 3.04, 4.11 -0.98, 11.26 0 M0 11.26 C-1.55 3.53, 1.69 -1.99, 11.26 0" stroke="#000000" stroke-width="1" fill="none"></path></g><g transform="translate(307.32869720458984 199.693359375) rotate(0 28.309974670410156 12.5)"><text x="28.309974670410156" y="0" font-family="Virgil, Segoe UI Emoji" font-size="20px" fill="#000000" text-anchor="middle" style="white-space: pre;" direction="ltr" dominant-baseline="text-before-edge">Stqte</text></g><g stroke-linecap="round" transform="translate(10 42.19921875) rotate(0 72.412109375 48.927734375)"><path d="M24.46 0 M24.46 0 C57.23 -1.83, 88.55 -0.13, 120.36 0 M24.46 0 C58.31 -1.44, 89.85 -1.18, 120.36 0 M120.36 0 C135.55 0.2, 146.23 6.81, 144.82 24.46 M120.36 0 C135.99 -1.29, 144.49 6.33, 144.82 24.46 M144.82 24.46 C144.7 39.09, 146.29 54.39, 144.82 73.39 M144.82 24.46 C145.86 37.53, 145.9 50.94, 144.82 73.39 M144.82 73.39 C145.05 90.89, 136.98 99.48, 120.36 97.86 M144.82 73.39 C142.84 88.33, 137.56 96.4, 120.36 97.86 M120.36 97.86 C83.24 99.02, 44.31 96.51, 24.46 97.86 M120.36 97.86 C83.28 98.09, 47.69 98.52, 24.46 97.86 M24.46 97.86 C7.44 96, 1.54 87.86, 0 73.39 M24.46 97.86 C7.23 98.09, -1.29 90.41, 0 73.39 M0 73.39 C-0.05 61.97, 0.69 49.55, 0 24.46 M0 73.39 C0.85 55.79, -0.87 38.85, 0 24.46 M0 24.46 C-0.93 9.51, 9.49 -0.87, 24.46 0 M0 24.46 C1.13 7.22, 9.07 -2.26, 24.46 0" stroke="#000000" stroke-width="1" fill="none"></path></g><g transform="translate(32.782142639160156 66.126953125) rotate(0 49.629966735839844 25)"><text x="49.629966735839844" y="0" font-family="Virgil, Segoe UI Emoji" font-size="20px" fill="#000000" text-anchor="middle" style="white-space: pre;" direction="ltr" dominant-baseline="text-before-edge">Download </text><text x="49.629966735839844" y="25" font-family="Virgil, Segoe UI Emoji" font-size="20px" fill="#000000" text-anchor="middle" style="white-space: pre;" direction="ltr" dominant-baseline="text-before-edge">Request</text></g><g stroke-linecap="round" transform="translate(17.220703125 206.720703125) rotate(0 72.412109375 48.927734375)"><path d="M24.46 0 M24.46 0 C50.78 0.59, 76.32 0.04, 120.36 0 M24.46 0 C47.61 0.11, 71.77 1.19, 120.36 0 M120.36 0 C138 -0.87, 145.81 7.34, 144.82 24.46 M120.36 0 C137.58 -2.26, 144.52 6.91, 144.82 24.46 M144.82 24.46 C143.59 34.66, 146.36 45.78, 144.82 73.39 M144.82 24.46 C144.92 38.73, 144.27 52.2, 144.82 73.39 M144.82 73.39 C144.77 89.05, 138.29 96.51, 120.36 97.86 M144.82 73.39 C144.33 88.13, 138.27 95.81, 120.36 97.86 M120.36 97.86 C88.75 96.62, 58.83 97.01, 24.46 97.86 M120.36 97.86 C89.04 97.91, 57.1 97.95, 24.46 97.86 M24.46 97.86 C8.21 99.02, 0.61 89.64, 0 73.39 M24.46 97.86 C9.23 97.09, 1.54 89.54, 0 73.39 M0 73.39 C1.23 58.6, 1.06 42.07, 0 24.46 M0 73.39 C0.27 55.25, 0.09 37.01, 0 24.46 M0 24.46 C1.1 6.21, 9.51 -1.61, 24.46 0 M0 24.46 C1.84 10.42, 7.04 0.88, 24.46 0" stroke="#000000" stroke-width="1" fill="none"></path></g><g transform="translate(40.002845764160156 230.6484375) rotate(0 49.629966735839844 25)"><text x="49.629966735839844" y="0" font-family="Virgil, Segoe UI Emoji" font-size="20px" fill="#000000" text-anchor="middle" style="white-space: pre;" direction="ltr" dominant-baseline="text-before-edge">Download </text><text x="49.629966735839844" y="25" font-family="Virgil, Segoe UI Emoji" font-size="20px" fill="#000000" text-anchor="middle" style="white-space: pre;" direction="ltr" dominant-baseline="text-before-edge">Task</text></g><g stroke-linecap="round" transform="translate(499.96875 10) rotate(0 105.69921875 215.90234375)"><path d="M32 0 M32 0 C79.65 -0.1, 124.48 -0.8, 179.4 0 M32 0 C80.3 -0.82, 128.62 -0.5, 179.4 0 M179.4 0 C199.59 -1.36, 210.14 9.75, 211.4 32 M179.4 0 C199.49 0.67, 210.87 11.53, 211.4 32 M211.4 32 C211.83 143.17, 211.47 252.17, 211.4 399.8 M211.4 32 C211.39 159.53, 211.53 286.96, 211.4 399.8 M211.4 399.8 C209.78 421.15, 201.33 431.43, 179.4 431.8 M211.4 399.8 C210.75 420.13, 201.1 433.18, 179.4 431.8 M179.4 431.8 C132.85 434.37, 86.64 434.19, 32 431.8 M179.4 431.8 C147.32 430.44, 113.47 431.79, 32 431.8 M32 431.8 C9.15 433.35, 0.78 419.84, 0 399.8 M32 431.8 C8.72 431.53, 2.09 419.27, 0 399.8 M0 399.8 C0.06 324.01, 2.02 251.39, 0 32 M0 399.8 C1.68 299.98, 1.04 200.23, 0 32 M0 32 C-1.28 10.96, 9.13 1.6, 32 0 M0 32 C-0.42 11.42, 8.94 -0.09, 32 0" stroke="#000000" stroke-width="1" fill="none"></path></g><g stroke-linecap="round" transform="translate(521.6796875 380.43359375) rotate(0 85.6640625 19.978515625)"><path d="M9.99 0 M9.99 0 C62.03 -2.47, 110.8 -1.41, 161.34 0 M9.99 0 C68.73 0.9, 127.59 0.6, 161.34 0 M161.34 0 C169.69 1.68, 170.74 2.24, 171.33 9.99 M161.34 0 C169.08 1.64, 170.03 2.6, 171.33 9.99 M171.33 9.99 C169.67 15.59, 170.84 18.66, 171.33 29.97 M171.33 9.99 C170.55 15.07, 171.72 18.84, 171.33 29.97 M171.33 29.97 C173.14 36.27, 167.6 38.13, 161.34 39.96 M171.33 29.97 C171.73 34.89, 167.12 38.63, 161.34 39.96 M161.34 39.96 C105.2 39.99, 51.97 37.19, 9.99 39.96 M161.34 39.96 C107.65 39.85, 53 39.82, 9.99 39.96 M9.99 39.96 C4.84 38, -0.16 36.16, 0 29.97 M9.99 39.96 C5.63 41.3, -0.47 38.31, 0 29.97 M0 29.97 C0.18 22.79, -0.99 19.19, 0 9.99 M0 29.97 C-0.29 24.08, 0.17 18.65, 0 9.99 M0 9.99 C0.53 1.93, 4.96 0.14, 9.99 0 M0 9.99 C1.97 2.71, 1.87 -0.67, 9.99 0" stroke="#000000" stroke-width="1" fill="none"></path></g><g transform="translate(582.6737670898438 387.912109375) rotate(0 24.66998291015625 12.5)"><text x="24.66998291015625" y="0" font-family="Virgil, Segoe UI Emoji" font-size="20px" fill="#000000" text-anchor="middle" style="white-space: pre;" direction="ltr" dominant-baseline="text-before-edge">Job 1</text></g><g stroke-linecap="round" transform="translate(522.06640625 322.955078125) rotate(0 85.6640625 19.978515625)"><path d="M9.99 0 M9.99 0 C51.81 -1.26, 94.19 0.28, 161.34 0 M9.99 0 C68.07 0.82, 126.67 1.81, 161.34 0 M161.34 0 C166.7 0.53, 172.4 3.11, 171.33 9.99 M161.34 0 C168.54 -0.41, 171.13 5.36, 171.33 9.99 M171.33 9.99 C171.17 17.33, 169.86 25.28, 171.33 29.97 M171.33 9.99 C171.23 14.81, 171.61 19.16, 171.33 29.97 M171.33 29.97 C172.03 38.2, 166.67 38.52, 161.34 39.96 M171.33 29.97 C169.14 36.45, 168.32 41.14, 161.34 39.96 M161.34 39.96 C102.85 38.16, 48.72 36.6, 9.99 39.96 M161.34 39.96 C129.95 37.99, 99.12 38.62, 9.99 39.96 M9.99 39.96 C3.14 38.06, -1.99 37.29, 0 29.97 M9.99 39.96 C4.16 37.67, -0.32 38.44, 0 29.97 M0 29.97 C1.87 27.13, 0.99 20.8, 0 9.99 M0 29.97 C-0.54 23.63, 0.28 16.57, 0 9.99 M0 9.99 C-0.26 3.82, 1.83 -1.46, 9.99 0 M0 9.99 C0.94 4.86, 4.6 2.26, 9.99 0" stroke="#000000" stroke-width="1" fill="none"></path></g><g transform="translate(578.6504898071289 330.43359375) rotate(0 29.079978942871094 12.5)"><text x="29.079978942871094" y="0" font-family="Virgil, Segoe UI Emoji" font-size="20px" fill="#000000" text-anchor="middle" style="white-space: pre;" direction="ltr" dominant-baseline="text-before-edge">Job 2</text></g><g stroke-linecap="round" transform="translate(518.921875 32.615234375) rotate(0 85.6640625 19.978515625)"><path d="M9.99 0 M9.99 0 C59.17 -1.49, 106.57 -0.65, 161.34 0 M9.99 0 C46.59 0.93, 82.15 0.47, 161.34 0 M161.34 0 C168.73 -1.06, 169.33 5.13, 171.33 9.99 M161.34 0 C169.12 0.95, 169.51 3.58, 171.33 9.99 M171.33 9.99 C170.67 16.64, 171.65 18.38, 171.33 29.97 M171.33 9.99 C171.58 13.77, 172 18.68, 171.33 29.97 M171.33 29.97 C170.59 38.56, 166.81 39.06, 161.34 39.96 M171.33 29.97 C172.97 35.83, 168.01 38.72, 161.34 39.96 M161.34 39.96 C118.94 37.52, 75.89 38.05, 9.99 39.96 M161.34 39.96 C108 41.12, 53.45 41.87, 9.99 39.96 M9.99 39.96 C4.4 40.8, -1.84 35.51, 0 29.97 M9.99 39.96 C5.14 38.09, 0.51 38.69, 0 29.97 M0 29.97 C0.88 24.16, -1.28 18.33, 0 9.99 M0 29.97 C0.92 25.83, -0.09 20.96, 0 9.99 M0 9.99 C1.72 4.61, 2.42 1.09, 9.99 0 M0 9.99 C1.47 4.45, 5.39 -0.74, 9.99 0" stroke="#000000" stroke-width="1" fill="none"></path></g><g transform="translate(576.1859588623047 40.09375) rotate(0 28.399978637695312 12.5)"><text x="28.399978637695312" y="0" font-family="Virgil, Segoe UI Emoji" font-size="20px" fill="#000000" text-anchor="middle" style="white-space: pre;" direction="ltr" dominant-baseline="text-before-edge">Job N</text></g><g transform="translate(587.4140625 186.53125) rotate(0 8.219993591308594 12.5)"><text x="0" y="0" font-family="Virgil, Segoe UI Emoji" font-size="20px" fill="#000000" text-anchor="start" style="white-space: pre;" direction="ltr" dominant-baseline="text-before-edge">...</text></g><g stroke-linecap="round" transform="translate(792.75 287.61328125) rotate(0 102.572265625 55.423828125)"><path d="M27.71 0 M27.71 0 C81.99 1.97, 133.9 -0.54, 177.43 0 M27.71 0 C82.68 0.65, 137.59 1.22, 177.43 0 M177.43 0 C197.37 -0.5, 204.27 8.65, 205.14 27.71 M177.43 0 C196.01 -0.55, 205.58 9.49, 205.14 27.71 M205.14 27.71 C206.04 44.01, 204.9 62.63, 205.14 83.14 M205.14 27.71 C204.82 41.04, 206.36 54.6, 205.14 83.14 M205.14 83.14 C206.75 99.83, 194.31 111.56, 177.43 110.85 M205.14 83.14 C203.38 101.03, 195.1 110.59, 177.43 110.85 M177.43 110.85 C143.29 112.43, 106 111.18, 27.71 110.85 M177.43 110.85 C137.97 110.62, 97.01 111.16, 27.71 110.85 M27.71 110.85 C8.65 109.44, -1.35 99.73, 0 83.14 M27.71 110.85 C7.06 111.4, 1.04 103.42, 0 83.14 M0 83.14 C-0.29 67.7, -0.95 56.75, 0 27.71 M0 83.14 C-0.43 66.94, -0.65 52.72, 0 27.71 M0 27.71 C-1.36 8.59, 10.69 0.37, 27.71 0 M0 27.71 C-0.22 11.32, 7.61 0.18, 27.71 0" stroke="#000000" stroke-width="1" fill="none"></path></g><g transform="translate(813.752326965332 330.537109375) rotate(0 81.56993865966797 12.5)"><text x="81.56993865966797" y="0" font-family="Virgil, Segoe UI Emoji" font-size="20px" fill="#000000" text-anchor="middle" style="white-space: pre;" direction="ltr" dominant-baseline="text-before-edge">Download Worker</text></g><g stroke-linecap="round" transform="translate(739.16796875 159.5859375) rotate(0 72.572265625 40.806640625)"><path d="M20.4 0 M20.4 0 C48.13 1.62, 74.81 -0.03, 124.74 0 M20.4 0 C51.1 0.88, 80.39 0.75, 124.74 0 M124.74 0 C139.66 0.22, 145.87 6.22, 145.14 20.4 M124.74 0 C137.6 -1.62, 143.98 5.46, 145.14 20.4 M145.14 20.4 C143.42 32.15, 143.88 41.34, 145.14 61.21 M145.14 20.4 C145.32 34.6, 145.72 48.28, 145.14 61.21 M145.14 61.21 C143.7 73.26, 136.44 82.69, 124.74 81.61 M145.14 61.21 C146.76 75.02, 138.48 83.55, 124.74 81.61 M124.74 81.61 C87.07 82.15, 46.94 83.67, 20.4 81.61 M124.74 81.61 C91.13 81.43, 56.76 82.26, 20.4 81.61 M20.4 81.61 C8.06 80.74, -0.46 74.66, 0 61.21 M20.4 81.61 C6.34 81.18, 0.88 76.43, 0 61.21 M0 61.21 C-1.77 49.42, 1.64 38.35, 0 20.4 M0 61.21 C-0.01 53.59, -0.73 44.1, 0 20.4 M0 20.4 C-1.12 7.44, 8.3 0.29, 20.4 0 M0 20.4 C2.28 8.07, 8.18 -1.01, 20.4 0" stroke="#000000" stroke-width="1" fill="none"></path></g><g transform="translate(757.4902877807617 187.892578125) rotate(0 54.24994659423828 12.5)"><text x="54.24994659423828" y="0" font-family="Virgil, Segoe UI Emoji" font-size="20px" fill="#000000" text-anchor="middle" style="white-space: pre;" direction="ltr" dominant-baseline="text-before-edge">File Store5</text></g><g stroke-linecap="round" transform="translate(901.779296875 155.486328125) rotate(0 72.572265625 40.806640625)"><path d="M20.4 0 M20.4 0 C46.01 -1.63, 73.08 0.1, 124.74 0 M20.4 0 C51 -1.22, 79.62 -1.45, 124.74 0 M124.74 0 C138.48 1.54, 143.69 4.87, 145.14 20.4 M124.74 0 C137.94 -0.06, 146.4 8.89, 145.14 20.4 M145.14 20.4 C145.88 30.74, 144.91 38.75, 145.14 61.21 M145.14 20.4 C145.38 33.25, 145.8 48.19, 145.14 61.21 M145.14 61.21 C146.15 73.52, 137.54 82.82, 124.74 81.61 M145.14 61.21 C142.94 77, 136.67 82.66, 124.74 81.61 M124.74 81.61 C88.72 80.13, 51.25 83.03, 20.4 81.61 M124.74 81.61 C102.41 80.77, 78.48 81.47, 20.4 81.61 M20.4 81.61 C5.29 82.58, -1.28 73.2, 0 61.21 M20.4 81.61 C4.79 81.41, -1.16 73.69, 0 61.21 M0 61.21 C-1.26 49.85, -1.48 34.16, 0 20.4 M0 61.21 C0.74 47.21, 0.21 31.81, 0 20.4 M0 20.4 C-1.91 8.78, 6.81 1.08, 20.4 0 M0 20.4 C1.13 7.25, 8.99 -0.68, 20.4 0" stroke="#000000" stroke-width="1" fill="none"></path></g><g transform="translate(930.9916000366211 171.29296875) rotate(0 43.359962463378906 25)"><text x="43.359962463378906" y="0" font-family="Virgil, Segoe UI Emoji" font-size="20px" fill="#000000" text-anchor="middle" style="white-space: pre;" direction="ltr" dominant-baseline="text-before-edge">Network </text><text x="43.359962463378906" y="25" font-family="Virgil, Segoe UI Emoji" font-size="20px" fill="#000000" text-anchor="middle" style="white-space: pre;" direction="ltr" dominant-baseline="text-before-edge">Client</text></g><g stroke-linecap="round"><g transform="translate(163.1171875 87.30859375) rotate(0 44.03056751301048 20.838513765805402)"><path d="M-1.11 -0.03 C13.28 7.09, 71.95 35.71, 86.94 42.76 M0.51 -1.09 C15.22 5.67, 74.48 33.52, 89.17 40.99" stroke="#000000" stroke-width="1" fill="none"></path></g><g transform="translate(163.1171875 87.30859375) rotate(0 44.03056751301048 20.838513765805402)"><path d="M59.28 36.36 C70.89 40.94, 80.55 40.74, 87.59 42.16 M59.15 36.94 C69.3 39.23, 80.63 39.1, 89.35 40.21" stroke="#000000" stroke-width="1" fill="none"></path></g><g transform="translate(163.1171875 87.30859375) rotate(0 44.03056751301048 20.838513765805402)"><path d="M68.25 17.9 C76.73 28.86, 83.25 35.13, 87.59 42.16 M68.12 18.49 C75.19 27.44, 83.28 33.96, 89.35 40.21" stroke="#000000" stroke-width="1" fill="none"></path></g></g><mask></mask><g stroke-linecap="round"><g transform="translate(252.36328125 180.4609375) rotate(0 -43.68411162719127 35.46756572350861)"><path d="M0.23 0.59 C-14.4 12.36, -72.83 58.43, -87.6 70.34" stroke="#000000" stroke-width="1.5" fill="none" stroke-dasharray="8 9"></path></g><g transform="translate(252.36328125 180.4609375) rotate(0 -43.68411162719127 35.46756572350861)"><path d="M-70.96 45.02 C-78.83 51.83, -80.86 61.97, -88.39 72.07" stroke="#000000" stroke-width="1.5" fill="none"></path></g><g transform="translate(252.36328125 180.4609375) rotate(0 -43.68411162719127 35.46756572350861)"><path d="M-58.17 61.08 C-70.04 62.84, -76.1 67.91, -88.39 72.07" stroke="#000000" stroke-width="1.5" fill="none"></path></g></g><mask></mask><g stroke-linecap="round"><g transform="translate(415.54296875 109.4296875) rotate(0 50.09542390480641 -22.921029199017198)"><path d="M-0.68 -0.55 C16.14 -8.32, 84.08 -38.21, 100.87 -46.09 M1.16 1.77 C17.9 -6.35, 84.01 -39.52, 100.37 -47.61" stroke="#000000" stroke-width="1" fill="none"></path></g><g transform="translate(415.54296875 109.4296875) rotate(0 50.09542390480641 -22.921029199017198)"><path d="M78.8 -24.43 C87.62 -32.1, 90.87 -37.97, 100.21 -48.21 M79.59 -24.87 C84.11 -29.75, 87.91 -35.05, 99.62 -48.44" stroke="#000000" stroke-width="1" fill="none"></path></g><g transform="translate(415.54296875 109.4296875) rotate(0 50.09542390480641 -22.921029199017198)"><path d="M69.64 -42.79 C81.26 -44.98, 87.21 -45.42, 100.21 -48.21 M70.43 -43.24 C76.86 -44.38, 82.54 -45.9, 99.62 -48.44" stroke="#000000" stroke-width="1" fill="none"></path></g></g><mask></mask><g transform="translate(558.10546875 132.05078125) rotate(0 52.39994812011719 25)"><text x="0" y="0" font-family="Virgil, Segoe UI Emoji" font-size="20px" fill="#000000" text-anchor="start" style="white-space: pre;" direction="ltr" dominant-baseline="text-before-edge">Download </text><text x="0" y="25" font-family="Virgil, Segoe UI Emoji" font-size="20px" fill="#000000" text-anchor="start" style="white-space: pre;" direction="ltr" dominant-baseline="text-before-edge">Dispatcher</text></g><g stroke-linecap="round"><g transform="translate(709.640625 326.328125) rotate(0 41.453158775716986 3.697954482310479)"><path d="M-0.31 0.81 C13.75 1.85, 69.49 6.49, 83.21 7.21 M1.73 0.19 C15.77 0.83, 68.69 4.64, 82.5 5.59" stroke="#000000" stroke-width="1" fill="none"></path></g><g transform="translate(709.640625 326.328125) rotate(0 41.453158775716986 3.697954482310479)"><path d="M55.01 14.6 C61.17 11.01, 63.7 9.37, 81.92 5.25 M53.78 13.47 C60.83 11.08, 68.13 9.65, 82.95 4.7" stroke="#000000" stroke-width="1" fill="none"></path></g><g transform="translate(709.640625 326.328125) rotate(0 41.453158775716986 3.697954482310479)"><path d="M56.44 -5.87 C62.47 -5.22, 64.69 -2.62, 81.92 5.25 M55.22 -7 C61.72 -3.96, 68.64 0.05, 82.95 4.7" stroke="#000000" stroke-width="1" fill="none"></path></g></g><mask></mask><g stroke-linecap="round"><g transform="translate(961.59375 290.7421875) rotate(0 1.366733662038996 -27.808261800659807)"><path d="M-0.79 -0.96 C-0.25 -10.14, 3.09 -45.89, 3.53 -54.83 M0.99 1.16 C1.44 -8.42, 2.55 -47.14, 3.11 -56.77" stroke="#000000" stroke-width="1" fill="none"></path></g><g transform="translate(961.59375 290.7421875) rotate(0 1.366733662038996 -27.808261800659807)"><path d="M9.88 -28.78 C9.31 -40.12, 7.01 -48.96, 2.8 -56.04 M11.92 -29.88 C9.74 -38.59, 6.33 -46.76, 3.17 -55.97" stroke="#000000" stroke-width="1" fill="none"></path></g><g transform="translate(961.59375 290.7421875) rotate(0 1.366733662038996 -27.808261800659807)"><path d="M-9 -29.56 C-3.51 -40.52, 0.25 -49.11, 2.8 -56.04 M-6.95 -30.67 C-3.59 -39.18, -1.45 -47.12, 3.17 -55.97" stroke="#000000" stroke-width="1" fill="none"></path></g></g><mask></mask><g stroke-linecap="round"><g transform="translate(941.21875 243.64453125) rotate(0 -4.664015726000002 21.83048400059343)"><path d="M0.98 0.75 C-0.87 8.02, -8.21 35.7, -10.31 42.91" stroke="#000000" stroke-width="1.5" fill="none" stroke-dasharray="8 9"></path></g><g transform="translate(941.21875 243.64453125) rotate(0 -4.664015726000002 21.83048400059343)"><path d="M-10.82 21.33 C-11.49 27.23, -8.97 36.91, -10.76 41.86" stroke="#000000" stroke-width="1.5" fill="none"></path></g><g transform="translate(941.21875 243.64453125) rotate(0 -4.664015726000002 21.83048400059343)"><path d="M3.74 25.35 C-2.24 29.9, -5.06 38.1, -10.76 41.86" stroke="#000000" stroke-width="1.5" fill="none"></path></g></g><mask></mask><g stroke-linecap="round"><g transform="translate(837.14453125 282.41796875) rotate(0 -2.0845630625868807 -19.941949190152798)"><path d="M1.13 -0.96 C0.4 -7.34, -3.11 -32.79, -4.06 -39.08 M0.26 1.15 C-0.69 -5.54, -4.89 -34.06, -5.3 -41.03" stroke="#000000" stroke-width="1" fill="none"></path></g><g transform="translate(837.14453125 282.41796875) rotate(0 -2.0845630625868807 -19.941949190152798)"><path d="M1.87 -24.2 C1.28 -30.64, -0.91 -34.78, -4.2 -41.39 M3.53 -22.35 C0.85 -27.48, -1.13 -32.18, -6.27 -41.84" stroke="#000000" stroke-width="1" fill="none"></path></g><g transform="translate(837.14453125 282.41796875) rotate(0 -2.0845630625868807 -19.941949190152798)"><path d="M-11.57 -22.72 C-7.82 -29.76, -5.67 -34.38, -4.2 -41.39 M-9.92 -20.87 C-9.43 -26.28, -8.23 -31.33, -6.27 -41.84" stroke="#000000" stroke-width="1" fill="none"></path></g></g><mask></mask></svg>