<svg version="1.1" xmlns="http://www.w3.org/2000/svg" viewBox="0 0 898.79296875 516.390625" width="1797.5859375" height="1032.78125">
  <!-- svg-source:excalidraw -->
  
  <defs>
    <style class="style-fonts">
      @font-face {
        font-family: "Virgil";
        src: url("https://excalidraw.com/Virgil.woff2");
      }
      @font-face {
        font-family: "Cascadia";
        src: url("https://excalidraw.com/Cascadia.woff2");
      }
    </style>
  </defs>
  <rect x="0" y="0" width="898.79296875" height="516.390625" fill="#ffffff"></rect><g transform="translate(359.666015625 10) rotate(0 75.42993927001953 24)"><text x="0" y="0" font-family="Virgil, Segoe UI Emoji" font-size="20px" fill="#000000" text-anchor="start" style="white-space: pre;" direction="ltr" dominant-baseline="text-before-edge">File Downloader</text><text x="0" y="24" font-family="Virgil, Segoe UI Emoji" font-size="20px" fill="#000000" text-anchor="start" style="white-space: pre;" direction="ltr" dominant-baseline="text-before-edge"></text></g><g stroke-linecap="round" transform="translate(246.158203125 71.2734375) rotate(0 70 49.5)"><path d="M24.75 0 M24.75 0 C44.74 -0.68, 65.42 1.48, 115.25 0 M24.75 0 C49.83 -0.05, 74.66 0.73, 115.25 0 M115.25 0 C133.59 -1.2, 139.94 8.76, 140 24.75 M115.25 0 C132.11 -0.95, 139.95 8.25, 140 24.75 M140 24.75 C140.53 35.88, 142 44.27, 140 74.25 M140 24.75 C140.61 35.54, 140.87 45.99, 140 74.25 M140 74.25 C140 90.46, 132.95 98.69, 115.25 99 M140 74.25 C138.39 90.04, 133.32 98.44, 115.25 99 M115.25 99 C88.18 99.77, 61.56 96.76, 24.75 99 M115.25 99 C91.15 99.37, 68.56 99.96, 24.75 99 M24.75 99 C7.68 97.06, -0.76 91.32, 0 74.25 M24.75 99 C8.43 98.78, 0.64 90.68, 0 74.25 M0 74.25 C-0.96 56.32, 1.93 39.01, 0 24.75 M0 74.25 C-1.29 62.57, -1.12 51.85, 0 24.75 M0 24.75 C1.28 6.52, 8.53 -1.09, 24.75 0 M0 24.75 C2.25 9.23, 9.33 1.89, 24.75 0" stroke="#000000" stroke-width="1" fill="none"></path></g><g transform="translate(252.7482681274414 108.7734375) rotate(0 63.409934997558594 12)"><text x="63.409934997558594" y="0" font-family="Virgil, Segoe UI Emoji" font-size="20px" fill="#000000" text-anchor="middle" style="white-space: pre;" direction="ltr" dominant-baseline="text-before-edge">Configuration</text></g><g stroke-linecap="round" transform="translate(250.712890625 253.48828125) rotate(0 70.142578125 47.88671875)"><path d="M23.94 0 M23.94 0 C55.92 -1.23, 88.7 -1.92, 116.34 0 M23.94 0 C57.09 1.68, 90.63 1.29, 116.34 0 M116.34 0 C133.67 -0.43, 139.48 7.57, 140.29 23.94 M116.34 0 C133.25 -1.83, 138.55 8.77, 140.29 23.94 M140.29 23.94 C141.99 40.11, 142.18 54.16, 140.29 71.83 M140.29 23.94 C139.78 41.07, 140.99 60.38, 140.29 71.83 M140.29 71.83 C138.39 86.52, 131.5 96.02, 116.34 95.77 M140.29 71.83 C141.65 89.86, 133.25 93.94, 116.34 95.77 M116.34 95.77 C95.93 96.98, 76.54 95.9, 23.94 95.77 M116.34 95.77 C94.49 96.87, 73.87 96.42, 23.94 95.77 M23.94 95.77 C9.05 96.15, -1.53 89.38, 0 71.83 M23.94 95.77 C6.96 97.06, 0.25 87.06, 0 71.83 M0 71.83 C-1.52 58.3, -1.42 41.36, 0 23.94 M0 71.83 C-0.18 57, -0.27 40.11, 0 23.94 M0 23.94 C0.28 6.6, 7.34 -0.51, 23.94 0 M0 23.94 C-1.6 9.89, 9.83 0, 23.94 0" stroke="#000000" stroke-width="1" fill="none"></path></g><g transform="translate(266.4555130004883 277.375) rotate(0 54.39995574951172 24)"><text x="54.39995574951172" y="0" font-family="Virgil, Segoe UI Emoji" font-size="20px" fill="#000000" text-anchor="middle" style="white-space: pre;" direction="ltr" dominant-baseline="text-before-edge">File </text><text x="54.39995574951172" y="24" font-family="Virgil, Segoe UI Emoji" font-size="20px" fill="#000000" text-anchor="middle" style="white-space: pre;" direction="ltr" dominant-baseline="text-before-edge">Downloader</text></g><g stroke-linecap="round" transform="translate(10 331.69140625) rotate(0 70.142578125 47.88671875)"><path d="M23.94 0 M23.94 0 C61.79 0.45, 98.01 0.86, 116.34 0 M23.94 0 C44.66 -0.03, 63.92 -0.91, 116.34 0 M116.34 0 C134.13 -1.29, 141.43 9.9, 140.29 23.94 M116.34 0 C132.4 -2.16, 139.24 6.11, 140.29 23.94 M140.29 23.94 C142.05 33.72, 140.3 45.02, 140.29 71.83 M140.29 23.94 C141.14 41.42, 139.36 59.46, 140.29 71.83 M140.29 71.83 C138.81 88.98, 132.95 95.57, 116.34 95.77 M140.29 71.83 C138.81 86.49, 133.05 94.21, 116.34 95.77 M116.34 95.77 C89.05 95.71, 65.81 94.13, 23.94 95.77 M116.34 95.77 C91.11 95.03, 65.13 96.43, 23.94 95.77 M23.94 95.77 C7.57 94.18, -1.43 86.96, 0 71.83 M23.94 95.77 C7.12 94.23, 0.05 88.1, 0 71.83 M0 71.83 C-1.67 56.27, -1.72 43.44, 0 23.94 M0 71.83 C1 56.22, -0.09 39.81, 0 23.94 M0 23.94 C-1.73 7.02, 6.04 0.22, 23.94 0 M0 23.94 C-1.88 8.59, 9.39 -1.81, 23.94 0" stroke="#000000" stroke-width="1" fill="none"></path></g><g transform="translate(30.512611389160156 355.578125) rotate(0 49.629966735839844 24)"><text x="49.629966735839844" y="0" font-family="Virgil, Segoe UI Emoji" font-size="20px" fill="#000000" text-anchor="middle" style="white-space: pre;" direction="ltr" dominant-baseline="text-before-edge">Download </text><text x="49.629966735839844" y="24" font-family="Virgil, Segoe UI Emoji" font-size="20px" fill="#000000" text-anchor="middle" style="white-space: pre;" direction="ltr" dominant-baseline="text-before-edge">Task</text></g><g stroke-linecap="round" transform="translate(15.25 193.12890625) rotate(0 70.142578125 47.88671875)"><path d="M23.94 0 M23.94 0 C59.87 2.57, 96.57 2.38, 116.34 0 M23.94 0 C52.21 -0.27, 82.72 -0.8, 116.34 0 M116.34 0 C130.42 -0.91, 138.66 6.73, 140.29 23.94 M116.34 0 C131.81 -0.76, 142.43 6.15, 140.29 23.94 M140.29 23.94 C139.77 38.63, 141.65 53.14, 140.29 71.83 M140.29 23.94 C141.11 34.34, 140.42 43.46, 140.29 71.83 M140.29 71.83 C139.15 88.44, 130.94 95.46, 116.34 95.77 M140.29 71.83 C139.15 87.71, 131.11 95.74, 116.34 95.77 M116.34 95.77 C80.89 95.87, 42.89 93.73, 23.94 95.77 M116.34 95.77 C93.28 94.87, 71.39 95.21, 23.94 95.77 M23.94 95.77 C6.64 95.82, 0.27 87.71, 0 71.83 M23.94 95.77 C6.62 97.93, -2.25 86.18, 0 71.83 M0 71.83 C-1.47 62.87, 1.31 52.66, 0 23.94 M0 71.83 C-0.09 58.61, 0.5 46.51, 0 23.94 M0 23.94 C0.53 9.2, 6.4 -1.66, 23.94 0 M0 23.94 C1.85 8.79, 6.27 -2.15, 23.94 0" stroke="#000000" stroke-width="1" fill="none"></path></g><g transform="translate(35.762611389160156 217.015625) rotate(0 49.629966735839844 24)"><text x="49.629966735839844" y="0" font-family="Virgil, Segoe UI Emoji" font-size="20px" fill="#000000" text-anchor="middle" style="white-space: pre;" direction="ltr" dominant-baseline="text-before-edge">Download </text><text x="49.629966735839844" y="24" font-family="Virgil, Segoe UI Emoji" font-size="20px" fill="#000000" text-anchor="middle" style="white-space: pre;" direction="ltr" dominant-baseline="text-before-edge">Request</text></g><g stroke-linecap="round" transform="translate(527.587890625 252.703125) rotate(0 75.3203125 45.951171875)"><path d="M22.98 0 M22.98 0 C50.06 2.07, 77.98 2.75, 127.67 0 M22.98 0 C51.09 -1.08, 79.9 -0.67, 127.67 0 M127.67 0 C141.02 0.5, 148.81 7.69, 150.64 22.98 M127.67 0 C144.73 1.02, 151.03 8.87, 150.64 22.98 M150.64 22.98 C152.56 39.11, 149.24 57.62, 150.64 68.93 M150.64 22.98 C150.82 37.03, 150.99 50.81, 150.64 68.93 M150.64 68.93 C151.78 82.41, 143.98 90.39, 127.67 91.9 M150.64 68.93 C150.27 82.59, 143.42 89.71, 127.67 91.9 M127.67 91.9 C105.5 92.07, 82.57 92.88, 22.98 91.9 M127.67 91.9 C102.03 92.98, 75.06 93.24, 22.98 91.9 M22.98 91.9 C7.6 92.26, -1.98 84.77, 0 68.93 M22.98 91.9 C5.83 91, -1.89 83.96, 0 68.93 M0 68.93 C2.27 59.9, -0.91 50.64, 0 22.98 M0 68.93 C-1.14 54.6, -0.5 37.4, 0 22.98 M0 22.98 C1.83 9.49, 9.64 0.96, 22.98 0 M0 22.98 C-0.52 8.79, 6.34 0.93, 22.98 0" stroke="#000000" stroke-width="1" fill="none"></path></g><g transform="translate(550.5082550048828 286.654296875) rotate(0 52.39994812011719 12)"><text x="52.39994812011719" y="0" font-family="Virgil, Segoe UI Emoji" font-size="20px" fill="#000000" text-anchor="middle" style="white-space: pre;" direction="ltr" dominant-baseline="text-before-edge">Dispatcher</text></g><g stroke-linecap="round" transform="translate(748.5078125 242.50390625) rotate(0 70.142578125 47.88671875)"><path d="M23.94 0 M23.94 0 C41.06 2.1, 63.94 2.25, 116.34 0 M23.94 0 C55.53 -0.05, 88.46 -1.41, 116.34 0 M116.34 0 C130.82 0.73, 141.04 8.21, 140.29 23.94 M116.34 0 C134.2 -0.94, 138.13 8.79, 140.29 23.94 M140.29 23.94 C141.4 34.5, 142.07 48.91, 140.29 71.83 M140.29 23.94 C140.4 42.64, 139.51 60.5, 140.29 71.83 M140.29 71.83 C139.83 88.37, 133.24 96.15, 116.34 95.77 M140.29 71.83 C140.26 88.5, 131.95 96.89, 116.34 95.77 M116.34 95.77 C88.15 94.88, 58.59 95.15, 23.94 95.77 M116.34 95.77 C81.9 96.4, 49.81 97.36, 23.94 95.77 M23.94 95.77 C8.61 97.27, 0.95 86.48, 0 71.83 M23.94 95.77 C8.21 97.19, -1.66 87.01, 0 71.83 M0 71.83 C0.04 55.4, -1.12 41.47, 0 23.94 M0 71.83 C-0.39 61.9, 1.06 50.46, 0 23.94 M0 23.94 C-1.93 7.76, 8.59 -0.66, 23.94 0 M0 23.94 C1.53 8.46, 6.4 -0.39, 23.94 0" stroke="#000000" stroke-width="1" fill="none"></path></g><g transform="translate(775.2904281616211 266.390625) rotate(0 43.359962463378906 24)"><text x="43.359962463378906" y="0" font-family="Virgil, Segoe UI Emoji" font-size="20px" fill="#000000" text-anchor="middle" style="white-space: pre;" direction="ltr" dominant-baseline="text-before-edge">Network </text><text x="43.359962463378906" y="24" font-family="Virgil, Segoe UI Emoji" font-size="20px" fill="#000000" text-anchor="middle" style="white-space: pre;" direction="ltr" dominant-baseline="text-before-edge">Client</text></g><g stroke-linecap="round" transform="translate(538.93359375 410.6171875) rotate(0 70.142578125 47.88671875)"><path d="M23.94 0 M23.94 0 C57.57 0.2, 96.36 0.28, 116.34 0 M23.94 0 C51.43 -0.39, 79.48 -0.38, 116.34 0 M116.34 0 C131.04 1.01, 140.43 6.78, 140.29 23.94 M116.34 0 C133.15 -0.19, 142.29 7.04, 140.29 23.94 M140.29 23.94 C139.35 36.42, 138.65 52.48, 140.29 71.83 M140.29 23.94 C139.95 34.34, 139.2 45.94, 140.29 71.83 M140.29 71.83 C140.46 88.82, 134.29 95.43, 116.34 95.77 M140.29 71.83 C140.28 89.32, 130.61 97.94, 116.34 95.77 M116.34 95.77 C91.39 93.99, 68.27 94.75, 23.94 95.77 M116.34 95.77 C84.13 95.76, 51.53 95.51, 23.94 95.77 M23.94 95.77 C6.76 94.49, 0.09 88.28, 0 71.83 M23.94 95.77 C5.75 94.55, -2.27 87.49, 0 71.83 M0 71.83 C-1.28 63.31, -0.97 49.2, 0 23.94 M0 71.83 C0.04 59.36, -0.47 49.46, 0 23.94 M0 23.94 C1.51 7.95, 7.79 -0.12, 23.94 0 M0 23.94 C2.29 9.84, 6.05 -0.25, 23.94 0" stroke="#000000" stroke-width="1" fill="none"></path></g><g transform="translate(561.006217956543 446.50390625) rotate(0 48.06995391845703 12)"><text x="48.06995391845703" y="0" font-family="Virgil, Segoe UI Emoji" font-size="20px" fill="#000000" text-anchor="middle" style="white-space: pre;" direction="ltr" dominant-baseline="text-before-edge">File Store</text></g><g stroke-linecap="round" transform="translate(752.189453125 39.90234375) rotate(0 67.8359375 64.12109375)"><path d="M64.82 0.74 C74.64 -0.8, 86.71 1.77, 96.27 5.78 C105.83 9.79, 115.89 16.79, 122.18 24.8 C128.46 32.81, 132.38 43.88, 134 53.85 C135.63 63.82, 135.22 75.32, 131.93 84.6 C128.64 93.88, 121.74 102.59, 114.27 109.54 C106.8 116.48, 97.13 123.42, 87.13 126.28 C77.12 129.14, 64.55 128.67, 54.27 126.68 C43.98 124.69, 33.57 120.72, 25.42 114.32 C17.26 107.92, 9.56 97.47, 5.34 88.3 C1.13 79.13, -0.8 69.02, 0.1 59.3 C1.01 49.57, 5.3 38.49, 10.79 29.94 C16.28 21.39, 22.86 12.88, 33.05 7.99 C43.25 3.09, 64.09 1.68, 71.95 0.6 C79.81 -0.48, 80.32 0.65, 80.24 1.51 M79.09 0.08 C88.94 0.78, 99.86 6.87, 108.01 13.17 C116.16 19.46, 123.6 29.08, 128 37.85 C132.4 46.63, 134.55 56.35, 134.38 65.81 C134.22 75.27, 131.8 85.84, 126.99 94.63 C122.18 103.42, 114.24 113.21, 105.55 118.57 C96.86 123.92, 85.5 125.93, 74.83 126.78 C64.15 127.62, 51.45 127.28, 41.5 123.64 C31.55 120, 21.79 112.75, 15.14 104.94 C8.48 97.13, 3.91 86.73, 1.58 76.8 C-0.75 66.87, -1.59 54.91, 1.16 45.36 C3.9 35.82, 10.76 26.59, 18.06 19.53 C25.35 12.48, 34.63 6.26, 44.93 3.03 C55.23 -0.2, 74.14 0.51, 79.86 0.16 C85.57 -0.2, 79.61 -0.1, 79.22 0.9" stroke="#000000" stroke-width="1" fill="none"></path></g><g transform="translate(779.486328125 92.0625) rotate(0 43.15995788574219 12)"><text x="0" y="0" font-family="Virgil, Segoe UI Emoji" font-size="20px" fill="#000000" text-anchor="start" style="white-space: pre;" direction="ltr" dominant-baseline="text-before-edge">File Host</text></g><g stroke-linecap="round"><g transform="translate(160.486328125 254.12890625) rotate(0 45.66796875 18.228515625)"><path d="M0 0 C15.22 6.08, 76.11 30.38, 91.34 36.46 M0 0 C15.22 6.08, 76.11 30.38, 91.34 36.46" stroke="#000000" stroke-width="1" fill="none"></path></g><g transform="translate(160.486328125 254.12890625) rotate(0 45.66796875 18.228515625)"><path d="M61.35 35.54 C67.74 35.73, 74.14 35.93, 91.34 36.46 M61.35 35.54 C72.42 35.88, 83.49 36.22, 91.34 36.46" stroke="#000000" stroke-width="1" fill="none"></path></g><g transform="translate(160.486328125 254.12890625) rotate(0 45.66796875 18.228515625)"><path d="M68.96 16.48 C73.73 20.74, 78.5 25, 91.34 36.46 M68.96 16.48 C77.22 23.85, 85.48 31.23, 91.34 36.46" stroke="#000000" stroke-width="1" fill="none"></path></g></g><mask></mask><g stroke-linecap="round"><g transform="translate(245.779296875 317.4453125) rotate(0 -45.130859375 28.67578125)"><path d="M0 0 C-15.04 9.56, -75.22 47.79, -90.26 57.35 M0 0 C-15.04 9.56, -75.22 47.79, -90.26 57.35" stroke="#000000" stroke-width="1" fill="none"></path></g><g transform="translate(245.779296875 317.4453125) rotate(0 -45.130859375 28.67578125)"><path d="M-71.97 33.57 C-78.89 42.57, -85.81 51.56, -90.26 57.35 M-71.97 33.57 C-78.45 41.99, -84.93 50.42, -90.26 57.35" stroke="#000000" stroke-width="1" fill="none"></path></g><g transform="translate(245.779296875 317.4453125) rotate(0 -45.130859375 28.67578125)"><path d="M-60.97 50.89 C-72.05 53.34, -83.13 55.78, -90.26 57.35 M-60.97 50.89 C-71.34 53.18, -81.72 55.47, -90.26 57.35" stroke="#000000" stroke-width="1" fill="none"></path></g></g><mask></mask><g stroke-linecap="round"><g transform="translate(392.412109375 278.1875) rotate(0 67.826171875 1.822265625)"><path d="M0 0 C22.61 0.61, 113.04 3.04, 135.65 3.64 M0 0 C22.61 0.61, 113.04 3.04, 135.65 3.64" stroke="#000000" stroke-width="1" fill="none"></path></g><g transform="translate(392.412109375 278.1875) rotate(0 67.826171875 1.822265625)"><path d="M107.2 13.14 C116.7 9.97, 126.21 6.8, 135.65 3.64 M107.2 13.14 C118.06 9.52, 128.93 5.89, 135.65 3.64" stroke="#000000" stroke-width="1" fill="none"></path></g><g transform="translate(392.412109375 278.1875) rotate(0 67.826171875 1.822265625)"><path d="M107.75 -7.37 C117.07 -3.69, 126.4 -0.01, 135.65 3.64 M107.75 -7.37 C118.4 -3.16, 129.06 1.04, 135.65 3.64" stroke="#000000" stroke-width="1" fill="none"></path></g></g><mask></mask><g stroke-linecap="round"><g transform="translate(611.107421875 348.1640625) rotate(0 -1.00390625 31.033203125)"><path d="M0 0 C-0.33 10.34, -1.67 51.72, -2.01 62.07 M0 0 C-0.33 10.34, -1.67 51.72, -2.01 62.07" stroke="#000000" stroke-width="1" fill="none"></path></g><g transform="translate(611.107421875 348.1640625) rotate(0 -1.00390625 31.033203125)"><path d="M-11.35 33.56 C-9.21 40.09, -7.07 46.62, -2.01 62.07 M-11.35 33.56 C-9.25 39.96, -7.15 46.37, -2.01 62.07" stroke="#000000" stroke-width="1" fill="none"></path></g><g transform="translate(611.107421875 348.1640625) rotate(0 -1.00390625 31.033203125)"><path d="M9.16 34.22 C6.6 40.6, 4.04 46.98, -2.01 62.07 M9.16 34.22 C6.65 40.48, 4.14 46.74, -2.01 62.07" stroke="#000000" stroke-width="1" fill="none"></path></g></g><mask></mask><g stroke-linecap="round"><g transform="translate(679.513671875 270.9453125) rotate(0 36.16015625 0.798828125)"><path d="M0 0 C12.05 0.27, 60.27 1.33, 72.32 1.6 M0 0 C12.05 0.27, 60.27 1.33, 72.32 1.6" stroke="#000000" stroke-width="1" fill="none"></path></g><g transform="translate(679.513671875 270.9453125) rotate(0 36.16015625 0.798828125)"><path d="M43.91 11.23 C53.97 7.82, 64.03 4.41, 72.32 1.6 M43.91 11.23 C50.23 9.09, 56.54 6.95, 72.32 1.6" stroke="#000000" stroke-width="1" fill="none"></path></g><g transform="translate(679.513671875 270.9453125) rotate(0 36.16015625 0.798828125)"><path d="M44.36 -9.28 C54.26 -5.43, 64.16 -1.58, 72.32 1.6 M44.36 -9.28 C50.58 -6.86, 56.79 -4.45, 72.32 1.6" stroke="#000000" stroke-width="1" fill="none"></path></g></g><mask></mask><g stroke-linecap="round"><g transform="translate(743.853515625 317.24609375) rotate(0 -31.3515625 1.474609375)"><path d="M0 0 C-10.45 0.49, -52.25 2.46, -62.7 2.95 M0 0 C-10.45 0.49, -52.25 2.46, -62.7 2.95" stroke="#000000" stroke-width="1" fill="none"></path></g><g transform="translate(743.853515625 317.24609375) rotate(0 -31.3515625 1.474609375)"><path d="M-35.03 -8.62 C-42.24 -5.61, -49.45 -2.59, -62.7 2.95 M-35.03 -8.62 C-42.51 -5.49, -50 -2.36, -62.7 2.95" stroke="#000000" stroke-width="1" fill="none"></path></g><g transform="translate(743.853515625 317.24609375) rotate(0 -31.3515625 1.474609375)"><path d="M-34.06 11.87 C-41.52 9.55, -48.99 7.22, -62.7 2.95 M-34.06 11.87 C-41.81 9.46, -49.55 7.05, -62.7 2.95" stroke="#000000" stroke-width="1" fill="none"></path></g></g><mask></mask><g stroke-linecap="round"><g transform="translate(792.412109375 239.64453125) rotate(0 1.142578125 -38.45703125)"><path d="M0 0 C0.38 -12.82, 1.9 -64.1, 2.29 -76.91 M0 0 C0.38 -12.82, 1.9 -64.1, 2.29 -76.91" stroke="#000000" stroke-width="1" fill="none"></path></g><g transform="translate(792.412109375 239.64453125) rotate(0 1.142578125 -38.45703125)"><path d="M11.7 -48.43 C8.87 -57, 6.04 -65.56, 2.29 -76.91 M11.7 -48.43 C9.12 -56.24, 6.54 -64.04, 2.29 -76.91" stroke="#000000" stroke-width="1" fill="none"></path></g><g transform="translate(792.412109375 239.64453125) rotate(0 1.142578125 -38.45703125)"><path d="M-8.81 -49.04 C-5.47 -57.42, -2.14 -65.8, 2.29 -76.91 M-8.81 -49.04 C-5.77 -56.68, -2.73 -64.32, 2.29 -76.91" stroke="#000000" stroke-width="1" fill="none"></path></g></g><mask></mask><g stroke-linecap="round"><g transform="translate(833.732421875 162.875) rotate(0 -2.3984375 38.916015625)"><path d="M0 0 C-0.8 12.97, -4 64.86, -4.8 77.83 M0 0 C-0.8 12.97, -4 64.86, -4.8 77.83" stroke="#000000" stroke-width="1" fill="none"></path></g><g transform="translate(833.732421875 162.875) rotate(0 -2.3984375 38.916015625)"><path d="M-13.3 49.06 C-11.51 55.14, -9.71 61.22, -4.8 77.83 M-13.3 49.06 C-11.25 56.01, -9.2 62.95, -4.8 77.83" stroke="#000000" stroke-width="1" fill="none"></path></g><g transform="translate(833.732421875 162.875) rotate(0 -2.3984375 38.916015625)"><path d="M7.18 50.33 C4.65 56.14, 2.12 61.95, -4.8 77.83 M7.18 50.33 C4.29 56.96, 1.4 63.6, -4.8 77.83" stroke="#000000" stroke-width="1" fill="none"></path></g></g><mask></mask><g stroke-linecap="round"><g transform="translate(523.017578125 318.90234375) rotate(0 -65.158203125 0.05859375)"><path d="M0 0 C-21.72 0.02, -108.6 0.1, -130.32 0.12" stroke="#000000" stroke-width="1.5" fill="none" stroke-dasharray="8 9"></path></g><g transform="translate(523.017578125 318.90234375) rotate(0 -65.158203125 0.05859375)"><path d="M-102.13 -10.17 C-110.72 -7.04, -119.3 -3.9, -130.32 0.12" stroke="#000000" stroke-width="1.5" fill="none"></path></g><g transform="translate(523.017578125 318.90234375) rotate(0 -65.158203125 0.05859375)"><path d="M-102.12 10.35 C-110.7 7.24, -119.29 4.12, -130.32 0.12" stroke="#000000" stroke-width="1.5" fill="none"></path></g></g><mask></mask><g stroke-linecap="round"><g transform="translate(313.13029148534474 176.796875) rotate(0 -0.39845102531421617 37.845703125)"><path d="M0 0 C-0.13 12.62, -0.66 63.08, -0.8 75.69" stroke="#000000" stroke-width="1.5" fill="none" stroke-dasharray="8 9"></path></g><g transform="translate(313.13029148534474 176.796875) rotate(0 -0.39845102531421617 37.845703125)"><path d="M-10.76 47.39 C-7.98 55.29, -5.2 63.18, -0.8 75.69" stroke="#000000" stroke-width="1.5" fill="none"></path></g><g transform="translate(313.13029148534474 176.796875) rotate(0 -0.39845102531421617 37.845703125)"><path d="M9.76 47.61 C6.82 55.44, 3.87 63.28, -0.8 75.69" stroke="#000000" stroke-width="1.5" fill="none"></path></g></g><mask></mask></svg>