<svg version="1.1" xmlns="http://www.w3.org/2000/svg" viewBox="0 0 868.68359375 778.265625" width="1737.3671875" height="1556.53125">
  <!-- svg-source:excalidraw -->
  
  <defs>
    <style class="style-fonts">
      @font-face {
        font-family: "Virgil";
        src: url("https://excalidraw.com/Virgil.woff2");
      }
      @font-face {
        font-family: "Cascadia";
        src: url("https://excalidraw.com/Cascadia.woff2");
      }
    </style>
  </defs>
  <rect x="0" y="0" width="868.68359375" height="778.265625" fill="#ffffff"></rect><g transform="translate(300.69140625 10) rotate(0 84.70992279052734 12.5)"><text x="0" y="0" font-family="Virgil, Segoe UI Emoji" font-size="20px" fill="#000000" text-anchor="start" style="white-space: pre;" direction="ltr" dominant-baseline="text-before-edge">Food delivery app</text></g><g stroke-linecap="round" transform="translate(127.04296875 68.57421875) rotate(0 104.759765625 63.69921875)"><path d="M141.48 5.09 C154.54 7.29, 167.93 12.83, 178.21 18.68 C188.49 24.53, 197.98 32.14, 203.17 40.17 C208.35 48.21, 209.97 58.06, 209.31 66.89 C208.65 75.73, 205.6 85.58, 199.21 93.18 C192.82 100.79, 182.24 107.12, 170.95 112.52 C159.67 117.91, 145.06 123.29, 131.49 125.55 C117.91 127.8, 103.43 127.54, 89.5 126.06 C75.58 124.57, 60.13 121.3, 47.96 116.62 C35.79 111.93, 24.16 105.06, 16.46 97.96 C8.76 90.86, 3.76 82.56, 1.76 74 C-0.24 65.44, 1.04 54.91, 4.47 46.59 C7.9 38.28, 13.76 30.55, 22.33 24.1 C30.91 17.66, 43.15 12.1, 55.93 7.93 C68.7 3.77, 84.08 -0.26, 98.98 -0.88 C113.89 -1.49, 136.94 2.73, 145.35 4.23 C153.76 5.74, 149.84 6.96, 149.44 8.16 M136.36 2.27 C149.7 4.02, 164.79 11.76, 175.33 17.34 C185.86 22.93, 193.68 28.28, 199.59 35.79 C205.49 43.3, 210.31 53.39, 210.77 62.4 C211.22 71.4, 207.98 81.74, 202.31 89.83 C196.64 97.92, 187.4 105.07, 176.74 110.95 C166.08 116.82, 152.06 122.54, 138.34 125.09 C124.62 127.65, 108.62 127.44, 94.4 126.28 C80.18 125.13, 65.29 122.27, 53.04 118.14 C40.79 114.01, 29.1 108.4, 20.9 101.5 C12.71 94.59, 7.01 85.02, 3.87 76.71 C0.72 68.41, -0.68 60.19, 2.04 51.67 C4.76 43.15, 11.91 32.74, 20.19 25.58 C28.47 18.42, 39.56 12.94, 51.72 8.72 C63.88 4.5, 79.25 1.34, 93.12 0.26 C106.99 -0.82, 127.89 1.61, 134.94 2.24 C141.98 2.86, 135.48 2.76, 135.4 4.01" stroke="#000000" stroke-width="1" fill="none"></path></g><g transform="translate(192.06642056151782 119.73128796558973) rotate(0 39.65997314453125 12.5)"><text x="39.65997314453125" y="0" font-family="Virgil, Segoe UI Emoji" font-size="20px" fill="#000000" text-anchor="middle" style="white-space: pre;" direction="ltr" dominant-baseline="text-before-edge">Backend</text></g><g stroke-linecap="round" transform="translate(401.2109375 144.40625) rotate(0 87.3046875 60)"><path d="M63.09 1.9 C74.02 -1.14, 89.22 -0.12, 101.61 1.55 C114 3.22, 126.87 6.81, 137.42 11.93 C147.97 17.05, 158.81 24.68, 164.91 32.27 C171.01 39.87, 173.41 49.1, 174.01 57.49 C174.6 65.88, 173.2 74.61, 168.47 82.61 C163.73 90.62, 155.13 99.68, 145.62 105.51 C136.11 111.35, 123.55 115.46, 111.41 117.61 C99.28 119.76, 85.42 120.07, 72.82 118.42 C60.22 116.78, 46.09 112.58, 35.82 107.74 C25.56 102.89, 17.1 96.92, 11.21 89.36 C5.31 81.8, 1.31 71.26, 0.45 62.38 C-0.41 53.51, 1.05 44.05, 6.05 36.1 C11.04 28.15, 18.75 20.69, 30.41 14.69 C42.06 8.68, 66.18 2.22, 75.97 0.09 C85.77 -2.05, 88.98 0.77, 89.19 1.87 M46.87 5.88 C57.28 1.32, 73.3 -0.23, 85.87 -0.16 C98.44 -0.09, 110.89 2.54, 122.28 6.31 C133.68 10.09, 145.93 16.19, 154.25 22.5 C162.57 28.8, 169.31 36.04, 172.22 44.14 C175.14 52.25, 174.33 62.59, 171.73 71.13 C169.12 79.67, 164.12 88.43, 156.59 95.39 C149.05 102.35, 137.44 108.69, 126.51 112.89 C115.57 117.09, 103.29 120.06, 90.97 120.59 C78.65 121.12, 64.38 119.54, 52.59 116.08 C40.79 112.61, 28.32 106.84, 20.21 99.79 C12.09 92.74, 7.04 82.24, 3.89 73.78 C0.73 65.33, -0.99 57.58, 1.25 49.06 C3.48 40.53, 9.85 29.9, 17.3 22.63 C24.75 15.35, 40.77 8.02, 45.92 5.41 C51.07 2.8, 47.43 6.04, 48.19 6.96" stroke="#000000" stroke-width="1" fill="none"></path></g><g transform="translate(436.34194703312755 166.97984312880715) rotate(0 51.93994140625 37.5)"><text x="51.93994140625" y="0" font-family="Virgil, Segoe UI Emoji" font-size="20px" fill="#000000" text-anchor="middle" style="white-space: pre;" direction="ltr" dominant-baseline="text-before-edge">Push </text><text x="51.93994140625" y="25" font-family="Virgil, Segoe UI Emoji" font-size="20px" fill="#000000" text-anchor="middle" style="white-space: pre;" direction="ltr" dominant-baseline="text-before-edge">Notificatio</text><text x="51.93994140625" y="50" font-family="Virgil, Segoe UI Emoji" font-size="20px" fill="#000000" text-anchor="middle" style="white-space: pre;" direction="ltr" dominant-baseline="text-before-edge">ns</text></g><g stroke-linecap="round" transform="translate(647.19140625 90.796875) rotate(0 78.087890625 50.88671875)"><path d="M79.71 -0.77 C91.24 -1.49, 105.22 2.36, 115.69 6.36 C126.15 10.35, 135.86 16.68, 142.47 23.18 C149.08 29.69, 154.09 37.71, 155.34 45.38 C156.59 53.05, 154.46 62.03, 149.98 69.19 C145.5 76.35, 137.41 83.04, 128.48 88.32 C119.55 93.61, 107.98 98.92, 96.39 100.9 C84.8 102.88, 70.58 102.2, 58.93 100.21 C47.28 98.21, 35.64 94.16, 26.49 88.94 C17.35 83.72, 8.36 76.37, 4.07 68.89 C-0.21 61.41, -0.89 52, 0.79 44.04 C2.47 36.09, 7.09 27.47, 14.13 21.17 C21.18 14.88, 31.16 9.92, 43.06 6.29 C54.95 2.66, 76.99 0.13, 85.49 -0.6 C93.99 -1.33, 94.14 0.82, 94.05 1.91 M113.64 6.82 C124.66 9.29, 135.57 14.48, 142.4 20.65 C149.23 26.82, 153.3 35.71, 154.62 43.83 C155.95 51.95, 154.15 62.03, 150.36 69.39 C146.57 76.75, 140.78 82.87, 131.89 87.99 C122.99 93.12, 108.74 97.93, 97 100.14 C85.26 102.34, 73.16 102.89, 61.45 101.22 C49.74 99.54, 36.2 95.62, 26.74 90.09 C17.29 84.56, 9.13 75.36, 4.73 68.05 C0.34 60.73, -1.03 53.81, 0.37 46.22 C1.77 38.63, 6.15 29.17, 13.14 22.51 C20.13 15.85, 31.47 9.83, 42.3 6.26 C53.12 2.68, 66.01 1.12, 78.08 1.05 C90.16 0.98, 108.76 4.75, 114.73 5.81 C120.69 6.88, 114.41 6.89, 113.86 7.43" stroke="#000000" stroke-width="1" fill="none"></path></g><g transform="translate(704.3828348391223 129.20124984954236) rotate(0 20.67998504638672 12.5)"><text x="20.67998504638672" y="0" font-family="Virgil, Segoe UI Emoji" font-size="20px" fill="#000000" text-anchor="middle" style="white-space: pre;" direction="ltr" dominant-baseline="text-before-edge">CDN</text></g><g stroke-linecap="round" transform="translate(12.24609375 326.7578125) rotate(0 85.537109375 81.935546875)"><path d="M110.34 3.36 C121.41 5.22, 132.58 12.89, 141.42 20.08 C150.26 27.27, 158.32 36.5, 163.37 46.5 C168.42 56.5, 171.34 69.1, 171.72 80.07 C172.11 91.03, 170.29 102.13, 165.66 112.27 C161.02 122.4, 152.46 133.21, 143.89 140.9 C135.32 148.59, 125.11 154.55, 114.23 158.4 C103.35 162.25, 90 164.81, 78.62 164.01 C67.24 163.2, 55.94 158.73, 45.95 153.58 C35.95 148.42, 26.08 141.74, 18.67 133.07 C11.25 124.4, 4.22 112.42, 1.47 101.56 C-1.27 90.7, -0.06 78.97, 2.18 67.89 C4.42 56.81, 8.65 44.29, 14.93 35.08 C21.21 25.86, 30.15 18.32, 39.86 12.59 C49.57 6.87, 60.86 2.08, 73.19 0.74 C85.53 -0.6, 106.46 3.26, 113.87 4.55 C121.28 5.84, 118.23 7.27, 117.64 8.48 M64.65 3.2 C75.16 -0.22, 90.35 0.19, 101.87 1.99 C113.4 3.79, 124.2 7.57, 133.81 13.99 C143.42 20.41, 153.4 31.1, 159.51 40.51 C165.63 49.91, 169.02 59.76, 170.52 70.43 C172.03 81.1, 172 93.77, 168.56 104.51 C165.11 115.24, 157.61 126.52, 149.85 134.86 C142.1 143.19, 132.41 149.67, 122.02 154.49 C111.63 159.31, 98.9 163.09, 87.53 163.76 C76.16 164.42, 64.7 162.65, 53.82 158.48 C42.93 154.31, 30.54 147.12, 22.22 138.73 C13.91 130.34, 7.62 118.62, 3.92 108.16 C0.21 97.7, -1.34 86.74, -0.01 75.97 C1.31 65.21, 6.17 53.22, 11.87 43.56 C17.56 33.91, 25.15 25.01, 34.16 18.05 C43.16 11.1, 60.58 4.38, 65.9 1.83 C71.22 -0.72, 65.57 1.24, 66.08 2.74" stroke="#000000" stroke-width="1" fill="none"></path></g><g transform="translate(45.35938400719755 396.2561785594593) rotate(0 52.43994903564453 12.5)"><text x="52.43994903564453" y="0" font-family="Virgil, Segoe UI Emoji" font-size="20px" fill="#000000" text-anchor="middle" style="white-space: pre;" direction="ltr" dominant-baseline="text-before-edge">Api Service</text></g><g stroke-linecap="round" transform="translate(10 593.06640625) rotate(0 82.85546875 59.63671875)"><path d="M58.46 3.67 C69.15 0.45, 83.45 -0.14, 95.37 0.96 C107.29 2.05, 120.2 5.5, 129.99 10.25 C139.78 15, 148.34 21.9, 154.13 29.47 C159.92 37.04, 163.66 47.06, 164.73 55.66 C165.8 64.27, 164.63 73.12, 160.56 81.11 C156.49 89.1, 149.05 97.66, 140.3 103.6 C131.55 109.55, 119.75 114.33, 108.08 116.8 C96.41 119.26, 82.3 119.53, 70.3 118.39 C58.31 117.25, 45.89 114.63, 36.11 109.96 C26.33 105.28, 17.6 97.9, 11.64 90.35 C5.67 82.79, 1.32 73.25, 0.32 64.63 C-0.69 56.01, 1.29 46.85, 5.62 38.62 C9.94 30.39, 16.43 21.43, 26.26 15.24 C36.09 9.05, 57.08 3.64, 64.59 1.51 C72.1 -0.63, 71.15 1.6, 71.32 2.45 M105.52 2.75 C116.71 4.21, 129.21 8.92, 138.19 14.62 C147.17 20.32, 154.92 28.91, 159.42 36.96 C163.92 45.02, 165.83 54.12, 165.19 62.94 C164.54 71.76, 161.27 82.4, 155.54 89.9 C149.82 97.4, 140.71 103.19, 130.82 107.94 C120.93 112.7, 108.04 117.04, 96.18 118.43 C84.32 119.83, 71.23 118.55, 59.65 116.32 C48.07 114.1, 35.51 110.94, 26.72 105.08 C17.92 99.21, 11.44 89.16, 6.87 81.13 C2.3 73.11, -1.06 65.52, -0.7 56.94 C-0.33 48.36, 3.32 37.53, 9.05 29.63 C14.79 21.73, 23.76 14.35, 33.73 9.53 C43.7 4.7, 57.01 1.83, 68.87 0.68 C80.73 -0.47, 98.59 2.11, 104.9 2.61 C111.21 3.12, 106.91 2.86, 106.73 3.71" stroke="#000000" stroke-width="1" fill="none"></path></g><g transform="translate(42.5278604804771 627.53359676416) rotate(0 50.23994445800781 25)"><text x="50.23994445800781" y="0" font-family="Virgil, Segoe UI Emoji" font-size="20px" fill="#000000" text-anchor="middle" style="white-space: pre;" direction="ltr" dominant-baseline="text-before-edge">Persistenc</text><text x="50.23994445800781" y="25" font-family="Virgil, Segoe UI Emoji" font-size="20px" fill="#000000" text-anchor="middle" style="white-space: pre;" direction="ltr" dominant-baseline="text-before-edge">e</text></g><g stroke-linecap="round" transform="translate(262.6015625 380.27734375) rotate(0 35.833984375 193.994140625)"><path d="M17.92 0 M17.92 0 C32.37 -0.03, 43.72 -0.56, 53.75 0 M17.92 0 C30.62 -0.45, 42.76 -0.16, 53.75 0 M53.75 0 C64.18 -1.67, 70.24 6.21, 71.67 17.92 M53.75 0 C67.28 0.66, 73.28 7.94, 71.67 17.92 M71.67 17.92 C72.68 120.55, 73 220.41, 71.67 370.07 M71.67 17.92 C72.94 131.54, 72.15 243.97, 71.67 370.07 M71.67 370.07 C71.37 381, 66.38 389.5, 53.75 387.99 M71.67 370.07 C69.46 382.96, 66.94 387.41, 53.75 387.99 M53.75 387.99 C44.47 388.43, 35.9 387.94, 17.92 387.99 M53.75 387.99 C41.3 388.81, 27.49 389.28, 17.92 387.99 M17.92 387.99 C4.79 388.95, -1.8 380.55, 0 370.07 M17.92 387.99 C5.31 390.06, -1.4 381.1, 0 370.07 M0 370.07 C1.26 237.53, 0.41 108.28, 0 17.92 M0 370.07 C-2.24 283.01, -1.32 195.76, 0 17.92 M0 17.92 C-0.04 6.49, 6.99 1.23, 17.92 0 M0 17.92 C1.38 7.14, 6.29 -0.28, 17.92 0" stroke="#000000" stroke-width="1" fill="none"></path></g><g stroke-linecap="round" transform="translate(415.02734375 421.0078125) rotate(0 66.55078125 75)"><path d="M32 0 M32 0 C56.39 -0.97, 83.81 -0.03, 101.1 0 M32 0 C57.71 -0.35, 82.97 -0.31, 101.1 0 M101.1 0 C121.34 1.15, 131.52 10.73, 133.1 32 M101.1 0 C123.3 1.96, 133.61 10.41, 133.1 32 M133.1 32 C133.91 67.18, 133.86 99.72, 133.1 118 M133.1 32 C133.01 57.18, 132.9 83.01, 133.1 118 M133.1 118 C133.19 140.51, 121.65 149.96, 101.1 150 M133.1 118 C135.26 141.54, 123.64 151.43, 101.1 150 M101.1 150 C76.23 150.63, 56.63 148.6, 32 150 M101.1 150 C80.57 150.27, 60.99 150, 32 150 M32 150 C12.06 149.78, 1.01 141.2, 0 118 M32 150 C12.77 151.06, -0.36 140.74, 0 118 M0 118 C0.8 98.53, -1.65 80.69, 0 32 M0 118 C0.33 96.07, -1.02 74.02, 0 32 M0 32 C0.45 10.54, 11.55 0.66, 32 0 M0 32 C1.53 9.97, 11.61 0.11, 32 0" stroke="#000000" stroke-width="1" fill="none"></path></g><g transform="translate(433.6421585083008 426.0078125) rotate(0 47.93596649169922 70)"><text x="47.93596649169922" y="0" font-family="Virgil, Segoe UI Emoji" font-size="16px" fill="#000000" text-anchor="middle" style="white-space: pre;" direction="ltr" dominant-baseline="text-before-edge"></text><text x="47.93596649169922" y="20" font-family="Virgil, Segoe UI Emoji" font-size="16px" fill="#000000" text-anchor="middle" style="white-space: pre;" direction="ltr" dominant-baseline="text-before-edge"></text><text x="47.93596649169922" y="40" font-family="Virgil, Segoe UI Emoji" font-size="16px" fill="#000000" text-anchor="middle" style="white-space: pre;" direction="ltr" dominant-baseline="text-before-edge">- List of </text><text x="47.93596649169922" y="60" font-family="Virgil, Segoe UI Emoji" font-size="16px" fill="#000000" text-anchor="middle" style="white-space: pre;" direction="ltr" dominant-baseline="text-before-edge">restaurants</text><text x="47.93596649169922" y="80" font-family="Virgil, Segoe UI Emoji" font-size="16px" fill="#000000" text-anchor="middle" style="white-space: pre;" direction="ltr" dominant-baseline="text-before-edge">- Search</text><text x="47.93596649169922" y="100" font-family="Virgil, Segoe UI Emoji" font-size="16px" fill="#000000" text-anchor="middle" style="white-space: pre;" direction="ltr" dominant-baseline="text-before-edge">- Pagination</text><text x="47.93596649169922" y="120" font-family="Virgil, Segoe UI Emoji" font-size="16px" fill="#000000" text-anchor="middle" style="white-space: pre;" direction="ltr" dominant-baseline="text-before-edge"></text></g><g transform="translate(293.46484375 409.82421875) rotate(0 6.779998779296875 150)"><text x="0" y="0" font-family="Virgil, Segoe UI Emoji" font-size="20px" fill="#000000" text-anchor="start" style="white-space: pre;" direction="ltr" dominant-baseline="text-before-edge">R</text><text x="0" y="25" font-family="Virgil, Segoe UI Emoji" font-size="20px" fill="#000000" text-anchor="start" style="white-space: pre;" direction="ltr" dominant-baseline="text-before-edge">e</text><text x="0" y="50" font-family="Virgil, Segoe UI Emoji" font-size="20px" fill="#000000" text-anchor="start" style="white-space: pre;" direction="ltr" dominant-baseline="text-before-edge">p</text><text x="0" y="75" font-family="Virgil, Segoe UI Emoji" font-size="20px" fill="#000000" text-anchor="start" style="white-space: pre;" direction="ltr" dominant-baseline="text-before-edge">o</text><text x="0" y="100" font-family="Virgil, Segoe UI Emoji" font-size="20px" fill="#000000" text-anchor="start" style="white-space: pre;" direction="ltr" dominant-baseline="text-before-edge">s</text><text x="0" y="125" font-family="Virgil, Segoe UI Emoji" font-size="20px" fill="#000000" text-anchor="start" style="white-space: pre;" direction="ltr" dominant-baseline="text-before-edge">i</text><text x="0" y="150" font-family="Virgil, Segoe UI Emoji" font-size="20px" fill="#000000" text-anchor="start" style="white-space: pre;" direction="ltr" dominant-baseline="text-before-edge">t</text><text x="0" y="175" font-family="Virgil, Segoe UI Emoji" font-size="20px" fill="#000000" text-anchor="start" style="white-space: pre;" direction="ltr" dominant-baseline="text-before-edge">o</text><text x="0" y="200" font-family="Virgil, Segoe UI Emoji" font-size="20px" fill="#000000" text-anchor="start" style="white-space: pre;" direction="ltr" dominant-baseline="text-before-edge">r</text><text x="0" y="225" font-family="Virgil, Segoe UI Emoji" font-size="20px" fill="#000000" text-anchor="start" style="white-space: pre;" direction="ltr" dominant-baseline="text-before-edge">i</text><text x="0" y="250" font-family="Virgil, Segoe UI Emoji" font-size="20px" fill="#000000" text-anchor="start" style="white-space: pre;" direction="ltr" dominant-baseline="text-before-edge">e</text><text x="0" y="275" font-family="Virgil, Segoe UI Emoji" font-size="20px" fill="#000000" text-anchor="start" style="white-space: pre;" direction="ltr" dominant-baseline="text-before-edge">s</text></g><g stroke-linecap="round" transform="translate(70.88671875 413.94140625) rotate(0 0.115234375 0.115234375)"><path d="M0.06 0 M0.06 0 C0.09 0.01, 0.13 -0.01, 0.17 0 M0.06 0 C0.09 0, 0.12 0, 0.17 0 M0.17 0 C-0.23 1.18, -1.68 -0.72, 0.23 0.06 M0.17 0 C-1.52 -2.15, 2.49 1.74, 0.23 0.06 M0.23 0.06 C0.23 0.1, 0.23 0.15, 0.23 0.17 M0.23 0.06 C0.23 0.1, 0.23 0.13, 0.23 0.17 M0.23 0.17 C-1.31 1.91, -1.23 1.87, 0.17 0.23 M0.23 0.17 C0.56 1.75, 1.59 1.47, 0.17 0.23 M0.17 0.23 C0.15 0.23, 0.12 0.24, 0.06 0.23 M0.17 0.23 C0.14 0.23, 0.11 0.23, 0.06 0.23 M0.06 0.23 C0.91 1.01, 0.27 0.58, 0 0.17 M0.06 0.23 C-1.53 1.81, -1.95 -1.75, 0 0.17 M0 0.17 C0.01 0.13, 0.01 0.11, 0 0.06 M0 0.17 C0.01 0.15, 0 0.11, 0 0.06 M0 0.06 C0.25 -1.36, -1 -1.29, 0.06 0 M0 0.06 C-0.19 -1.78, -2.09 0.2, 0.06 0" stroke="#000000" stroke-width="1" fill="none"></path></g><g stroke-linecap="round" transform="translate(403.421875 605.986328125) rotate(0 68.59375 53.193359375)"><path d="M26.6 0 M26.6 0 C56.48 -1.04, 89.39 -0.1, 110.59 0 M26.6 0 C57.9 -0.36, 88.74 -0.32, 110.59 0 M110.59 0 C127.23 1.15, 135.6 8.93, 137.19 26.6 M110.59 0 C129.19 1.96, 137.69 8.61, 137.19 26.6 M137.19 26.6 C138.18 48.87, 138.13 68.49, 137.19 79.79 M137.19 26.6 C137.01 42.1, 136.9 58.25, 137.19 79.79 M137.19 79.79 C137.27 98.7, 127.54 106.35, 110.59 106.39 M137.19 79.79 C139.35 99.73, 129.52 107.81, 110.59 106.39 M110.59 106.39 C80.72 106.96, 56.12 104.93, 26.6 106.39 M110.59 106.39 C85.74 106.61, 61.84 106.34, 26.6 106.39 M26.6 106.39 C10.26 106.17, 1.01 99.39, 0 79.79 M26.6 106.39 C10.97 107.45, -0.36 98.93, 0 79.79 M0 79.79 C0.75 67.75, -1.69 57.35, 0 26.6 M0 79.79 C0.51 66.24, -0.84 52.58, 0 26.6 M0 26.6 C0.45 8.74, 9.75 0.66, 26.6 0 M0 26.6 C1.53 8.17, 9.81 0.11, 26.6 0" stroke="#000000" stroke-width="1" fill="none"></path></g><g stroke-linecap="round" transform="translate(604.87890625 454.330078125) rotate(0 66.55078125 50.244140625)"><path d="M25.12 0 M25.12 0 C54.59 -1.04, 87.08 -0.09, 107.98 0 M25.12 0 C55.99 -0.36, 86.41 -0.32, 107.98 0 M107.98 0 C123.64 1.15, 131.52 8.44, 133.1 25.12 M107.98 0 C125.6 1.96, 133.61 8.12, 133.1 25.12 M133.1 25.12 C134.11 46.23, 134.06 64.69, 133.1 75.37 M133.1 25.12 C132.91 39.76, 132.81 55.04, 133.1 75.37 M133.1 75.37 C133.19 93.29, 123.94 100.45, 107.98 100.49 M133.1 75.37 C135.26 94.32, 125.93 101.92, 107.98 100.49 M107.98 100.49 C78.49 101.07, 54.27 99.04, 25.12 100.49 M107.98 100.49 C83.46 100.71, 59.89 100.44, 25.12 100.49 M25.12 100.49 C9.77 100.27, 1.01 93.98, 0 75.37 M25.12 100.49 C10.48 101.55, -0.36 93.52, 0 75.37 M0 75.37 C0.75 63.99, -1.69 54.26, 0 25.12 M0 75.37 C0.52 62.57, -0.83 49.66, 0 25.12 M0 25.12 C0.45 8.25, 9.26 0.66, 25.12 0 M0 25.12 C1.53 7.68, 9.32 0.11, 25.12 0" stroke="#000000" stroke-width="1" fill="none"></path></g><g stroke-linecap="round" transform="translate(590.04296875 585.689453125) rotate(0 77.947265625 52.97265625)"><path d="M26.49 0 M26.49 0 C63.35 -1.14, 103.24 -0.19, 129.41 0 M26.49 0 C64.89 -0.38, 102.83 -0.34, 129.41 0 M129.41 0 C145.98 1.15, 154.31 8.89, 155.89 26.49 M129.41 0 C147.93 1.96, 156.4 8.57, 155.89 26.49 M155.89 26.49 C156.89 48.67, 156.84 68.21, 155.89 79.46 M155.89 26.49 C155.71 41.93, 155.61 58.01, 155.89 79.46 M155.89 79.46 C155.98 98.3, 146.28 105.9, 129.41 105.95 M155.89 79.46 C158.05 99.32, 148.27 107.37, 129.41 105.95 M129.41 105.95 C93.18 106.45, 62.23 104.42, 26.49 105.95 M129.41 105.95 C99.07 106.11, 69.68 105.84, 26.49 105.95 M26.49 105.95 C10.23 105.73, 1.01 98.99, 0 79.46 M26.49 105.95 C10.93 107.01, -0.36 98.52, 0 79.46 M0 79.46 C0.75 67.47, -1.69 57.12, 0 26.49 M0 79.46 C0.51 65.97, -0.84 52.36, 0 26.49 M0 26.49 C0.45 8.7, 9.71 0.66, 26.49 0 M0 26.49 C1.53 8.13, 9.78 0.11, 26.49 0" stroke="#000000" stroke-width="1" fill="none"></path></g><g transform="translate(464.87109375 426.28125) rotate(0 19.259979248046875 12.5)"><text x="0" y="0" font-family="Virgil, Segoe UI Emoji" font-size="20px" fill="#000000" text-anchor="start" style="white-space: pre;" direction="ltr" dominant-baseline="text-before-edge">List</text></g><g transform="translate(434.15625 609.40234375) rotate(0 35.8399658203125 12.5)"><text x="0" y="0" font-family="Virgil, Segoe UI Emoji" font-size="20px" fill="#000000" text-anchor="start" style="white-space: pre;" direction="ltr" dominant-baseline="text-before-edge">Details</text></g><g transform="translate(649.49609375 467.16015625) rotate(0 23.059982299804688 12.5)"><text x="0" y="0" font-family="Virgil, Segoe UI Emoji" font-size="20px" fill="#000000" text-anchor="start" style="white-space: pre;" direction="ltr" dominant-baseline="text-before-edge">Cart</text></g><g transform="translate(625.75390625 588.0859375) rotate(0 40.76996612548828 12.5)"><text x="0" y="0" font-family="Virgil, Segoe UI Emoji" font-size="20px" fill="#000000" text-anchor="start" style="white-space: pre;" direction="ltr" dominant-baseline="text-before-edge">Tracking</text></g><g transform="translate(420.8046875 644.5) rotate(0 52.64796447753906 30)"><text x="0" y="0" font-family="Virgil, Segoe UI Emoji" font-size="16px" fill="#000000" text-anchor="start" style="white-space: pre;" direction="ltr" dominant-baseline="text-before-edge">- Info</text><text x="0" y="20" font-family="Virgil, Segoe UI Emoji" font-size="16px" fill="#000000" text-anchor="start" style="white-space: pre;" direction="ltr" dominant-baseline="text-before-edge">- Dishes</text><text x="0" y="40" font-family="Virgil, Segoe UI Emoji" font-size="16px" fill="#000000" text-anchor="start" style="white-space: pre;" direction="ltr" dominant-baseline="text-before-edge">- Place order</text></g><g transform="translate(627.33984375 508.0625) rotate(0 47.74396514892578 20)"><text x="0" y="0" font-family="Virgil, Segoe UI Emoji" font-size="16px" fill="#000000" text-anchor="start" style="white-space: pre;" direction="ltr" dominant-baseline="text-before-edge">- Payment</text><text x="0" y="20" font-family="Virgil, Segoe UI Emoji" font-size="16px" fill="#000000" text-anchor="start" style="white-space: pre;" direction="ltr" dominant-baseline="text-before-edge">- Edit order</text></g><g transform="translate(610.43359375 626.95703125) rotate(0 63.60795593261719 30)"><text x="0" y="0" font-family="Virgil, Segoe UI Emoji" font-size="16px" fill="#000000" text-anchor="start" style="white-space: pre;" direction="ltr" dominant-baseline="text-before-edge">- ETA</text><text x="0" y="20" font-family="Virgil, Segoe UI Emoji" font-size="16px" fill="#000000" text-anchor="start" style="white-space: pre;" direction="ltr" dominant-baseline="text-before-edge">- Map</text><text x="0" y="40" font-family="Virgil, Segoe UI Emoji" font-size="16px" fill="#000000" text-anchor="start" style="white-space: pre;" direction="ltr" dominant-baseline="text-before-edge">- Order tracking</text></g><g stroke-linecap="round" transform="translate(804.54296875 351.6875) rotate(0 27.0703125 195.3359375)"><path d="M13.54 0 M13.54 0 C18.59 -1.63, 27.67 1.89, 40.61 0 M13.54 0 C24.33 0.03, 34.73 -0.01, 40.61 0 M40.61 0 C49.55 -0.4, 55.3 3.98, 54.14 13.54 M40.61 0 C50.84 0.35, 53.9 2.6, 54.14 13.54 M54.14 13.54 C55.41 138.81, 55.93 264.78, 54.14 377.14 M54.14 13.54 C55.41 108.13, 55.32 203.58, 54.14 377.14 M54.14 377.14 C54.11 385.9, 48.66 388.91, 40.61 390.67 M54.14 377.14 C55.52 386.51, 48.79 390.26, 40.61 390.67 M40.61 390.67 C35.25 390.1, 27.91 390.53, 13.54 390.67 M40.61 390.67 C32.94 391.21, 26.4 390.47, 13.54 390.67 M13.54 390.67 C5.08 391.57, -0.27 387, 0 377.14 M13.54 390.67 C5.84 391.77, -0.15 387.03, 0 377.14 M0 377.14 C-1.89 270.16, -1.63 161.29, 0 13.54 M0 377.14 C1.27 294.51, 2.11 211.08, 0 13.54 M0 13.54 C-0.59 5.83, 4.54 0.04, 13.54 0 M0 13.54 C-1.57 6.37, 2.33 -0.22, 13.54 0" stroke="#000000" stroke-width="1" fill="none"></path></g><g transform="translate(828.69140625 403) rotate(0 5.33599853515625 100)"><text x="0" y="0" font-family="Virgil, Segoe UI Emoji" font-size="16px" fill="#000000" text-anchor="start" style="white-space: pre;" direction="ltr" dominant-baseline="text-before-edge">N</text><text x="0" y="20" font-family="Virgil, Segoe UI Emoji" font-size="16px" fill="#000000" text-anchor="start" style="white-space: pre;" direction="ltr" dominant-baseline="text-before-edge">a</text><text x="0" y="40" font-family="Virgil, Segoe UI Emoji" font-size="16px" fill="#000000" text-anchor="start" style="white-space: pre;" direction="ltr" dominant-baseline="text-before-edge">v</text><text x="0" y="60" font-family="Virgil, Segoe UI Emoji" font-size="16px" fill="#000000" text-anchor="start" style="white-space: pre;" direction="ltr" dominant-baseline="text-before-edge">i</text><text x="0" y="80" font-family="Virgil, Segoe UI Emoji" font-size="16px" fill="#000000" text-anchor="start" style="white-space: pre;" direction="ltr" dominant-baseline="text-before-edge">g</text><text x="0" y="100" font-family="Virgil, Segoe UI Emoji" font-size="16px" fill="#000000" text-anchor="start" style="white-space: pre;" direction="ltr" dominant-baseline="text-before-edge">a</text><text x="0" y="120" font-family="Virgil, Segoe UI Emoji" font-size="16px" fill="#000000" text-anchor="start" style="white-space: pre;" direction="ltr" dominant-baseline="text-before-edge">t</text><text x="0" y="140" font-family="Virgil, Segoe UI Emoji" font-size="16px" fill="#000000" text-anchor="start" style="white-space: pre;" direction="ltr" dominant-baseline="text-before-edge">i</text><text x="0" y="160" font-family="Virgil, Segoe UI Emoji" font-size="16px" fill="#000000" text-anchor="start" style="white-space: pre;" direction="ltr" dominant-baseline="text-before-edge">o</text><text x="0" y="180" font-family="Virgil, Segoe UI Emoji" font-size="16px" fill="#000000" text-anchor="start" style="white-space: pre;" direction="ltr" dominant-baseline="text-before-edge">n</text></g><g stroke-linecap="round" transform="translate(270.04296875 296.3046875) rotate(0 289.884765625 22.3984375)"><path d="M11.2 0 M11.2 0 C124.92 -0.84, 237.38 0.46, 568.57 0 M11.2 0 C217.53 -0.61, 423.29 -0.22, 568.57 0 M568.57 0 C577.47 -1.73, 579.98 5.12, 579.77 11.2 M568.57 0 C574.97 1.98, 578.39 2.8, 579.77 11.2 M579.77 11.2 C579.47 19.91, 580.27 27.47, 579.77 33.6 M579.77 11.2 C580.82 17.6, 579.01 23.39, 579.77 33.6 M579.77 33.6 C581.12 42.76, 577.92 43.92, 568.57 44.8 M579.77 33.6 C581.25 42.95, 575.81 45.53, 568.57 44.8 M568.57 44.8 C409.18 45.27, 248.86 45.51, 11.2 44.8 M568.57 44.8 C388.93 45.04, 210.07 45.66, 11.2 44.8 M11.2 44.8 C4.65 45.85, -1.92 39.78, 0 33.6 M11.2 44.8 C4.75 44.4, 1.65 41.48, 0 33.6 M0 33.6 C-1.81 29.95, -0.96 22.38, 0 11.2 M0 33.6 C0.22 26.79, 0.63 19.54, 0 11.2 M0 11.2 C1.06 5.14, 1.96 0.16, 11.2 0 M0 11.2 C-0.07 4.41, 2 2.18, 11.2 0" stroke="#000000" stroke-width="1" fill="none"></path></g><g transform="translate(412.3359375 311.921875) rotate(0 145.31991577148438 10)"><text x="0" y="0" font-family="Virgil, Segoe UI Emoji" font-size="16px" fill="#000000" text-anchor="start" style="white-space: pre;" direction="ltr" dominant-baseline="text-before-edge">DI/Core/Logging/Analytics/3rd Party</text></g><g stroke-linecap="round"><g transform="translate(176.9609375 193.37890625) rotate(0 -30.36222019270059 59.119340766379594)"><path d="M0.14 0.88 C-10.15 20.25, -50.7 97.3, -60.87 116.33 M-1.24 0.29 C-11.26 19.88, -49.18 98.69, -58.73 117.95" stroke="#000000" stroke-width="1" fill="none"></path></g><g transform="translate(176.9609375 193.37890625) rotate(0 -30.36222019270059 59.119340766379594)"><path d="M-54.13 86.28 C-56.51 97.49, -59.78 111.92, -57.35 116.61 M-56.18 88.3 C-55.22 96.89, -57.95 103.67, -58.21 117.02" stroke="#000000" stroke-width="1" fill="none"></path></g><g transform="translate(176.9609375 193.37890625) rotate(0 -30.36222019270059 59.119340766379594)"><path d="M-35.68 95.28 C-44.99 103.13, -55.19 114.19, -57.35 116.61 M-37.74 97.3 C-41.75 103.41, -49.39 107.81, -58.21 117.02" stroke="#000000" stroke-width="1" fill="none"></path></g></g><mask></mask><g stroke-linecap="round"><g transform="translate(339.32421875 154.30078125) rotate(0 29.58203998879992 14.876978193642572)"><path d="M0.31 0.68 C10.4 5.23, 50.17 23.62, 60.15 28.31 M-0.98 0 C8.96 5.25, 49.01 25.31, 59.06 29.76" stroke="#000000" stroke-width="1" fill="none"></path></g><g transform="translate(339.32421875 154.30078125) rotate(0 29.58203998879992 14.876978193642572)"><path d="M30.34 26.45 C36.95 27.21, 45.81 28.91, 57.37 31.23 M29.17 26.12 C35.69 26.55, 43.16 27.48, 59.17 29.18" stroke="#000000" stroke-width="1" fill="none"></path></g><g transform="translate(339.32421875 154.30078125) rotate(0 29.58203998879992 14.876978193642572)"><path d="M39.16 7.92 C43.57 13.67, 50.07 20.34, 57.37 31.23 M37.99 7.59 C42.51 12.14, 48.04 17.15, 59.17 29.18" stroke="#000000" stroke-width="1" fill="none"></path></g></g><mask></mask><g stroke-linecap="round"><g transform="translate(347.21484375 110.44921875) rotate(0 146.0862518938584 8.061184065048579)"><path d="M0.12 0.77 C48.84 3.59, 244.4 13.63, 293.45 16 M-1.28 0.12 C47.19 2.65, 243.29 11.41, 292.54 14.04" stroke="#000000" stroke-width="1" fill="none"></path></g><g transform="translate(347.21484375 110.44921875) rotate(0 146.0862518938584 8.061184065048579)"><path d="M265.16 23.03 C275.73 21.13, 285.27 14.88, 292.36 12.92 M264.35 22.41 C271.54 20.76, 277.71 17.73, 291.96 13.54" stroke="#000000" stroke-width="1" fill="none"></path></g><g transform="translate(347.21484375 110.44921875) rotate(0 146.0862518938584 8.061184065048579)"><path d="M266.15 2.53 C276.17 8.69, 285.32 10.49, 292.36 12.92 M265.34 1.92 C272.4 5.34, 278.32 7.36, 291.96 13.54" stroke="#000000" stroke-width="1" fill="none"></path></g></g><mask></mask><g stroke-linecap="round"><g transform="translate(505.63671875 265.57421875) rotate(0 -1.5077045209706057 14.463473619823361)"><path d="M0.89 0 C0.09 4.81, -3.37 24.87, -3.91 29.97 M-0.1 -1.04 C-0.63 3.9, -1.3 23.09, -1.76 28.06" stroke="#000000" stroke-width="1" fill="none"></path></g><g transform="translate(505.63671875 265.57421875) rotate(0 -1.5077045209706057 14.463473619823361)"><path d="M-5.97 12.49 C-3.75 19.75, -1.43 25.29, -2.59 28.57 M-6.09 13.27 C-4.92 18.38, -2.85 23.55, -2.14 28.08" stroke="#000000" stroke-width="1" fill="none"></path></g><g transform="translate(505.63671875 265.57421875) rotate(0 -1.5077045209706057 14.463473619823361)"><path d="M4.17 13.11 C2.57 20.21, 1.07 25.52, -2.59 28.57 M4.05 13.89 C1.67 18.79, 0.19 23.74, -2.14 28.08" stroke="#000000" stroke-width="1" fill="none"></path></g></g><mask></mask><g stroke-linecap="round"><g transform="translate(710.59765625 198.3984375) rotate(0 -91.84675768850832 45.981296333433136)"><path d="M0.95 -0.27 C-29.79 15.1, -152.77 77.74, -183.59 93.42 M-0.01 -1.46 C-31 14.08, -153.81 76.11, -184.64 91.7" stroke="#000000" stroke-width="1" fill="none"></path></g><g transform="translate(710.59765625 198.3984375) rotate(0 -91.84675768850832 45.981296333433136)"><path d="M-164.56 69.48 C-170.21 77.14, -177.17 85.19, -186.01 92.86 M-164.86 69.46 C-168.15 75.44, -172.73 79.21, -185.33 91.73" stroke="#000000" stroke-width="1" fill="none"></path></g><g transform="translate(710.59765625 198.3984375) rotate(0 -91.84675768850832 45.981296333433136)"><path d="M-155.3 87.8 C-164.57 88.75, -174.95 90.02, -186.01 92.86 M-155.6 87.78 C-160.91 89.86, -167.48 89.7, -185.33 91.73" stroke="#000000" stroke-width="1" fill="none"></path></g></g><mask></mask><g stroke-linecap="round"><g transform="translate(185.48828125 440.921875) rotate(0 34.22258081647567 21.085779597284272)"><path d="M0.38 -0.13 C11.59 6.83, 55.63 35.02, 66.95 42.46 M-0.88 -1.24 C10.75 5.77, 57.86 36.09, 69.33 43.41" stroke="#000000" stroke-width="1" fill="none"></path></g><g transform="translate(185.48828125 440.921875) rotate(0 34.22258081647567 21.085779597284272)"><path d="M39.84 35.78 C46.25 39.77, 57.71 38.42, 71.16 41.93 M39.13 36.94 C49.12 38.71, 59.27 41.37, 68.59 43.59" stroke="#000000" stroke-width="1" fill="none"></path></g><g transform="translate(185.48828125 440.921875) rotate(0 34.22258081647567 21.085779597284272)"><path d="M50.91 18.5 C54.39 27.26, 62.81 30.65, 71.16 41.93 M50.2 19.66 C56.65 27.05, 63.21 35.32, 68.59 43.59" stroke="#000000" stroke-width="1" fill="none"></path></g></g><mask></mask><g stroke-linecap="round"><g transform="translate(255.80078125 543.37109375) rotate(0 -48.7016312293801 29.909395340988453)"><path d="M-0.65 0.08 C-16.98 10.06, -81.58 49.33, -98.06 59.23 M1.21 -0.92 C-15.2 9.31, -82.25 50.44, -98.62 60.74" stroke="#000000" stroke-width="1" fill="none"></path></g><g transform="translate(255.80078125 543.37109375) rotate(0 -48.7016312293801 29.909395340988453)"><path d="M-79.93 38.41 C-85.69 42.78, -90.73 48.9, -96.94 59.82 M-79.93 36.72 C-87.11 46.39, -94.38 55.54, -97.66 60.32" stroke="#000000" stroke-width="1" fill="none"></path></g><g transform="translate(255.80078125 543.37109375) rotate(0 -48.7016312293801 29.909395340988453)"><path d="M-69.11 55.85 C-77.94 55.07, -86.14 56.09, -96.94 59.82 M-69.12 54.16 C-80.27 57.35, -91.59 59.98, -97.66 60.32" stroke="#000000" stroke-width="1" fill="none"></path></g></g><mask></mask><g stroke-linecap="round"><g transform="translate(186.26171875 630.9140625) rotate(0 36.216839344217476 -16.350616837292932)"><path d="M-0.75 1.19 C11.21 -4.27, 58.76 -27.99, 70.93 -33.89 M1.05 0.76 C13.46 -4.41, 61.4 -26.85, 73.19 -32.51" stroke="#000000" stroke-width="1" fill="none"></path></g><g transform="translate(186.26171875 630.9140625) rotate(0 36.216839344217476 -16.350616837292932)"><path d="M54.06 -12.64 C56.65 -15.17, 60.98 -19.68, 73.12 -33.46 M52.71 -11.04 C59.98 -18.98, 66.34 -25.36, 73.71 -32.86" stroke="#000000" stroke-width="1" fill="none"></path></g><g transform="translate(186.26171875 630.9140625) rotate(0 36.216839344217476 -16.350616837292932)"><path d="M45.29 -31.2 C49.73 -29.38, 56.09 -29.6, 73.12 -33.46 M43.95 -29.6 C54.14 -31.35, 63.46 -31.46, 73.71 -32.86" stroke="#000000" stroke-width="1" fill="none"></path></g></g><mask></mask><g stroke-linecap="round"><g transform="translate(252.86328125 433.375) rotate(0 -30.73395626352169 -13.686968225385073)"><path d="M-0.93 -0.18 C-11.23 -4.26, -51.23 -21.38, -61.57 -25.61 M0.79 -1.33 C-9.65 -5.62, -52.03 -22.85, -62.26 -27.19" stroke="#000000" stroke-width="1" fill="none"></path></g><g transform="translate(252.86328125 433.375) rotate(0 -30.73395626352169 -13.686968225385073)"><path d="M-32.59 -25.04 C-40.17 -28.04, -49.74 -27.27, -61.46 -25.69 M-32.62 -25.75 C-44.25 -25.56, -55.83 -25.92, -62.14 -26.28" stroke="#000000" stroke-width="1" fill="none"></path></g><g transform="translate(252.86328125 433.375) rotate(0 -30.73395626352169 -13.686968225385073)"><path d="M-40.44 -6.08 C-45.32 -15.1, -52.38 -20.41, -61.46 -25.69 M-40.47 -6.79 C-49.11 -14.1, -57.61 -21.93, -62.14 -26.28" stroke="#000000" stroke-width="1" fill="none"></path></g></g><mask></mask><g stroke-linecap="round"><g transform="translate(404.28125 464.15234375) rotate(0 -32.92935315296057 -0.4583903081715448)"><path d="M-0.52 -0.94 C-11.27 -0.91, -54.5 -0.24, -65.34 0.03" stroke="#000000" stroke-width="1.5" fill="none" stroke-dasharray="8 9"></path></g><g transform="translate(404.28125 464.15234375) rotate(0 -32.92935315296057 -0.4583903081715448)"><path d="M-38.92 -10.9 C-45.13 -8.85, -50.52 -6.94, -64.35 -0.37" stroke="#000000" stroke-width="1.5" fill="none"></path></g><g transform="translate(404.28125 464.15234375) rotate(0 -32.92935315296057 -0.4583903081715448)"><path d="M-38.53 9.62 C-44.79 6.96, -50.28 4.15, -64.35 -0.37" stroke="#000000" stroke-width="1.5" fill="none"></path></g></g><mask></mask><g stroke-linecap="round"><g transform="translate(473.53515625 410.5546875) rotate(0 1.5317735487921027 -31.395627485960716)"><path d="M-0.75 0.92 C-0.59 -9.64, 1.1 -53.01, 1.41 -63.71 M1.06 0.36 C1.57 -10.07, 3.4 -52.34, 3.81 -62.79" stroke="#000000" stroke-width="1" fill="none"></path></g><g transform="translate(473.53515625 410.5546875) rotate(0 1.5317735487921027 -31.395627485960716)"><path d="M14.43 -35.19 C7.93 -45.53, 5.57 -54.76, 5.27 -64.1 M13.56 -34.08 C11.14 -41.38, 9.43 -46.03, 4.29 -61.84" stroke="#000000" stroke-width="1" fill="none"></path></g><g transform="translate(473.53515625 410.5546875) rotate(0 1.5317735487921027 -31.395627485960716)"><path d="M-6.08 -36.05 C-5.57 -45.96, -0.94 -54.9, 5.27 -64.1 M-6.95 -34.94 C-4.93 -41.93, -2.19 -46.39, 4.29 -61.84" stroke="#000000" stroke-width="1" fill="none"></path></g></g><mask></mask><g stroke-linecap="round"><g transform="translate(747.84765625 489.16015625) rotate(0 27.78297226354482 1.2420241959392797)"><path d="M-0.43 1.19 C8.86 1.23, 46.44 1.26, 56 1.3" stroke="#000000" stroke-width="1.5" fill="none" stroke-dasharray="8 9"></path></g><g transform="translate(747.84765625 489.16015625) rotate(0 27.78297226354482 1.2420241959392797)"><path d="M31.56 10.57 C38.09 9.13, 46.67 5.35, 54.21 0" stroke="#000000" stroke-width="1.5" fill="none"></path></g><g transform="translate(747.84765625 489.16015625) rotate(0 27.78297226354482 1.2420241959392797)"><path d="M31.6 -8.65 C38.28 -3.96, 46.85 -1.62, 54.21 0" stroke="#000000" stroke-width="1.5" fill="none"></path></g></g><mask></mask><g stroke-linecap="round"><g transform="translate(345.09375 522.19140625) rotate(0 32.7353225552244 0.9853441909048684)"><path d="M0.45 0.14 C11.6 0.21, 55.29 1.27, 66.24 1.49 M-0.77 -0.84 C10.26 -0.08, 54.21 2.26, 65.22 2.81" stroke="#000000" stroke-width="1" fill="none"></path></g><g transform="translate(345.09375 522.19140625) rotate(0 32.7353225552244 0.9853441909048684)"><path d="M36.76 11.35 C42.83 8.96, 49.78 7.86, 65.44 2.09 M35.89 11.2 C46.73 8.07, 58.81 5.52, 65.97 2.92" stroke="#000000" stroke-width="1" fill="none"></path></g><g transform="translate(345.09375 522.19140625) rotate(0 32.7353225552244 0.9853441909048684)"><path d="M37.83 -9.14 C43.82 -6.48, 50.51 -2.54, 65.44 2.09 M36.96 -9.29 C47.3 -4.71, 58.99 0.46, 65.97 2.92" stroke="#000000" stroke-width="1" fill="none"></path></g></g><mask></mask><g stroke-linecap="round"><g transform="translate(509.62109375 350.5703125) rotate(0 -0.8666359339127894 31.067764125177632)"><path d="M0.5 -0.48 C0.25 9.98, -0.63 52.37, -0.96 62.93 M-0.7 -1.77 C-1.2 8.77, -2.46 53.01, -2.2 63.91" stroke="#000000" stroke-width="1" fill="none"></path></g><g transform="translate(509.62109375 350.5703125) rotate(0 -0.8666359339127894 31.067764125177632)"><path d="M-13.06 34.72 C-10.54 43.56, -7.19 53.65, -3.45 65.43 M-11.53 34.92 C-7.94 46.68, -3.72 58.26, -2.06 63.87" stroke="#000000" stroke-width="1" fill="none"></path></g><g transform="translate(509.62109375 350.5703125) rotate(0 -0.8666359339127894 31.067764125177632)"><path d="M7.46 34.86 C2.93 43.73, -0.77 53.78, -3.45 65.43 M8.99 35.06 C4.58 46.9, 0.8 58.43, -2.06 63.87" stroke="#000000" stroke-width="1" fill="none"></path></g></g><mask></mask><g stroke-linecap="round"><g transform="translate(796.375 526.2265625) rotate(0 -24.478990083322856 -0.9572973493621362)"><path d="M1.02 0.34 C-7.17 0.4, -41.05 -0.2, -49.41 -0.4 M0.09 -0.53 C-8.16 -0.76, -41.73 -2.41, -49.97 -2.25" stroke="#000000" stroke-width="1" fill="none"></path></g><g transform="translate(796.375 526.2265625) rotate(0 -24.478990083322856 -0.9572973493621362)"><path d="M-25.68 -9.13 C-31.9 -6.26, -39.18 -5, -51.21 -1.58 M-26.4 -11.09 C-35.42 -6.31, -43.72 -4.4, -49.49 -1.64" stroke="#000000" stroke-width="1" fill="none"></path></g><g transform="translate(796.375 526.2265625) rotate(0 -24.478990083322856 -0.9572973493621362)"><path d="M-26.02 8.02 C-32.03 6.2, -39.22 2.77, -51.21 -1.58 M-26.74 6.06 C-35.57 4.81, -43.74 0.7, -49.49 -1.64" stroke="#000000" stroke-width="1" fill="none"></path></g></g><mask></mask></svg>